<svg class="svg-icon" style="width: 1em;height: 1em;vertical-align: middle;fill: currentColor;overflow: hidden;" viewBox="0 0 1024 1024" version="1.1" xmlns="http://www.w3.org/2000/svg"><path d="M0 0m76.8 0l870.4 0q76.8 0 76.8 76.8l0 870.4q0 76.8-76.8 76.8l-870.4 0q-76.8 0-76.8-76.8l0-870.4q0-76.8 76.8-76.8Z" fill="#6685DC" /><path d="M327.1424 490.496c-35.4304 0-64.1792-38.5024-64.1792-86.016 0-43.136 23.7056-78.8736 54.5792-85.0688C346.6496 243.712 426.1376 189.44 519.68 189.44s173.0816 54.3232 202.1376 129.9712c30.8992 6.1952 54.6048 41.9328 54.6048 85.0688 0 47.5136-28.7744 86.016-64.2048 86.016h-21.376v-107.52c0-82.048-75.6992-150.528-171.1616-150.528s-171.1616 68.48-171.1616 150.528v107.52h-21.376zM221.3632 834.56a175.36 175.36 0 0 1-1.2032-21.504c0-94.6176 59.136-177.3568 147.2768-222.2592A254.72 254.72 0 0 0 519.68 641.024a254.72 254.72 0 0 0 152.2432-50.2272C760.064 635.6992 819.2 718.4384 819.2 813.056c0 7.8592-0.4352 15.0528-1.2032 21.504H221.3632zM519.68 576.512a149.632 149.632 0 0 1-129.6896-75.264 151.1936 151.1936 0 0 1 0-150.528 149.632 149.632 0 0 1 129.6896-75.264c82.688 0 149.76 67.4048 149.76 150.528s-67.072 150.528-149.76 150.528z" fill="#FFFFFF" /></svg>