<svg height="512pt" viewBox="0 -16 512.00051 512" width="512pt" xmlns="http://www.w3.org/2000/svg"><path d="m0 75.011719v390.046875c0 8.285156 6.71875 15.003906 15 15.003906h302.039062c8.285157 0 15.003907-6.71875 15.003907-15.003906v-390.046875c0-8.285157-6.71875-15.003907-15.003907-15.003907h-302.039062c-8.28125 0-15 6.71875-15 15.003907zm0 0" fill="#52c8e8"/><path d="m332.042969 75.011719v390.046875c0 8.285156-6.71875 15.003906-15.003907 15.003906h-151.019531v-420.054688h151.019531c8.285157 0 15.003907 6.71875 15.003907 15.003907zm0 0" fill="#00bff1"/><path d="m30.003906 90.011719h272.035156v360.046875h-272.035156zm0 0" fill="#e0f3fc"/><path d="m166.019531 90.011719h136.019531v360.046875h-136.019531zm0 0" fill="#bdd9f1"/><path d="m437.054688 228.433594c0 6.785156-4.539063 12.808594-11.121094 14.476562-19.503906 4.933594-33.882813 22.5625-33.882813 43.628906v24.902344h-30.003906v-24.902344c0-16.804687 5.402344-32.105468 15-44.707031 9.941406-13.476562 24.4375-23.535156 41.214844-27.90625 9.503906-2.476562 18.792969 4.683594 18.792969 14.507813zm0 0" fill="#9cdd05"/><path d="m437.054688 228.433594c0 6.785156-4.539063 12.808594-11.121094 14.476562-19.503906 4.933594-33.882813 22.5625-33.882813 43.628906v24.902344h-15.003906v-69.609375c9.941406-13.476562 24.4375-23.535156 41.214844-27.902343 9.503906-2.480469 18.792969 4.679687 18.792969 14.503906zm0 0" fill="#6b0"/><g fill="#bdd9f1"><path d="m272.035156 165.023438c0 8.28125-6.71875 15-15.003906 15h-121.015625c-8.28125 0-15-6.71875-15-15 0-8.285157 6.71875-15.003907 15-15.003907h121.015625c8.285156 0 15.003906 6.71875 15.003906 15.003907zm0 0"/><path d="m76.011719 180.023438c-8.285157 0-15.003907-6.71875-15.003907-15 0-8.285157 6.71875-15.003907 15.003907-15.003907 8.28125 0 15 6.71875 15 15.003907 0 8.28125-6.71875 15-15 15zm0 0"/><path d="m272.035156 225.027344c0 8.285156-6.71875 15.003906-15.003906 15.003906h-121.015625c-8.28125 0-15-6.71875-15-15.003906 0-8.28125 6.71875-15 15-15h121.015625c8.285156 0 15.003906 6.71875 15.003906 15zm0 0"/><path d="m76.011719 240.03125c-8.285157 0-15.003907-6.71875-15.003907-15.003906 0-8.28125 6.71875-15 15.003907-15 8.28125 0 15 6.71875 15 15 0 8.285156-6.71875 15.003906-15 15.003906zm0 0"/><path d="m272.035156 285.035156c0 8.285156-6.71875 15.003906-15.003906 15.003906h-121.015625c-8.28125 0-15-6.71875-15-15.003906s6.71875-15 15-15h121.015625c8.285156 0 15.003906 6.714844 15.003906 15zm0 0"/><path d="m76.011719 300.039062c-8.285157 0-15.003907-6.71875-15.003907-15.003906s6.71875-15 15.003907-15c8.28125 0 15 6.714844 15 15s-6.71875 15.003906-15 15.003906zm0 0"/><path d="m258.230469 345.042969c0 8.285156-6.714844 15.003906-15 15.003906h-107.214844c-8.28125 0-15-6.71875-15-15.003906 0-8.285157 6.71875-15 15-15h107.214844c8.285156 0 15 6.714843 15 15zm0 0"/><path d="m76.011719 360.046875c-8.285157 0-15.003907-6.71875-15.003907-15.003906 0-8.285157 6.71875-15 15.003907-15 8.28125 0 15 6.714843 15 15 0 8.285156-6.71875 15.003906-15 15.003906zm0 0"/><path d="m264.234375 405.050781c0 8.285157-6.71875 15.003907-15.003906 15.003907h-113.214844c-8.28125 0-15-6.71875-15-15.003907 0-8.285156 6.71875-15 15-15h113.214844c8.285156 0 15.003906 6.714844 15.003906 15zm0 0"/><path d="m76.011719 420.054688c-8.285157 0-15.003907-6.71875-15.003907-15.003907 0-8.285156 6.71875-15 15.003907-15 8.28125 0 15 6.714844 15 15 0 8.285157-6.71875 15.003907-15 15.003907zm0 0"/></g><path d="m166.019531 330.042969h92.210938v30.003906h-92.210938zm0 0" fill="#99b9d9"/><path d="m166.019531 390.050781h98.214844v30.003907h-98.214844zm0 0" fill="#99b9d9"/><path d="m272.035156 165.023438c0 8.28125-6.71875 15-15.003906 15h-91.011719v-30.003907h91.011719c8.285156 0 15.003906 6.71875 15.003906 15.003907zm0 0" fill="#99b9d9"/><path d="m166.019531 210.027344h91.011719c8.285156 0 15.003906 6.71875 15.003906 15 0 8.285156-6.71875 15.003906-15.003906 15.003906h-91.011719zm0 0" fill="#99b9d9"/><path d="m166.019531 270.035156h91.011719c8.285156 0 15.003906 6.714844 15.003906 15s-6.71875 15.003906-15.003906 15.003906h-91.011719zm0 0" fill="#99b9d9"/><path d="m502.464844 314.441406c-10.199219-23.402344-27.300782-38.40625-48.304688-42.007812-17.40625-3-35.40625 2.402344-51.308594 15-7.203124 6.003906-16.503906 8.703125-25.804687 8.703125s-18.601563-2.699219-25.800781-8.703125c-15.90625-12.597656-33.90625-18-51.308594-15-21.003906 3.601562-38.105469 18.605468-48.308594 42.007812-9.300781 21.300782-12 47.707032-7.199218 74.40625 4.5 26.402344 15.902343 50.410156 32.105468 67.507813 15 15.605469 32.402344 23.707031 50.105469 23.707031 3.300781 0 6.597656-.300781 9.601563-.902344 3.898437-.597656 7.5-1.5 11.097656-3 9.902344-3.898437 19.804687-5.699218 29.707031-5.699218s19.800781 1.800781 29.703125 5.699218c3.601562 1.5 7.199219 2.402344 10.800781 3 21.003907 3.898438 42.304688-4.5 60.007813-22.804687 16.203125-17.097657 27.605468-41.105469 32.105468-67.507813 4.804688-26.699218 2.101563-53.105468-7.199218-74.40625zm0 0" fill="#f16523"/><path d="m509.664062 388.847656c-4.5 26.40625-15.902343 50.410156-32.101562 67.511719-17.703125 18.300781-39.007812 26.703125-60.007812 22.800781-3.601563-.597656-7.203126-1.5-10.804688-3-9.902344-3.898437-19.800781-5.699218-29.703125-5.699218v-174.324219c9.300781 0 18.601563-2.699219 25.804687-8.699219 15.902344-12.601562 33.902344-18.003906 51.308594-15.003906 21 3.601562 38.105469 18.605468 48.304688 42.007812 9.300781 21.300782 12.003906 47.707032 7.199218 74.40625zm0 0" fill="#ee3d23"/><path d="m208.324219 30.003906c-6-17.402344-22.800781-30.003906-42.304688-30.003906-19.5 0-36.304687 12.601562-42.300781 30.003906h-17.707031c-8.28125 0-15 6.71875-15 15.003906v60.007813c0 8.285156 6.71875 15 15 15h120.015625c8.285156 0 15.003906-6.714844 15.003906-15v-60.007813c0-8.285156-6.71875-15.003906-15.003906-15.003906zm0 0" fill="#62729a"/><path d="m226.027344 120.015625h-60.007813v-120.015625c19.503907 0 36.308594 12.601562 42.304688 30.003906h17.703125c8.285156 0 15.003906 6.71875 15.003906 15.003906v60.007813c0 8.285156-6.71875 15-15.003906 15zm0 0" fill="#48578c"/></svg>