<svg id="Layer_1" enable-background="new 0 0 512 512" viewBox="0 0 512 512" xmlns="http://www.w3.org/2000/svg"><g clip-rule="evenodd" fill-rule="evenodd"><g><path d="m186.369 393.347h131.261v74.766h-131.261z" fill="#a79ba7"/><path d="m307.451 393.347h10.179v74.766h-10.179z" fill="#837683"/><path d="m110.117 499.989h283.767v-21.877c0-12.032-12.321-21.877-27.381-21.877h-229.006c-15.06 0-27.381 9.844-27.381 21.877v21.877z" fill="#eceff1"/><path d="m110.117 499.989h283.767v-21.877c0-7.151-4.352-13.528-11.044-17.527 1.504 2.703 2.342 5.689 2.342 8.825v21.877h-275.065z" fill="#d1d1d6"/><path d="m75.282 120.127h353.435c17.659 0 32.107 14.448 32.107 32.107v220.882c0 17.659-14.448 32.107-32.107 32.107h-353.435c-17.659 0-32.107-14.448-32.107-32.107v-220.882c0-17.659 14.448-32.107 32.107-32.107z" fill="#eceff1"/><path d="m446.627 125.623c8.549 5.784 14.198 15.57 14.198 26.611v220.883c0 17.659-14.448 32.107-32.107 32.107h-353.436c-11.041 0-20.826-5.648-26.61-14.197 5.124 3.467 11.291 5.496 17.909 5.496h353.435c17.659 0 32.107-14.448 32.107-32.107v-220.883c.001-6.618-2.029-12.785-5.496-17.91z" fill="#d1d1d6"/><path d="m74.477 146.976h355.047c2.449 0 4.453 2.005 4.453 4.453v199.943h-363.953v-199.943c0-2.449 2.004-4.453 4.453-4.453z" fill="#d8ecfe"/><path d="m412.12 146.976h17.403c2.449 0 4.453 2.005 4.453 4.453v199.943h-17.403v-199.943c0-2.449-2.004-4.453-4.453-4.453z" fill="#c4e2ff"/></g><g><circle cx="252" cy="249.058" fill="#685e68" r="83.788"/><path d="m252 165.27c46.275 0 83.788 37.513 83.788 83.788s-37.513 83.788-83.788 83.788c-1.679 0-3.345-.055-5-.153 43.946-2.587 78.788-39.039 78.788-83.635s-34.841-81.048-78.788-83.635c1.655-.098 3.321-.153 5-.153z" fill="#544854"/><path d="m252 267.138c-27.193 0-50.051 18.551-56.614 43.688 14.911 13.674 34.788 22.019 56.614 22.019s41.704-8.345 56.614-22.02c-6.563-25.136-29.421-43.687-56.614-43.687z" fill="#8ac9fe"/><path d="m252 267.138c-15.429 0-29.46 5.974-39.913 15.732 10.132-8.409 23.144-13.467 37.34-13.467 27.192 0 50.05 18.55 56.614 43.686.873-.738 1.731-1.492 2.573-2.264-6.563-25.136-29.421-43.687-56.614-43.687z" fill="#60b7ff"/><circle cx="252" cy="227.555" fill="#f6dccd" r="29.584"/><path d="m252 197.971c16.338 0 29.583 13.245 29.583 29.583s-13.245 29.584-29.583 29.584c-1.134 0-2.252-.066-3.352-.19 14.759-1.665 26.231-14.189 26.231-29.393s-11.471-27.728-26.231-29.393c1.101-.125 2.219-.191 3.352-.191z" fill="#f1cbbc"/></g><g><path d="m196.222 134.089c0-23.803 0-47.606 0-71.409 0-7.847-6.4-14.248-14.248-14.248-34.785 0-69.571 0-104.356 0-7.847 0-14.248 6.4-14.248 14.248v71.409c0 7.847 6.401 14.248 14.248 14.248h12.057v29.023l27.881-29.023h64.419c7.846 0 14.247-6.4 14.247-14.248z" fill="#ffe177"/><path d="m196.222 134.089c0-23.803 0-47.606 0-71.409 0-7.847-6.4-14.248-14.248-14.248h-10c7.847 0 14.248 6.4 14.248 14.248v71.409c0 7.847-6.4 14.248-14.248 14.248h10c7.847 0 14.248-6.4 14.248-14.248zm-106.548 32.861v10.41l27.881-29.023h-10z" fill="#ffd064"/><path d="m92.534 123.287c-4.418 0-8-3.582-8-8s3.582-8 8-8h72.515c4.418 0 8 3.582 8 8s-3.582 8-8 8zm0-34.834c-4.418 0-8-3.582-8-8s3.582-8 8-8h72.515c4.418 0 8 3.582 8 8s-3.582 8-8 8z" fill="#eceff1"/></g><g><path d="m144.852 105.647c0-23.803 0-47.606 0-71.409 0-7.847-6.4-14.248-14.248-14.248-34.785 0-69.571 0-104.356 0-7.847 0-14.248 6.4-14.248 14.248v71.409c0 7.847 6.401 14.248 14.248 14.248h12.057v29.023l27.881-29.023h64.419c7.847 0 14.247-6.401 14.247-14.248z" fill="#6cf5c2"/><path d="m144.852 105.647c0-23.803 0-47.606 0-71.409 0-7.847-6.4-14.248-14.248-14.248h-10c7.847 0 14.248 6.4 14.248 14.248v71.409c0 7.847-6.4 14.248-14.248 14.248h10c7.848 0 14.248-6.401 14.248-14.248zm-106.547 32.861v10.41l27.881-29.023h-10z" fill="#00e499"/><path d="m41.164 94.844c-4.418 0-8-3.582-8-8s3.582-8 8-8h72.515c4.418 0 8 3.582 8 8s-3.582 8-8 8zm0-34.834c-4.418 0-8-3.582-8-8s3.582-8 8-8h72.515c4.418 0 8 3.582 8 8s-3.582 8-8 8z" fill="#eceff1"/></g><g><path d="m86.17 294.866c13.04 9.761 10.083 8.684 26.345 9.589 6.247.348 11.32 4.605 12.747 10.696 3.715 15.859 2.141 13.133 14.018 24.28 4.562 4.281 5.712 10.803 2.889 16.387-7.348 14.536-6.801 11.438-4.868 27.61.742 6.212-2.569 11.948-8.32 14.411-14.973 6.412-12.562 4.389-21.477 18.021-3.424 5.236-9.647 7.501-15.636 5.691-15.592-4.712-12.445-4.712-28.036 0-5.989 1.81-12.212-.455-15.636-5.691-8.915-13.632-6.504-11.609-21.477-18.021-5.751-2.463-9.063-8.199-8.32-14.411 1.933-16.173 2.479-13.074-4.869-27.61-2.822-5.583-1.672-12.105 2.889-16.387 11.877-11.147 10.303-8.421 14.018-24.28 1.427-6.091 6.5-10.348 12.747-10.696 16.263-.905 13.306.172 26.345-9.589 5.01-3.749 11.632-3.749 16.641 0z" fill="#ffe177"/><path d="m86.17 294.866c13.04 9.761 10.083 8.684 26.345 9.589 6.247.348 11.32 4.605 12.747 10.696 3.715 15.859 2.141 13.133 14.018 24.28 4.562 4.281 5.712 10.803 2.889 16.387-7.348 14.536-6.801 11.438-4.868 27.61.742 6.212-2.569 11.948-8.32 14.411-14.973 6.412-12.562 4.389-21.477 18.021-3.424 5.236-9.647 7.501-15.636 5.691l-.975-.296c2.631-1.016 4.95-2.856 6.61-5.395 8.915-13.632 6.504-11.609 21.477-18.021 5.751-2.463 9.062-8.199 8.32-14.411-1.933-16.173-2.479-13.074 4.868-27.61 2.822-5.583 1.672-12.105-2.889-16.387-11.877-11.147-10.303-8.421-14.018-24.28-1.427-6.091-6.501-10.348-12.747-10.696-16.263-.905-13.306.172-26.345-9.589-1.046-.783-2.162-1.401-3.32-1.858 4.385-1.726 9.358-1.108 13.321 1.858zm-13.32 123.966c-6.023-1.625-7.405-.818-18.044 2.423 2.794 1.079 5.941 1.228 9.026.296 4.053-1.225 6.838-2.13 9.018-2.719z" fill="#ffd064"/><circle cx="77.85" cy="357.11" fill="#eceff1" r="38.858"/><path d="m77.85 318.253c1.694 0 3.363.109 5 .319-19.099 2.453-33.858 18.772-33.858 38.539s14.759 36.085 33.858 38.539c-1.637.21-3.306.319-5 .319-21.46 0-38.858-17.397-38.858-38.858s17.397-38.858 38.858-38.858z" fill="#d1d1d6"/><path d="m54.806 421.255c-2.631-1.016-4.95-2.857-6.61-5.396-6.222-9.514-6.927-11.403-11.876-13.855l-17.916 36.748c-.506 1.039-.395 2.195.3 3.118s1.775 1.35 2.913 1.151l16.91-2.955 8.699 14.971c.575.99 1.582 1.54 2.725 1.49 1.144-.05 2.098-.686 2.585-1.723l16.328-34.797c-1.434.441-3.087.955-5.032 1.543-3.085.933-6.232.784-9.026-.295z" fill="#fe646f"/><path d="m107.504 415.86c-3.424 5.236-9.647 7.501-15.636 5.691-.177-.054-.352-.107-.524-.159l11.517 26.287c.459 1.047 1.394 1.707 2.534 1.788s2.16-.439 2.762-1.411l9.142-14.731 16.875 3.456c1.128.231 2.215-.16 2.938-1.056.722-.897.873-2.042.408-3.096l-12.116-27.405-2.186-4.944c-4.433 1.887-6.469 2.898-8.386 4.944-1.861 1.987-3.609 4.949-7.328 10.636z" fill="#fe646f"/><g fill="#fd4755"><path d="m18.091 440.144c.014.607.22 1.204.613 1.726.695.923 1.775 1.35 2.913 1.151l16.897-2.953-1.46-2.512-16.91 2.955c-.739.13-1.453-.004-2.053-.367zm27.819 12.628 1.317 2.266c.575.99 1.582 1.54 2.725 1.49 1.144-.05 2.098-.686 2.585-1.723l16.328-34.797c-.933.287-1.96.605-3.099.954l-14.703 31.333c-.486 1.036-1.441 1.673-2.585 1.723-1.046.046-1.977-.41-2.568-1.246z"/><path d="m91.703 421.501-.359-.109.021.048c.112.022.225.042.338.061zm12.26 27.495c.415.27.901.433 1.432.471 1.14.081 2.16-.439 2.762-1.411l9.142-14.731 16.875 3.456c1.128.231 2.215-.16 2.938-1.056.722-.897.873-2.042.408-3.096l-12.116-27.405-2.186-4.944c-.517.22-1.001.428-1.457.627l1.702 3.85 12.116 27.405c.465 1.053.314 2.199-.408 3.095-.723.896-1.81 1.288-2.938 1.057l-16.875-3.456-9.142 14.731c-.511.824-1.323 1.324-2.253 1.407z"/></g></g><g><ellipse cx="405.158" cy="367.568" fill="#fe646f" rx="69.86" ry="69.86" transform="matrix(.055 -.999 .999 .055 15.747 751.779)"/><path d="m405.158 297.709c38.582 0 69.859 31.277 69.859 69.86 0 38.582-31.277 69.86-69.859 69.86-1.428 0-2.844-.048-4.25-.132 36.603-2.197 65.61-32.572 65.61-69.727s-29.007-67.53-65.61-69.727c1.407-.087 2.822-.134 4.25-.134z" fill="#fd4755"/><circle cx="405.158" cy="367.568" fill="#eceff1" r="44.892"/><path d="m405.158 322.676c1.238 0 2.464.053 3.676.151-23.074 1.871-41.216 21.186-41.216 44.741s18.143 42.871 41.216 44.742c-1.212.098-2.438.151-3.676.151-24.793 0-44.892-20.099-44.892-44.892 0-24.794 20.099-44.893 44.892-44.893z" fill="#d1d1d6"/><ellipse cx="405.158" cy="367.568" fill="#fe646f" rx="19.925" ry="19.925" transform="matrix(.924 -.383 .383 .924 -109.822 183.027)"/><path d="m405.158 347.643c.676 0 1.344.034 2.003.1-10.064 1.004-17.922 9.497-17.922 19.825s7.859 18.821 17.922 19.825c-.659.066-1.327.1-2.003.1-11.004 0-19.925-8.921-19.925-19.925s8.921-19.925 19.925-19.925z" fill="#fd4755"/><path d="m488.106 310.949-22.731 22.731c-.742.742-1.728 1.032-2.753.811l-18.039-3.888c-1.179-.254-2.047-1.122-2.301-2.301l-3.888-18.04c-.221-1.026.069-2.011.811-2.753l22.731-22.73c.797-.797 1.888-1.075 2.969-.756s1.847 1.143 2.085 2.246l3.072 14.254c.254 1.179 1.122 2.047 2.301 2.301l14.254 3.072c1.102.238 1.927 1.003 2.246 2.085.318 1.08.041 2.171-.757 2.968z" fill="#e3a76f"/><path d="m488.106 310.949-22.731 22.731c-.742.742-1.728 1.032-2.753.811l-18.039-3.888c-1.179-.254-2.047-1.122-2.301-2.301l-.012-.053 17.035 3.671c1.026.221 2.011-.069 2.753-.811l22.731-22.731c.731-.731 1.025-1.708.823-2.7l1.004.216c1.102.238 1.927 1.003 2.246 2.085s.042 2.173-.756 2.97z" fill="#c48958"/><path d="m471.985 289.588c3.124-3.124 8.189-3.124 11.312 0 3.124 3.124 3.124 8.189 0 11.312l-72.404 72.404c-3.124 3.124-8.189 3.124-11.312 0-3.124-3.124-3.124-8.189 0-11.312z" fill="#685e68"/></g><g><path d="m464.42 61.514h11.864c2.754 0 5 2.246 5 5v97.511c0 2.754-2.246 5-5 5h-11.864c-2.754 0-5-2.246-5-5v-97.511c.001-2.754 2.246-5 5-5z" fill="#8ac9fe"/><path d="m470.123 61.514h6.161c2.754 0 5 2.246 5 5v97.511c0 2.754-2.246 5-5 5h-6.161c2.754 0 5-2.246 5-5v-97.511c0-2.754-2.246-5-5-5z" fill="#60b7ff"/><path d="m435.688 82.157h-11.864c-2.754 0-5 2.246-5 5v76.868c0 2.754 2.246 5 5 5h11.864c2.754 0 5-2.246 5-5v-76.868c0-2.754-2.246-5-5-5z" fill="#6cf5c2"/><path d="m435.688 82.157h-5.723c2.754 0 5 2.246 5 5v76.868c0 2.754-2.246 5-5 5h5.723c2.754 0 5-2.246 5-5v-76.868c0-2.754-2.246-5-5-5z" fill="#00e499"/><path d="m395.091 105.104c-3.955 0-7.909 0-11.864 0-2.754 0-5 2.246-5 5v53.92c0 2.754 2.246 5 5 5h11.864c2.754 0 5-2.246 5-5 0-18.969 0-34.952 0-53.92 0-2.754-2.246-5-5-5z" fill="#ffe177"/><path d="m395.091 105.104h-4.808c2.754 0 5 2.246 5 5v53.92c0 2.754-2.246 5-5 5h4.808c2.754 0 5-2.246 5-5 0-18.969 0-34.952 0-53.92 0-2.754-2.246-5-5-5z" fill="#ffd064"/><path d="m349.614 127.08h4.88c2.754 0 5 2.246 5 5v31.945c0 2.754-2.246 5-5 5h-4.88c2.754 0 5-2.246 5-5v-31.945c0-2.754-2.246-5-5-5z" fill="#fd4755"/><path d="m342.63 127.08h11.864c2.754 0 5 2.246 5 5v31.945c0 2.754-2.246 5-5 5h-11.864c-2.754 0-5-2.246-5-5v-31.945c.001-2.754 2.246-5 5-5z" fill="#fe646f"/><path d="m464.205 28.908c-4.401.224-8.151-3.162-8.375-7.563s3.162-8.151 7.562-8.375l17.485-.949c4.401-.224 8.151 3.162 8.375 7.563.027.521.002 1.033-.068 1.53l.006.001-2.523 17.328c-.621 4.366-4.665 7.402-9.031 6.781s-7.402-4.665-6.781-9.031l1.122-7.707z" fill="#a79ba7"/><path d="m337.954 113.906c-4.159 1.45-8.706-.747-10.156-4.906s.747-8.706 4.906-10.156c23.553-8.202 47.816-18.742 71.825-32.426 23.933-13.641 47.631-30.432 70.14-51.184 3.245-2.986 8.296-2.776 11.281.469 2.986 3.245 2.776 8.296-.469 11.281-23.414 21.586-48.109 39.077-73.077 53.308-24.892 14.188-50.041 25.113-74.45 33.614z" fill="#a79ba7"/><path d="m326.915 177.024c-4.418 0-8-3.582-8-8s3.582-8 8-8h165.085c4.418 0 8 3.582 8 8s-3.582 8-8 8z" fill="#9facba"/></g></g></svg>