<?xml version="1.0" encoding="iso-8859-1"?>
<!-- Generator: Adobe Illustrator 21.0.0, SVG Export Plug-In . SVG Version: 6.00 Build 0)  -->
<svg xmlns="http://www.w3.org/2000/svg" xmlns:xlink="http://www.w3.org/1999/xlink" version="1.1" id="Capa_1" x="0px" y="0px" viewBox="0 0 489.334 489.334" style="enable-background:new 0 0 489.334 489.334;" xml:space="preserve" width="512" height="512">
<g>
	<g>
		<g>
			<path style="fill:#F0EEF0;" d="M437.777,404.42c0,13.447-11.002,24.45-24.45,24.45H31.905c-13.448,0-24.45-11.003-24.45-24.45     V66.03c0-13.447,11.002-24.45,24.45-24.45h381.421c13.448,0,24.45,11.003,24.45,24.45V404.42z"/>
		</g>
	</g>
	<path style="fill:#DFDDE0;" d="M413.327,41.58h-40c13.448,0,24.45,11.003,24.45,24.45v338.39c0,13.447-11.002,24.45-24.45,24.45h40   c13.448,0,24.45-11.003,24.45-24.45V66.03C437.777,52.583,426.774,41.58,413.327,41.58z"/>
	<g>
		<g>
			<path style="fill:#FF8086;" d="M437.777,66.03c0-13.447-11.002-24.45-24.45-24.45H31.905c-13.448,0-24.45,11.003-24.45,24.45     v65.354h430.322V66.03z"/>
		</g>
	</g>
	<path style="fill:#E5646E;" d="M413.327,41.58h-40c13.448,0,24.45,11.003,24.45,24.45v65.354h40V66.03   C437.777,52.583,426.774,41.58,413.327,41.58z"/>
	<g>
		<path style="fill:#5D5360;" d="M99.166,0c-4.001,0-7.256,3.255-7.256,7.256v65.038c0,4.001,3.255,7.256,7.256,7.256    c4.001,0,7.257-3.255,7.257-7.256V7.256C106.423,3.255,103.167,0,99.166,0z"/>
		<path style="fill:#5D5360;" d="M222.596,0c-4.001,0-7.257,3.255-7.257,7.256v65.038c0,4.001,3.256,7.256,7.257,7.256    c4.001,0,7.256-3.255,7.256-7.256V7.256C229.852,3.255,226.597,0,222.596,0z"/>
		<path style="fill:#5D5360;" d="M346.026,0c-4.001,0-7.257,3.255-7.257,7.256v65.038c0,4.001,3.255,7.256,7.257,7.256    c4.001,0,7.256-3.255,7.256-7.256V7.256C353.282,3.255,350.027,0,346.026,0z"/>
		<path style="fill:#5D5360;" d="M106.423,72.294c0,4.001-3.255,7.256-7.257,7.256c-4.001,0-7.256-3.255-7.256-7.256V7.256    C91.91,3.255,95.165,0,99.166,0c4.001,0,7.257,3.255,7.257,7.256V72.294z"/>
		<path style="fill:#5D5360;" d="M229.852,72.294c0,4.001-3.255,7.256-7.256,7.256c-4.001,0-7.257-3.255-7.257-7.256V7.256    c0-4.001,3.256-7.256,7.257-7.256c4.001,0,7.256,3.255,7.256,7.256V72.294z"/>
		<path style="fill:#5D5360;" d="M353.282,72.294c0,4.001-3.255,7.256-7.256,7.256c-4.001,0-7.257-3.255-7.257-7.256V7.256    c0-9.356,14.513-9.356,14.513,0V72.294z"/>
	</g>
	<circle style="fill:#9B959D;" cx="266.626" cy="279.544" r="23.472"/>
	<path style="fill:#FF8086;" d="M183.344,367.083l20.125-20.125c2.929-2.929,2.929-7.678,0-10.606   c-2.928-2.929-7.677-2.929-10.606,0l-20.125,20.125l-20.125-20.125c-2.929-2.929-7.678-2.929-10.606,0   c-2.929,2.929-2.929,7.678,0,10.606l20.125,20.125l-20.125,20.125c-2.929,2.929-2.929,7.678,0,10.606   c1.464,1.465,3.384,2.197,5.303,2.197c1.919,0,3.839-0.732,5.303-2.197l20.125-20.125l20.125,20.125   c1.464,1.464,3.384,2.197,5.303,2.197s3.839-0.732,5.303-2.197c2.929-2.929,2.929-7.678,0-10.606L183.344,367.083z"/>
	<g>
		<g>
			
				<ellipse transform="matrix(1 -0.0034 0.0034 1 -1.2313 1.2103)" style="fill:#FFE07D;" cx="360.515" cy="367.992" rx="121.364" ry="121.342"/>
		</g>
		<path style="fill:#FFD064;" d="M360.109,246.651c-6.672,0.022-13.214,0.591-19.591,1.648    c57.342,9.51,101.158,59.225,101.36,119.286c0.202,60.344-43.691,110.54-101.366,120.1c6.638,1.101,13.455,1.671,20.41,1.648    c67.025-0.224,121.181-54.733,120.956-121.748C481.653,300.57,427.135,246.426,360.109,246.651z"/>
		<g>
			<g>
				
					<ellipse transform="matrix(1 -0.0033 0.0033 1 -1.486 1.2078)" style="fill:#FF8086;" cx="360.515" cy="445.053" rx="16.36" ry="16.357"/>
			</g>
			<g>
				<path style="fill:#FF8086;" d="M377.267,391.427c0,9.253-7.501,16.754-16.753,16.754l0,0c-9.252,0-16.754-7.5-16.754-16.754      V291.328c0-9.253,7.501-16.754,16.754-16.754l0,0c9.253,0,16.753,7.501,16.753,16.754V391.427z"/>
			</g>
		</g>
	</g>
	<circle style="fill:#9B959D;" cx="78.849" cy="192.502" r="23.472"/>
	<circle style="fill:#9B959D;" cx="172.738" cy="192.502" r="23.472"/>
	<circle style="fill:#9B959D;" cx="266.626" cy="192.502" r="23.472"/>
	<circle style="fill:#9B959D;" cx="360.515" cy="192.502" r="23.472"/>
	<circle style="fill:#9B959D;" cx="78.849" cy="279.544" r="23.472"/>
	<circle style="fill:#9B959D;" cx="172.738" cy="279.544" r="23.472"/>
	<circle style="fill:#9B959D;" cx="78.849" cy="366.587" r="23.472"/>
</g>















</svg>
