<svg height="512pt" viewBox="0 0 512 512.00065" width="512pt" xmlns="http://www.w3.org/2000/svg"><g fill="#d98868"><path d="m238.488281 162.769531h35.023438v39.140625h-35.023438zm0 0"/><path d="m213.824219 96.054688c0-14.792969-10.851563-26.785157-24.238281-26.785157-13.390626 0-24.242188 11.992188-24.242188 26.785157 0 14.792968 10.851562 26.785156 24.242188 26.785156 13.386718 0 24.238281-11.992188 24.238281-26.785156zm0 0"/><path d="m346.65625 96.054688c0-14.792969-10.851562-26.785157-24.238281-26.785157-13.390625 0-24.242188 11.992188-24.242188 26.785157 0 14.792968 10.851563 26.785156 24.242188 26.785156 13.386719 0 24.238281-11.992188 24.238281-26.785156zm0 0"/></g><path d="m195.21875 112.410156v-44.863281c0-31.613281 25.632812-57.246094 57.246094-57.246094h7.070312c31.617188 0 57.246094 25.632813 57.246094 57.246094v44.863281c0 33.503906-27.15625 60.660156-60.65625 60.660156h-.246094c-33.5 0-60.660156-27.15625-60.660156-60.660156zm0 0" fill="#ebad88"/><path d="m259.644531 10.300781h-7.289062c-4.046875 0-7.996094.429688-11.804688 1.234375 25.886719 5.460938 45.328125 28.511719 45.328125 56.125v44.636719c0 28.289063-19.257812 52.0625-45.328125 58.835937 4.859375 1.265626 9.957031 1.9375 15.214844 1.9375h.472656c33.4375 0 60.542969-27.207031 60.542969-60.773437v-44.636719c0-31.679687-25.578125-57.359375-57.136719-57.359375zm0 0" fill="#e8916f"/><path d="m319.972656 83.972656c-1.691406 4.402344-7.324218 6.089844-11.105468 3.164063-10.117188-7.785157-12.941407-29.234375-13.34375-32.753907-.035157-.3125-.222657-.589843-.492188-.75-13.847656-8.058593-18.863281-16.667968-20.449219-20.257812-.3125-.695312-1.242187-.785156-1.699219-.175781-11.390624 15.105469-49.582031 19.933593-55.5625 20.605469-.460937.050781-.824218.410156-.878906.867187-.507812 4.277344-3.433594 24.867187-13.300781 32.464844-3.78125 2.925781-9.414063 1.238281-11.105469-3.167969-5.203125-13.515625-2.050781-30.082031-2.050781-30.082031s1.882813-45.195313 42.59375-51.9375c43.183594-7.140625 50.6875 7.640625 50.6875 7.640625 40.523437 1.949218 38.75 44.296875 38.75 44.296875s3.152344 16.570312-2.042969 30.085937zm0 0" fill="#8c4a37"/><path d="m322.015625 53.890625s1.769531-42.351563-38.753906-44.300781c0 0-7-13.765625-46.308594-8.300782 6.253906 1.304688 10.105469 3.378907 12.390625 5.128907 2.621094 2.003906 5.75 3.257812 9.015625 3.792969 28.742187 4.710937 32.3125 32.132812 32.714844 40.949218 1.230469.824219 2.546875 1.652344 3.957031 2.472656.269531.160157.457031.4375.492188.75.398437 3.519532 3.226562 24.96875 13.34375 32.753907 3.78125 2.925781 9.414062 1.238281 11.105468-3.167969 5.195313-13.511719 2.042969-30.078125 2.042969-30.078125zm0 0" fill="#804231"/><path d="m335.324219 256.335938v7.511718c0 2.210938-1.789063 4-4 4h-150.648438c-2.207031 0-4-1.789062-4-4v-7.511718c0-33.46875 23.464844-60.601563 52.410157-60.601563h53.828124c28.945313 0 52.410157 27.132813 52.410157 60.601563zm0 0" fill="#ff2c5c"/><path d="m282.914062 195.734375h-31.097656c28.945313 0 52.410156 27.132813 52.410156 60.601563v11.511718h27.097657c2.207031 0 4-1.789062 4-4v-7.511718c0-33.46875-23.464844-60.601563-52.410157-60.601563zm0 0" fill="#e62753"/><path d="m73.144531 406.921875h35.023438v39.140625h-35.023438zm0 0" fill="#d98868"/><path d="m48.480469 340.207031c0-14.792969-10.851563-26.785156-24.238281-26.785156-13.390626 0-24.242188 11.992187-24.242188 26.785156s10.851562 26.785157 24.242188 26.785157c13.386718 0 24.238281-11.992188 24.238281-26.785157zm0 0" fill="#d98868"/><path d="m181.3125 340.207031c0-14.792969-10.851562-26.785156-24.238281-26.785156-13.390625 0-24.242188 11.992187-24.242188 26.785156s10.851563 26.785157 24.242188 26.785157c13.386719 0 24.238281-11.992188 24.238281-26.785157zm0 0" fill="#d98868"/><path d="m29.875 356.566406v-44.863281c0-31.617187 25.632812-57.246094 57.246094-57.246094h7.070312c31.617188 0 57.246094 25.628907 57.246094 57.246094v44.863281c0 33.5-27.15625 60.65625-60.65625 60.65625h-.246094c-33.5 0-60.660156-27.15625-60.660156-60.65625zm0 0" fill="#ebad88"/><path d="m94.300781 254.457031h-7.289062c-4.046875 0-7.996094.425781-11.804688 1.230469 25.886719 5.464844 45.328125 28.511719 45.328125 56.125v44.636719c0 28.289062-19.257812 52.0625-45.328125 58.835937 4.859375 1.265625 9.957031 1.941406 15.214844 1.941406h.472656c33.4375 0 60.542969-27.210937 60.542969-60.777343v-44.636719c0-31.679688-25.582031-57.355469-57.136719-57.355469zm0 0" fill="#e8916f"/><path d="m154.628906 328.125c-1.691406 4.40625-7.324218 6.089844-11.105468 3.167969-10.117188-7.789063-12.941407-29.238281-13.34375-32.757813-.035157-.3125-.222657-.589844-.496094-.746094-13.84375-8.0625-18.859375-16.671874-20.449219-20.257812-.308594-.699219-1.238281-.789062-1.695313-.179688-11.390624 15.105469-49.582031 19.9375-55.5625 20.605469-.460937.050781-.824218.410157-.878906.871094-.507812 4.277344-3.433594 24.867187-13.300781 32.464844-3.78125 2.921875-9.414063 1.238281-11.105469-3.167969-5.203125-13.515625-2.050781-30.082031-2.050781-30.082031s1.882813-45.195313 42.59375-51.9375c43.183594-7.144531 50.6875 7.636719 50.6875 7.636719 40.519531 1.949218 38.75 44.300781 38.75 44.300781s3.152344 16.566406-2.042969 30.082031zm0 0" fill="#8c4a37"/><path d="m156.671875 298.042969s1.769531-42.351563-38.753906-44.300781c0 0-7-13.761719-46.3125-8.300782 6.253906 1.304688 10.109375 3.382813 12.394531 5.128906 2.621094 2.003907 5.75 3.261719 9.015625 3.796876 28.742187 4.710937 32.3125 32.128906 32.710937 40.945312 1.234376.824219 2.546876 1.652344 3.957032 2.476562.273437.15625.460937.433594.496094.746094.398437 3.523438 3.226562 24.96875 13.34375 32.753906 3.78125 2.925782 9.414062 1.238282 11.105468-3.164062 5.195313-13.515625 2.042969-30.082031 2.042969-30.082031zm0 0" fill="#804231"/><path d="m169.980469 500.488281v7.511719c0 2.210938-1.792969 4-4 4h-150.648438c-2.207031 0-4-1.789062-4-4v-7.511719c0-33.46875 23.464844-60.601562 52.410157-60.601562h53.828124c28.945313 0 52.410157 27.132812 52.410157 60.601562zm0 0" fill="#ffd659"/><path d="m117.570312 439.886719h-31.097656c28.945313 0 52.410156 27.132812 52.410156 60.601562v11.511719h27.097657c2.207031 0 4-1.789062 4-4v-7.511719c0-33.46875-23.464844-60.601562-52.410157-60.601562zm0 0" fill="#ffbd54"/><path d="m403.832031 406.921875h35.023438v39.140625h-35.023438zm0 0" fill="#d98868"/><path d="m379.167969 340.207031c0-14.792969-10.851563-26.785156-24.238281-26.785156-13.390626 0-24.242188 11.992187-24.242188 26.785156s10.851562 26.785157 24.242188 26.785157c13.386718 0 24.238281-11.992188 24.238281-26.785157zm0 0" fill="#d98868"/><path d="m512 340.207031c0-14.792969-10.851562-26.785156-24.238281-26.785156-13.390625 0-24.242188 11.992187-24.242188 26.785156s10.851563 26.785157 24.242188 26.785157c13.386719 0 24.238281-11.992188 24.238281-26.785157zm0 0" fill="#d98868"/><path d="m360.566406 356.566406v-44.863281c0-31.617187 25.628906-57.246094 57.246094-57.246094h7.070312c31.613282 0 57.246094 25.628907 57.246094 57.246094v44.863281c0 33.5-27.160156 60.65625-60.660156 60.65625h-.242188c-33.503906 0-60.660156-27.15625-60.660156-60.65625zm0 0" fill="#ebad88"/><path d="m424.992188 254.457031h-7.289063c-4.050781 0-8 .425781-11.808594 1.230469 25.886719 5.464844 45.328125 28.511719 45.328125 56.125v44.636719c0 28.289062-19.257812 52.0625-45.328125 58.835937 4.859375 1.265625 9.957031 1.941406 15.214844 1.941406h.472656c33.4375 0 60.542969-27.210937 60.542969-60.777343v-44.636719c0-31.679688-25.578125-57.355469-57.132812-57.355469zm0 0" fill="#e8916f"/><path d="m485.316406 328.125c-1.691406 4.40625-7.324218 6.089844-11.105468 3.167969-10.117188-7.789063-12.941407-29.238281-13.34375-32.757813-.035157-.3125-.222657-.589844-.492188-.746094-13.839844-8.054687-18.855469-16.660156-20.449219-20.253906-.308593-.699218-1.242187-.789062-1.707031-.175781-11.390625 15.097656-49.5625 19.925781-55.550781 20.597656-.460938.050781-.828125.410157-.882813.871094-.507812 4.28125-3.433594 24.867187-13.300781 32.464844-3.78125 2.921875-9.414063 1.238281-11.105469-3.167969-5.203125-13.515625-2.050781-30.082031-2.050781-30.082031s1.882813-45.195313 42.59375-51.9375c43.183594-7.144531 50.6875 7.636719 50.6875 7.636719 40.523437 1.949218 38.75 44.300781 38.75 44.300781s3.152344 16.566406-2.042969 30.082031zm0 0" fill="#8c4a37"/><path d="m487.359375 298.042969s1.769531-42.351563-38.753906-44.300781c0 0-7-13.761719-46.308594-8.300782 6.253906 1.304688 10.105469 3.382813 12.390625 5.128906 2.621094 2.003907 5.75 3.261719 9.015625 3.796876 28.742187 4.710937 32.3125 32.128906 32.714844 40.945312 1.230469.824219 2.546875 1.652344 3.957031 2.476562.269531.15625.457031.433594.492188.746094.398437 3.523438 3.226562 24.96875 13.34375 32.753906 3.78125 2.925782 9.414062 1.238282 11.105468-3.164062 5.195313-13.515625 2.042969-30.082031 2.042969-30.082031zm0 0" fill="#804231"/><path d="m500.667969 500.488281v7.511719c0 2.210938-1.789063 4-4 4h-150.648438c-2.207031 0-4-1.789062-4-4v-7.511719c0-33.46875 23.464844-60.601562 52.410157-60.601562h53.828124c28.945313 0 52.410157 27.132812 52.410157 60.601562zm0 0" fill="#47d5e6"/><path d="m448.257812 439.886719h-31.097656c28.945313 0 52.410156 27.132812 52.410156 60.601562v11.511719h27.097657c2.210937 0 4-1.789062 4-4v-7.511719c0-33.46875-23.464844-60.601562-52.410157-60.601562zm0 0" fill="#22c0d4"/><path d="m322.960938 425.691406h-59.460938v-126.421875c0-4.144531-3.359375-7.5-7.5-7.5s-7.5 3.355469-7.5 7.5v126.421875h-59.460938c-4.144531 0-7.5 3.359375-7.5 7.5s3.355469 7.5 7.5 7.5h133.921876c4.144531 0 7.5-3.359375 7.5-7.5s-3.355469-7.5-7.5-7.5zm0 0" fill="#685c79"/></svg>