<svg id="Capa_1" enable-background="new 0 0 512 512" height="512" viewBox="0 0 512 512" width="512" xmlns="http://www.w3.org/2000/svg"><g><g><g><path d="m370.865 100.556v370.237c0 8.746-2.73 16.854-7.376 23.519 0 0-336.713-68.22-287.462-434.963h253.631c22.757 0 41.207 18.44 41.207 41.207z" fill="#b5e9f1"/><path d="m365.137 440.804-1.648 53.508c-7.438 10.693-19.821 17.688-33.831 17.688h-288.451c-22.756 0-41.207-18.451-41.207-41.207v-370.237c0-22.767 18.451-41.207 41.207-41.207h34.82c.721 186.669 123.478 343.936 289.11 381.455z" fill="#9be1ec"/></g><g><path d="m334.809 105.707v326.742c-172.494-21.097-272.032-156.221-257.102-337.044h246.801c5.686 0 10.301 4.605 10.301 10.302z" fill="#fff8e6"/><path d="m334.809 432.449v33.193c0 5.687-4.615 10.302-10.302 10.302h-278.149c-5.687 0-10.302-4.615-10.302-10.302v-359.935c0-5.697 4.615-10.302 10.302-10.302h31.348c14.196 159.256 117.441 291.634 257.103 337.044z" fill="#fff1cf"/></g><g><circle cx="185.433" cy="41.207" fill="#7d8298" r="7.726"/><path d="m235.052 41.207c-4.474 0-8.291-3.2-9.111-7.598-3.566-19.129-20.346-33.609-40.508-33.609s-36.942 14.48-40.508 33.609c-.82 4.398-4.637 7.598-9.111 7.598h-17.343c-11.379 0-20.604 9.225-20.604 20.604v29.064c0 11.379 9.225 20.604 20.604 20.604h133.924c11.379 0 20.604-9.225 20.604-20.604v-29.064c0-11.379-9.225-20.604-20.604-20.604z" fill="#ffce71"/><g fill="#fce3a0"><path d="m239.122 88.299h-108.169c-4.267 0-7.726-3.459-7.726-7.726 0-4.268 3.459-7.726 7.726-7.726h108.169c4.267 0 7.726 3.459 7.726 7.726.001 4.267-3.459 7.726-7.726 7.726z"/><circle cx="185.433" cy="41.207" r="7.726"/></g></g><g><path d="m169.98 218.398v82.414c0 4.739-3.204 8.736-7.572 9.931-36.51-25.085-57.532-59.131-58.483-102.647h55.753c5.687.001 10.302 4.616 10.302 10.302z" fill="#ff6e80"/><path d="m162.408 310.744c-.865.247-1.782.371-2.73.371h-82.414c-5.687 0-10.302-4.615-10.302-10.302v-82.414c0-5.687 4.615-10.302 10.302-10.302h26.661c14.546 37.488 34.356 72.071 58.483 102.647z" fill="#fd5c6f"/><path d="m144.534 250.355-13.753 13.753c-6.728-2.792-10.293-7.052-7.768-14.083l10.601-10.601c3.018-3.018 7.901-3.018 10.92 0 3.019 3.019 3.019 7.912 0 10.931z" fill="#fff8e6"/><path d="m130.781 264.108-15.679 15.679c-1.504 1.504-3.482 2.267-5.46 2.267s-3.956-.762-5.46-2.267l-11.775-11.775c-3.018-3.018-3.018-7.912 0-10.93s7.901-3.018 10.92 0l6.315 6.315 13.372-13.372c2.493 4.759 5.089 9.457 7.767 14.083z" fill="#fff1cf"/></g><g><path d="m159.98 445.038h-83.018c-5.523 0-10-4.477-10-10v-83.018c0-5.523 4.477-10 10-10h83.018c5.523 0 10 4.477 10 10v83.018c0 5.523-4.477 10-10 10z" fill="#73da8c"/><path d="m144.538 373.349c-3.017-3.017-7.909-3.017-10.927 0l-23.97 23.97-6.31-6.31c-3.017-3.017-7.909-3.017-10.927 0s-3.018 7.909 0 10.927l11.774 11.774c1.509 1.509 3.486 2.263 5.463 2.263s3.955-.755 5.463-2.263l29.434-29.434c3.017-3.017 3.017-7.91 0-10.927z" fill="#fff1cf"/></g><g fill="#858586"><path d="m248.722 383.227h-47.763c-4.267 0-7.726-3.459-7.726-7.726s3.459-7.726 7.726-7.726h47.763c4.267 0 7.726 3.459 7.726 7.726s-3.459 7.726-7.726 7.726z"/><path d="m283.3 419.284h-82.341c-4.267 0-7.726-3.459-7.726-7.726s3.459-7.726 7.726-7.726h82.341c4.267 0 7.726 3.459 7.726 7.726s-3.459 7.726-7.726 7.726z"/></g><g fill="#666667"><path d="m121.099 167.623c-4.267 0-7.726-3.459-7.726-7.726v-12.362c0-4.267 3.459-7.726 7.726-7.726s7.726 3.459 7.726 7.726v12.362c0 4.266-3.459 7.726-7.726 7.726z"/><path d="m249.766 167.623c-4.267 0-7.726-3.459-7.726-7.726v-12.362c0-4.267 3.459-7.726 7.726-7.726s7.726 3.459 7.726 7.726v12.362c0 4.266-3.459 7.726-7.726 7.726z"/><path d="m185.433 174.982c-8.733 0-17.039-3.782-22.786-10.377-2.803-3.217-2.468-8.098.748-10.901 3.217-2.803 8.098-2.469 10.901.748 2.811 3.226 6.871 5.077 11.136 5.077s8.325-1.851 11.136-5.077c2.804-3.217 7.684-3.551 10.901-.748 3.217 2.804 3.552 7.684.748 10.901-5.746 6.595-14.051 10.377-22.784 10.377z"/></g><g fill="#919191"><path d="m248.722 249.304h-47.763c-4.267 0-7.726-3.459-7.726-7.726s3.459-7.726 7.726-7.726h47.763c4.267 0 7.726 3.459 7.726 7.726s-3.459 7.726-7.726 7.726z"/><path d="m283.3 285.36h-82.341c-4.267 0-7.726-3.459-7.726-7.726s3.459-7.726 7.726-7.726h82.341c4.267 0 7.726 3.459 7.726 7.726s-3.459 7.726-7.726 7.726z"/></g></g><g><path d="m390.991 322.25s12.04-37.001-10.076-63.357c-15.783-18.81-39.927-21.429-52.459-21.387-4.95.017-9.187 3.572-10.063 8.444-2.218 12.334-3.831 36.566 11.953 55.376 22.116 26.355 60.645 20.924 60.645 20.924z" fill="#8ce09f"/><path d="m391.127 360.474c-4.146 0-7.575-3.289-7.717-7.465-1.196-35.299 7.951-65.484 27.965-92.281 2.552-3.419 7.396-4.12 10.813-1.567 3.419 2.553 4.121 7.395 1.567 10.813-17.828 23.871-25.974 50.861-24.902 82.511.144 4.265-3.196 7.839-7.46 7.983-.089.005-.178.006-.266.006z" fill="#919191"/><path d="m512 396.97c0 27.083-11.62 56.629-30.37 79.015-120.054-4.986-155.742-92.899-124.374-172.617 9.849.124 20.707 1.916 32.605 5.687 4.059 1.288 8.427 1.288 12.486 0 75.739-24.014 109.653 32.265 109.653 87.915z" fill="#ff8a98"/><path d="m481.63 475.985c-16.483 19.687-38.488 33.831-62.944 35.891-4.605.381-10.693-.103-16.256-1.792-4.121-1.247-8.53-1.247-12.651 0-5.563 1.689-11.651 2.174-16.256 1.792-52.302-4.42-93.314-64.026-93.314-114.906 0-46.914 24.096-94.272 77.047-93.602-5.604 61.131 30.937 148.428 124.374 172.617z" fill="#ff6e80"/></g></g></svg>