<svg clip-rule="evenodd" fill-rule="evenodd" height="512" image-rendering="optimizeQuality" shape-rendering="geometricPrecision" text-rendering="geometricPrecision" viewBox="0 0 512 512" width="512" xmlns="http://www.w3.org/2000/svg"><g id="Layer_x0020_1"><g id="_568511256" fill="#7ed63f"><path d="m430 270c-1 0-2 0-4 0-3-2-4-7-2-10l31-54c2-3 6-4 9-2 4 2 5 6 3 9l-31 54c-1 2-4 3-6 3z"/><path d="m430 270c-4 0-7-3-7-7l1-65c0-4 3-7 7-7 4 0 7 3 7 7l-1 66c0 3-3 6-7 6z"/><path d="m430 270c-2 0-5-1-6-3-2-3-1-8 2-10l56-33c4-2 8-1 10 2s1 8-2 10l-56 33c-2 1-3 1-4 1z"/></g><path d="m385 384h-37c-2 0-4-1-5-3-2-2-2-4-1-7l30-91c7-21 21-32 38-32 8 0 16 2 23 6 13 7 20 18 22 29 2 12-2 24-11 35l-53 60c-2 2-4 3-6 3z" fill="#ff4755"/><path d="m363 370v-279c0-10-8-18-18-18h-58v14 19c0 4-3 7-7 7h-197c-4 0-7-3-7-7v-19-14h-58c-10 0-18 8-18 18v394c0 10 8 18 18 18h284c-21 0-40-5-57-14-41-21-69-64-69-112 0-4 3-7 7-7zm-55-190c4 0 7 3 7 7 0 3-3 7-7 7h-139c-4 0-7-4-7-7 0-4 3-7 7-7zm-171 196v84c0 4-3 7-7 7h-84c-4 0-7-3-7-7v-84c0-4 3-7 7-7h84c4 0 7 3 7 7zm0-117v84c0 4-3 7-7 7h-84c-4 0-7-3-7-7v-84c0-4 3-7 7-7h84c4 0 7 3 7 7zm0-117v84c0 4-3 7-7 7h-84c-4 0-7-3-7-7v-84c0-4 3-7 7-7h84c4 0 7 3 7 7zm178 17c0 4-3 7-7 7h-139c-4 0-7-3-7-7 0-3 3-7 7-7h139c4 0 7 4 7 7z" fill="#e8834d"/><path d="m90 81c0 3-3 6-7 6h-65c-2 0-4 2-4 4v394c0 2 2 4 4 4h284 2c17-90 45-33 45-119v-279c0-2-2-4-4-4h-65c-4 0-7-3-7-6z" fill="#f4e9d3"/><g id="_568510056" fill="#b2aa9a"><path d="m308 166h-139c-4 0-7-3-7-7 0-3 3-7 7-7h139c4 0 7 4 7 7 0 4-3 7-7 7z"/><path d="m308 194h-139c-4 0-7-4-7-7 0-4 3-7 7-7h139c4 0 7 3 7 7 0 3-3 7-7 7z"/></g><g fill="#ff4755"><path d="m130 233h-84c-4 0-7-3-7-7v-84c0-4 3-7 7-7h84c4 0 7 3 7 7v84c0 4-3 7-7 7z"/><path d="m130 350h-84c-4 0-7-3-7-7v-84c0-4 3-7 7-7h84c4 0 7 3 7 7v84c0 4-3 7-7 7z"/><path d="m130 467h-84c-4 0-7-3-7-7v-84c0-4 3-7 7-7h84c4 0 7 3 7 7v84c0 4-3 7-7 7z"/></g><g id="_387692568"><path d="m75 204c-2 0-4-1-5-2-3-3-3-7 0-10l26-26c3-3 7-3 10 0 3 2 3 7 0 10l-26 26c-2 1-3 2-5 2z" fill="#7ed63f"/></g><g id="_387692640"><path d="m101 204c-2 0-3-1-5-2l-26-26c-3-3-3-8 0-10 3-3 7-3 10 0l26 26c3 3 3 7 0 10-1 1-3 2-5 2z" fill="#7ed63f"/></g><g id="_387692736"><path d="m75 321c-2 0-4-1-5-2-3-3-3-7 0-10l26-26c3-3 7-3 10 0 3 2 3 7 0 10l-26 26c-2 1-3 2-5 2z" fill="#7ed63f"/></g><g id="_387692808"><path d="m101 321c-2 0-3-1-5-2l-26-26c-3-3-3-8 0-10 3-3 7-3 10 0l26 26c3 3 3 7 0 10-1 1-3 2-5 2z" fill="#7ed63f"/></g><path d="m79 439c-2 0-4 0-5-2l-11-11c-3-3-3-7 0-10 2-3 7-3 9 0l7 7 24-25c3-3 8-3 10 0 3 3 3 7 0 10l-29 29c-1 2-3 2-5 2z" fill="#7ed63f"/><path d="m280 113h-197c-4 0-7-3-7-7v-51c0-4 3-7 7-7h68c0-2 0-5 0-8 0-17 13-31 31-31 17 0 31 14 31 31 0 3-1 6-1 8h68c4 0 7 3 7 7v51c0 4-3 7-7 7z" fill="#7ed63f"/><path d="m190 384c4 58 53 105 112 105h84c59 0 108-47 112-105z"/><path d="m386 503h-84c-69 0-126-57-126-126 0-4 3-7 7-7h322c2 0 3 0 5 2 1 1 2 3 2 5 0 69-57 126-126 126z" fill="#814913"/><path d="m302 468c-26 0-51-12-69-32-2-3-2-7 1-10 3-2 7-2 10 1 15 17 36 27 58 27 4 0 7 3 7 7s-3 7-7 7z" fill="#5e350e"/><path d="m181 411c-1-4-2-9-3-14h332c-1 5-2 10-3 14z" fill="#7ed63f"/><path d="m212 242c-4 0-7-3-7-7l2-23c0-4 3-7 7-7 4 1 7 4 7 8l-2 23c0 4-3 6-7 6z" fill="#814913"/><path d="m368 295 4-12s1-1 1-2l18 11c4 2 5 6 3 10-2 2-4 3-6 3-1 0-3 0-4-1z" fill="#ba343e"/><path d="m419 349-10 11-20-11c-3-2-4-7-2-10s6-4 9-3z" fill="#ba343e"/><path d="m330 288c-16 0-30-13-30-29s14-29 30-29 29 13 29 29-13 29-29 29z" fill="#ff4755"/><path d="m473 367c-15 0-27-12-27-27 0-14 12-27 27-27 14 0 26 13 26 27 0 15-12 27-26 27z" fill="#ff4755"/><path d="m291 360c-41 0-84-40-96-76-7-23-3-42 13-54 2-1 4-2 6-1 2 0 4 2 5 4 15 35 39 60 72 75 24 11 45 11 48 11 2 0 5 1 6 4 1 2 1 5 0 7-14 20-33 30-54 30z" fill="#f5c525"/></g></svg>