<svg viewBox="0 0 64 64" xmlns="http://www.w3.org/2000/svg"><g id="flat"><g id="_10-Letter" data-name="10-Letter"><rect fill="#b0bec5" height="54" rx="4" width="40" x="3" y="7"/><path d="m5 59v-46a4 4 0 0 1 4-4h32a3.9718 3.9718 0 0 1 1.64.36 3.9944 3.9944 0 0 0 -3.64-2.36h-32a4 4 0 0 0 -4 4v46a3.9944 3.9944 0 0 0 2.36 3.64 3.9718 3.9718 0 0 1 -.36-1.64z" fill="#78909c"/><rect fill="#f5f5f5" height="46" rx="2" width="32" x="7" y="11"/><path d="m37 11h-2a2 2 0 0 1 2 2v42a2 2 0 0 1 -2 2h2a2 2 0 0 0 2-2v-42a2 2 0 0 0 -2-2z" fill="#eee"/><g fill="#44b3e6"><path d="m13 33a.9984.9984 0 0 1 -.707-.293l-2-2a1 1 0 0 1 1.414-1.414l1.1846 1.1845 2.3084-3.0775a1 1 0 0 1 1.6 1.2l-3 4a.9985.9985 0 0 1 -.7285.3975c-.0246.0015-.0481.0025-.0715.0025z"/><path d="m13 25a.9984.9984 0 0 1 -.707-.293l-2-2a1 1 0 0 1 1.414-1.414l1.1846 1.1845 2.3084-3.0775a1 1 0 0 1 1.6 1.2l-3 4a.9985.9985 0 0 1 -.7285.3975c-.0246.0015-.0481.0025-.0715.0025z"/><path d="m35 34h-15a1 1 0 0 1 0-2h15a1 1 0 0 1 0 2z"/><path d="m13 41a.9984.9984 0 0 1 -.707-.293l-2-2a1 1 0 0 1 1.414-1.414l1.1846 1.1845 2.3084-3.0775a1 1 0 0 1 1.6 1.2l-3 4a.9985.9985 0 0 1 -.7285.3975c-.0246.0015-.0481.0025-.0715.0025z"/><path d="m35 40h-15a1 1 0 0 1 0-2h15a1 1 0 0 1 0 2z"/><path d="m35 28h-15a1 1 0 0 1 0-2h15a1 1 0 0 1 0 2z"/><path d="m35 22h-15a1 1 0 0 1 0-2h15a1 1 0 0 1 0 2z"/></g><path d="m31 50h16v4h-16z" fill="#bdbdbd"/><path d="m31 52h16v2h-16z" fill="#9e9d9e"/><rect fill="#ffcb29" height="18" rx="3" width="6" x="25" y="43"/><path d="m28 59a3 3 0 0 1 -3-3v2a3 3 0 0 0 6 0v-2a3 3 0 0 1 -3 3z" fill="#fcb316"/><path d="m23 46h2a0 0 0 0 1 0 0v12a0 0 0 0 1 0 0h-2a2 2 0 0 1 -2-2v-8a2 2 0 0 1 2-2z" fill="#44b3e6"/><path d="m21 54v2a2 2 0 0 0 2 2h2v-2h-2a2 2 0 0 1 -2-2z" fill="#2d98d4"/><path d="m19 50h2a0 0 0 0 1 0 0v4a0 0 0 0 1 0 0h-2a2 2 0 0 1 -2-2 2 2 0 0 1 2-2z" fill="#bdbdbd"/><path d="m17.2774 51a1.98 1.98 0 0 0 -.2774 1 2 2 0 0 0 2 2h2v-2h-2a1.9914 1.9914 0 0 1 -1.7226-1z" fill="#9e9d9e"/><rect fill="#ffcb29" height="18" rx="3" transform="matrix(-1 0 0 -1 100 104)" width="6" x="47" y="43"/><path d="m50 59a3 3 0 0 1 -3-3v2a3 3 0 0 0 6 0v-2a3 3 0 0 1 -3 3z" fill="#fcb316"/><path d="m55 46h2a0 0 0 0 1 0 0v12a0 0 0 0 1 0 0h-2a2 2 0 0 1 -2-2v-8a2 2 0 0 1 2-2z" fill="#44b3e6" transform="matrix(-1 0 0 -1 110 104)"/><path d="m55 56h-2v2h2a2 2 0 0 0 2-2v-2a2 2 0 0 1 -2 2z" fill="#2d98d4"/><path d="m59 50h2a0 0 0 0 1 0 0v4a0 0 0 0 1 0 0h-2a2 2 0 0 1 -2-2 2 2 0 0 1 2-2z" fill="#bdbdbd" transform="matrix(-1 0 0 -1 118 104)"/><path d="m59 52h-2v2h2a2 2 0 0 0 2-2 1.98 1.98 0 0 0 -.2774-1 1.9914 1.9914 0 0 1 -1.7226 1z" fill="#9e9d9e"/><path d="m35 10.06a3.06 3.06 0 0 1 -3.06 3.06h-17.88a3.06 3.06 0 0 1 -3.06-3.06 3.06 3.06 0 0 1 3.06-3.06h1.94a3.9946 3.9946 0 0 1 4-4h7a3.9989 3.9989 0 0 1 4 4h.94a3.06 3.06 0 0 1 3.06 3.06z" fill="#ffcb29"/><path d="m14.06 10h1.94a3.9946 3.9946 0 0 1 4-4h7a3.9989 3.9989 0 0 1 4 4h.94a3.0466 3.0466 0 0 1 2.6516 1.56 3.028 3.028 0 0 0 .4084-1.5 3.06 3.06 0 0 0 -3.06-3.06h-.94a3.9989 3.9989 0 0 0 -4-4h-7a3.9946 3.9946 0 0 0 -4 4h-1.94a3.06 3.06 0 0 0 -3.06 3.06 3.028 3.028 0 0 0 .4081 1.5 3.0466 3.0466 0 0 1 2.6519-1.56z" fill="#fcb316"/></g></g></svg>