<svg id="Layer_1" enable-background="new 0 0 66 66" viewBox="0 0 66 66" xmlns="http://www.w3.org/2000/svg"><g><path d="m1 39.6h64v7.9h-64z" fill="#fbd32d"/><path d="m1 44.3h64v3.2h-64z" fill="#e1b724"/><g><path d="m56.4 39.8c.1 1.5.3 4.3.4 7.8.1 5.3 1.4 8 1.4 8s2.7 6.4 3 9.4h3.4c-.3-3.8-.1-12.8-.6-14.8-.7-2.4-1.8-4.5-1.2-7.8s-.3-7.4-.9-9.5-2.1-3.4-3.8-4.1-4-.8-4.1-.9l2.4 10.7c-.1 0-.1.4 0 1.2z" fill="#d6b8a0"/><path d="m58.1 55.6s2.7 6.4 3 9.4h.6c0-.1 0-.3 0-.4 0-.6-.1-1.1-.2-1.7-.3-1.4-.7-2.8-1.2-4.2-.3-.9-.6-1.8-.9-2.7-.2-.6-.4-1.2-.5-1.9-.1-.5-.1-1-.2-1.6-.2-1.3-.7-2.6-.9-3.9-.3-1.9.1-3.8-.3-5.7-.1-.5-.3-1-.4-1.5-.1-.6.3-2-.5-1.9-.2 0-.3.1-.4.2.1 1.5.3 4.3.4 7.8.3 5.4 1.5 8.1 1.5 8.1z" fill="#c7a38b"/><g><path d="m40.6 27.2-1.7 12.8-.8-2.7c-.2-.5-.5-.8-.9-1.1-2-1.6-5.7.1-7 .6-1.7.8-18.6 3.3-18-2.2.7-5.6 7.6-18.9 8.6-20s6.9-5 7.9-5c.9 0 3.4 3.2 3.2 3.9-.1.8-1.4 1.8-1.4 1.8s.7 1.1 0 1.3-1.7 0-1.7 0c-3.1.7-4.3 0-4.3 0s0 0-.2.1c-.1.1-.4.5-.7 1.1-.7 1.3-1.7 6.8-2.6 9.8s-.3 3-.3 3c.4-.2 1-.2 1.5-.4 2.9-1.5 12.9-3.2 14.9-2.5 3.2 1 3.5-.5 3.5-.5z" fill="#d6b8a0"/><g fill="#c7a38b"><path d="m37.2 36.2c-2-1.6-3-.1-4.3.4-1.3.6-19 3.3-20.6-.9.6.2 3.4 1.3 4 1.4.7.1 4.2-1.8 8.4-2s8.1-2.4 10.2-1.9c2.2.5 2.3 3 2.3 3z"/><path d="m21.1 27.7c-.9 3-.3 3-.3 3 .4-.2 1-.3 1.5-.4-3.3 4.6-5.4 4.7-5.4 4.7s.3-1.6 0-2.3c-.2-.7.6-2.2.9-3.9s1.1-2.7 2.3-5.3c1.1-2.6 2.1-6.3 2.9-6.8.7-.5 1.4 0 1.4 0-.1.1-.4.5-.7 1.1-.6 1.3-1.6 6.9-2.6 9.9z"/></g></g><g><path d="m42.1 22.1h6.1v7.5h-6.1z" fill="#c7a38b"/><path d="m42.1 22.1h3v7.5h-3z" fill="#d6b8a0"/><g><g><ellipse cx="52.6" cy="14.3" fill="#d6b8a0" rx="2.4" ry="1.2" transform="matrix(.225 -.975 .975 .225 26.848 62.285)"/><ellipse cx="37.1" cy="14.3" fill="#c7a38b" rx="2.4" ry="1.2" transform="matrix(-.225 -.975 .975 -.225 31.465 53.583)"/></g><ellipse cx="44.8" cy="13.7" fill="#c7a38b" rx="7.3" ry="9.8"/><path d="m53.1 9.7c0-2.4-1.7-9.5-9-8.6-2.6.3-5 1.7-6.3 4-.3.4-.5.9-.6 1.4-.5 1.9-.4 5.8-.3 7.4 0 .2.2.4.4.4s.4-.2.4-.4c0-1.4.3-5 2.1-6.5.5-.4.9-.9 1.3-1.4l.1-.1s1.8-.3 5.4 1.5c2.9 1.5 4.7 2.6 5.4 5 .1.3.2 1.2.3 1.6 0 .2.2.3.3.3.2 0 .3-.1.3-.3 0-1.1.2-2.6.2-4.3z" fill="#475d6b"/></g><g><g><ellipse cx="52.6" cy="14.3" fill="#d6b8a0" rx="2.4" ry="1.2" transform="matrix(.225 -.975 .975 .225 26.848 62.285)"/></g><path d="m47.8 4.7c-1.2-.7-2.6.2-2.6 1.5v17.3c3.9-.2 7-4.5 7-9.8-.1-4-1.8-7.4-4.4-9z" fill="#d6b8a0"/><path d="m53.1 9.7c-.1-2.3-1.6-8.7-8-8.7v5.7c.4.2.8.3 1.2.6 2.9 1.5 4.7 2.6 5.4 5 .1.3.2 1.2.3 1.6 0 .2.2.3.3.3.2 0 .3-.1.3-.3.3-1 .5-2.5.5-4.2z" fill="#3c4d56"/></g></g><path d="m34.6 46.2c0 .4.1.8.1 1.1.1.5.1.9.2 1.2.5 2.2 1 2.3.8 5-.2 3.5-1.8 5.6-2.5 10.2l-.1 1.3h24.4l-.2-1.3c-.6-4.6-2.3-6.7-2.5-10.2-.2-2.8.4-2.8.8-5 .1-.3.1-.7.2-1.2 0-.3.1-.7.1-1.1.2-1.7.7-3.9 1.1-6.2.8-4 1.6-8.2.4-9.8-.8-1-2.4-1.9-4.1-2.5-.8-.3-1.7-.6-2.4-.8-1.4-.4-3.9-.6-3.9-.6h-3.5s-2.5.2-3.9.6c-.7.2-1.6.5-2.4.8-1.7.6-2.2 3.3-3 4.3-1.2 1.6-1.6 4-.8 8 .6 2.3 1 4.5 1.2 6.2z" fill="#c7a38b"/><path d="m54.9 53.5c-.2-2.8.4-2.8.8-5 .1-.3.1-.7.2-1.2 0-.3.1-.7.1-1.1.2-1.7.7-3.9 1.1-6.2.8-4 1.6-8.2.4-9.8-.8-1-2.4-1.9-4.1-2.5-.8-.3-1.7-.6-2.4-.8-1.4-.4-3.9-.6-3.9-.6h-2v38.7h12.5l-.2-1.3c-.7-4.6-2.3-6.7-2.5-10.2z" fill="#d6b8a0"/><path d="m57.2 40c0-.2-1-5.1-2.1-7.1-.7-1.4-1.3-3.7-1.6-5.2-.8-.3-1.7-.6-2.4-.8.3 1.6.7 4.9.3 6.9-.5 2.7-3.5 2.9-6 2.9-2.5.1-5.5-.1-6-2.9-.4-2 .1-5.3.3-6.9-.7.2-1.6.5-2.4.8-.3 1.5-.9 3.8-1.6 5.2-1.1 2.1-2.1 6.9-2.1 7.1l1.2 7.2.2 1.2h10.4 10.4l.2-1.2z" fill="#e9674a"/><path d="m57.2 40c0-.2-1-5.1-2.1-7.1-.7-1.4-1.3-3.7-1.6-5.2-.8-.3-1.7-.6-2.4-.8.3 1.6.7 4.9.3 6.9-.5 2.7-3.5 2.9-6 2.9v11.8h10.4l.2-1.2z" fill="#da5339"/><g><circle cx="28.1" cy="11.9" fill="#475d6b" r="6.2"/><path d="m28.1 5.7v12.4c3.4 0 6.2-2.8 6.2-6.2s-2.8-6.2-6.2-6.2z" fill="#3c4d56"/><circle cx="28.1" cy="11.9" fill="#e7e7e9" r="3.4"/><path d="m28.1 8.5v6.8c1.8 0 3.3-1.5 3.3-3.4.1-1.9-1.4-3.4-3.3-3.4z" fill="#fff"/><circle cx="28.1" cy="11.9" fill="#3c4d56" r="1.5"/><path d="m28.1 10.4v3c.8 0 1.5-.7 1.5-1.5s-.7-1.5-1.5-1.5z" fill="#475d6b"/></g></g><g><g><path d="m1 55.6h41.5v3.2h-41.5z" fill="#e7e7e9"/><path d="m1 57.2h41.5v1.6h-41.5z" fill="#d5d9dc"/></g><g><g><g><path d="m12.8 49.4h-4.5c-.4 0-.7.3-.7.7v14.2c0 .4.3.7.7.7h4.5c.4 0 .7-.3.7-.7v-14.2c0-.4-.3-.7-.7-.7z" fill="#3c4d56"/><path d="m7.6 57.2v7.1c0 .4.3.7.7.7h4.5c.4 0 .7-.3.7-.7v-7.1z" fill="#475d6b"/></g><g><path d="m6.8 52.8h-3.5c-.3 0-.5.2-.5.5v7.8c0 .3.2.5.5.5h3.5c.3 0 .5-.2.5-.5v-7.8c0-.3-.2-.5-.5-.5z" fill="#475d6b"/><path d="m2.8 57.2v3.9c0 .3.2.5.5.5h3.5c.3 0 .5-.2.5-.5v-3.9z" fill="#3c4d56"/></g></g><g><g><path d="m30.7 49.4h4.5c.4 0 .7.3.7.7v14.2c0 .4-.3.7-.7.7h-4.5c-.4 0-.7-.3-.7-.7v-14.2c-.1-.4.3-.7.7-.7z" fill="#3c4d56"/><path d="m35.8 57.2v7.1c0 .4-.3.7-.7.7h-4.5c-.4 0-.7-.3-.7-.7v-7.1z" fill="#475d6b"/></g><g><path d="m36.7 52.8h3.5c.3 0 .5.2.5.5v7.8c0 .3-.2.5-.5.5h-3.5c-.3 0-.5-.2-.5-.5v-7.8c-.1-.3.2-.5.5-.5z" fill="#475d6b"/><path d="m40.7 57.2v3.9c0 .3-.2.5-.5.5h-3.5c-.3 0-.5-.2-.5-.5v-3.9z" fill="#3c4d56"/></g></g></g></g><g fill="#475d6b"><g><path d="m2.8 41h1.1v2.3h-1.1z"/><path d="m5.4 41h1.1v1.1h-1.1z"/></g><g><path d="m8.1 41h1.1v2.3h-1.1z"/><path d="m10.7 41h1.1v1.1h-1.1z"/></g><g><path d="m13.4 41h1.1v2.3h-1.1z"/><path d="m16 41h1.1v1.1h-1.1z"/></g><g><path d="m18.7 41h1.1v2.3h-1.1z"/><path d="m21.3 41h1.1v1.1h-1.1z"/></g><g><path d="m24 41h1.1v2.3h-1.1z"/><path d="m26.6 41h1.1v1.1h-1.1z"/></g><g><path d="m29.2 41h1.1v2.3h-1.1z"/><path d="m31.9 41h1.1v1.1h-1.1z"/></g></g></g></svg>