<svg clip-rule="evenodd" fill-rule="evenodd" stroke-linejoin="round" stroke-miterlimit="2" viewBox="0 0 96 96" xmlns="http://www.w3.org/2000/svg"><g><path d="m94 12.259c0-.796-.316-1.559-.879-2.121-.562-.563-1.325-.879-2.121-.879-8.435 0-32.293 0-40.728 0-.796 0-1.559.316-2.122.879-.562.562-.878 1.325-.878 2.121v60.35c0 .796.316 1.559.878 2.121.563.563 1.326.879 2.122.879h40.728c.796 0 1.559-.316 2.121-.879.563-.562.879-1.325.879-2.121 0-11.036 0-49.314 0-60.35z" fill="#ebebeb"/><g fill="#b3baed"><path d="m56.41 26.472v11.483c0 .828.672 1.5 1.5 1.5s1.5-.672 1.5-1.5v-11.483c0-.828-.672-1.5-1.5-1.5s-1.5.672-1.5 1.5z"/><path d="m81.862 26.472v11.483c0 .828.672 1.5 1.5 1.5s1.5-.672 1.5-1.5v-11.483c0-.828-.672-1.5-1.5-1.5s-1.5.672-1.5 1.5z"/><path d="m63.518 45.505v5.07c0 .827.672 1.5 1.5 1.5.827 0 1.5-.673 1.5-1.5v-5.07c0-.828-.673-1.5-1.5-1.5-.828 0-1.5.672-1.5 1.5z"/><path d="m74.754 45.505v5.07c0 .827.672 1.5 1.5 1.5s1.5-.673 1.5-1.5v-5.07c0-.828-.672-1.5-1.5-1.5s-1.5.672-1.5 1.5z"/><path d="m54.329 33.714h32.614c.828 0 1.5-.673 1.5-1.5 0-.828-.672-1.5-1.5-1.5h-32.614c-.828 0-1.5.672-1.5 1.5 0 .827.672 1.5 1.5 1.5z"/><path d="m63.436 49.54h14.399c.828 0 1.5-.673 1.5-1.5 0-.828-.672-1.5-1.5-1.5h-14.399c-.827 0-1.5.672-1.5 1.5 0 .827.673 1.5 1.5 1.5z"/><path d="m82.411 6.375c0-1.656-1.343-3-3-3-4.52 0-13.03 0-17.551 0-1.657 0-3 1.344-3 3v4.798c0 1.657 1.343 3 3 3h17.551c1.657 0 3-1.343 3-3 0-1.496 0-3.301 0-4.798z"/></g><path d="m17.422 74.813c.225-.394.687-.587 1.125-.47.439.116.744.513.744.966v17.316h19.691v-21.07c0-.405.244-.77.618-.924.374-.155.805-.069 1.09.218 2.305 2.312 6.127 6.146 6.127 6.146 1.934 1.94 5.017 2.116 7.158.408l14.644-11.68c2.319-1.849 2.7-5.234.85-7.554-1.85-2.319-5.234-2.7-7.554-.85 0 0-7.777 6.203-10.181 8.121-.399.318-.972.285-1.332-.076-2.361-2.369-10.531-10.565-10.531-10.565-1.009-1.012-2.378-1.58-3.807-1.58h-15.565c-1.928 0-3.71 1.033-4.667 2.708l-13.124 22.968c-1.472 2.576-.575 5.862 2 7.334 2.576 1.471 5.862.575 7.334-2.001 0 0 3.233-5.657 5.38-9.415z" fill="#ff6455"/><circle cx="28.557" cy="38.121" fill="#fac7a5" r="8.793"/><path d="m20.054 37.37h16.95c.828 0 1.5-.672 1.5-1.5 0-.827-.672-1.5-1.5-1.5h-16.95c-.828 0-1.5.673-1.5 1.5 0 .828.672 1.5 1.5 1.5z" fill="#ff6455"/><path d="m28.966 66.512-4.812-12.905c-.289-.776-1.153-1.171-1.929-.882s-1.171 1.154-.882 1.93c0 0 3.544 9.504 5.281 14.161.364.978 1.298 1.627 2.342 1.627s1.978-.649 2.343-1.627l5.62-15.073c.289-.776-.106-1.641-.881-1.93-.776-.289-1.641.106-1.93.881z" fill="#ebebeb"/></g></svg>