<svg height="512" viewBox="0 0 512 512" width="512" xmlns="http://www.w3.org/2000/svg"><g id="flat"><circle cx="448" cy="96" fill="#3e1d8a" r="24"/><path d="m488 96v103.05a37.322 37.322 0 0 1 -73.07 10.73l-14.93-49.78v72l22.21 88.83a60.031 60.031 0 0 1 1.79 14.56v136.61h-48v-136l-16-72h-12v61.72a60.094 60.094 0 0 1 -3.42 19.97l-44.58 126.31h-48l44-136 8-128-16-80-24 56v72l16 8-2.17 4.34a6.619 6.619 0 0 1 -5.92 3.66h-7.91v12a4 4 0 0 1 -4 4h-32a4 4 0 0 1 -4-4v-98.56a40.115 40.115 0 0 1 4.22-17.89l28.19-56.38 5.23-10.46a30.016 30.016 0 0 1 33.02-15.94l48.13 10.13 10.05-38.48 20.74 15.58-7.28 27.85 40.27 8.48a30.011 30.011 0 0 1 22.55 20.74l18.88 62.93v-96z" fill="#ef88ba"/><circle cx="40" cy="96" fill="#3e1d8a" r="24"/><path d="m72 96h-32v103.675a28.37 28.37 0 0 0 28.37 28.369 28.369 28.369 0 0 0 26.549-18.37l33.792-89.674h-12.9a29.96 29.96 0 0 0 -28.293 19.981l-15.518 44.019z" fill="#ffb3d0"/><path d="m176 472h40l-16-120v-95.475a70 70 0 0 0 -7.39-31.3l-8.61-17.225 10.681-28.483a20.718 20.718 0 0 0 1.319-7.274v-24.843l56 36.6-32.329 35.669-11.671-2.419-1.481 1.974a4.289 4.289 0 0 0 .449 5.656l4.251 4.12-7.3 8.051a4 4 0 0 0 .268 5.641l16.792 15.308a4 4 0 0 0 5.709-.325l50.921-58.351a25.921 25.921 0 0 0 6.391-17.044 25.921 25.921 0 0 0 -12.07-21.91l-56.581-35.77a29.953 29.953 0 0 0 -16.044-4.6h-68.936a18.371 18.371 0 0 0 -18.369 18.369v101.631l-22.668 105.785a59.961 59.961 0 0 0 -1.332 12.571v113.644h40v-120l20-72h8l4 68.018a60.064 60.064 0 0 0 .526 7.929z" fill="#ffb3d0"/><path d="m448 488h-72v-16h48l16.411 5.47a11.1 11.1 0 0 1 7.589 10.53z" fill="#52379a"/><path d="m320 488h-74.375l6.375-16h48l12.572 5.029a11.816 11.816 0 0 1 7.428 10.971z" fill="#52379a"/><path d="m418 304h-49.111l-8.889-40h-12v40h-50l5-80h97z" fill="#52379a"/><path d="m140 84h24v44h-24z" fill="#ffb3d0"/><path d="m126.333 120-14.106 15.143a30.776 30.776 0 0 0 -8.227 20.946 30.775 30.775 0 0 0 3.815 14.842l4.185 7.6v9.469h48.513a44.152 44.152 0 0 0 27.58-9.674l7.907-6.326v-12h-6.95a14.962 14.962 0 0 1 -14.212-10.285 14.96 14.96 0 0 1 1.846-13.1l11.316-16.615z" fill="#e162a1"/><path d="m112 240-10.3 48.048 42.855 4.338 3.445-12.386h8l.728 12.381 43.272-4.381v-31.475a70 70 0 0 0 -7.39-31.3l-.616-1.233-79.994.008z" fill="#e162a1"/><path d="m232 108-17.915-40.6a25.828 25.828 0 0 0 -23.631-15.4 25.828 25.828 0 0 0 -11.25 2.579l-11.204 5.421 5 16 16-8 8.7 18.321a37.969 37.969 0 0 0 34.3 21.679z" fill="#3e1d8a"/><path d="m68 488h60v-16h-40l-12.572 5.029a11.816 11.816 0 0 0 -7.428 10.971z" fill="#e162a1"/><path d="m88 100h-48a4 4 0 0 1 0-8h48a4 4 0 0 1 0 8z" fill="#8c6ece"/><circle cx="72" cy="96" fill="#6c4bb4" r="24"/><g fill="#e162a1"><path d="m156 488h63l-3-16h-40l-12.572 5.029a11.816 11.816 0 0 0 -7.428 10.971z"/><path d="m395 124h-16a4 4 0 0 1 -1.314-.222l-14.19-4.935a4 4 0 0 1 2.628-7.557l13.552 4.714h15.324a4 4 0 0 1 0 8z"/><path d="m346.125 116h-15.125a4 4 0 0 1 -1.84-.448l-15.444-8a4 4 0 0 1 3.68-7.1l14.579 7.548h14.15a4 4 0 0 1 0 8z"/><path d="m336.884 169.7a12.232 12.232 0 0 1 -1.645-.111l-8.183-1.106a4 4 0 0 1 1.072-7.928l8.182 1.106a4.254 4.254 0 0 0 4.765-3.632 4 4 0 0 1 7.925 1.071 12.257 12.257 0 0 1 -12.116 10.6z"/><path d="m372.518 174.147a3.964 3.964 0 0 1 -.541-.036l-8.9-1.2a11.525 11.525 0 0 1 -9.866-12.95l.1-.729a4 4 0 0 1 7.927 1.075l-.1.727a3.512 3.512 0 0 0 3.01 3.949l8.9 1.2a4 4 0 0 1 -.531 7.963z"/><path d="m334.01 188.91a12.489 12.489 0 0 1 -1.666-.112l-8.171-1.1a4 4 0 1 1 1.07-7.927l8.172 1.1a4.245 4.245 0 0 0 4.777-3.639 4 4 0 0 1 7.928 1.071 12.25 12.25 0 0 1 -12.11 10.608z"/><path d="m371.634 193.362a3.95 3.95 0 0 1 -.54-.036l-8.172-1.1a12.261 12.261 0 0 1 -10.5-13.776 4 4 0 0 1 7.928 1.071 4.251 4.251 0 0 0 3.64 4.777l8.171 1.1a4 4 0 0 1 -.531 7.964z"/><path d="m334.231 209.009a12.337 12.337 0 0 1 -1.666-.113l-8.172-1.1a4 4 0 0 1 1.071-7.928l8.173 1.1a4.245 4.245 0 0 0 4.776-3.639 4 4 0 1 1 7.928 1.07 12.25 12.25 0 0 1 -12.11 10.609z"/><path d="m371.855 213.461a4.142 4.142 0 0 1 -.541-.036l-8.171-1.105a12.261 12.261 0 0 1 -10.5-13.775 4 4 0 1 1 7.928 1.07 4.253 4.253 0 0 0 3.64 4.778l8.172 1.1a4 4 0 0 1 -.531 7.964z"/><path d="m431 174.148a3.98 3.98 0 0 1 -1.642-.354l-8.833-3.981a4 4 0 0 1 -2.105-2.249l-7.5-20.108a4 4 0 0 1 7.5-2.795l6.917 18.545 7.313 3.3a4 4 0 0 1 -1.65 7.642z"/><path d="m268.9 139.48a4.009 4.009 0 0 1 -5.52 1.23 32.156 32.156 0 0 1 -13.28-16.92l6.31-12.62v2.25a24.237 24.237 0 0 0 11.26 20.54 3.991 3.991 0 0 1 1.23 5.52z"/></g><path d="m468 100h-20a4 4 0 0 1 0-8h20a4 4 0 0 1 0 8z" fill="#8c6ece"/><circle cx="480" cy="96" fill="#6c4bb4" r="24"/><circle cx="480" cy="96" fill="#52379a" r="8"/><path d="m488 100h-8a4 4 0 0 1 0-8h8a4 4 0 0 1 0 8z" fill="#8c6ece"/><path d="m380.13 154.941a3.829 3.829 0 0 1 -.531-.035l-10.665-1.414-.112-.015a21.889 21.889 0 0 1 -16.522-12.569 22.18 22.18 0 0 1 -3.078 2.707 21.832 21.832 0 0 1 -16.636 3.91l-14.725-2.5a4 4 0 1 1 1.338-7.886l14.725 2.5a14 14 0 0 0 16.2-11.806 4 4 0 0 1 7.951.316l.286 4.5a13.932 13.932 0 0 0 11.689 12.924l10.606 1.407a4 4 0 0 1 -.521 7.964z" fill="#e162a1"/><path d="m358.591 64.264 13.809 12.242-3.75 14.359-.087-.039a19.687 19.687 0 0 1 -10.932-22.826z" fill="#e162a1"/><path d="m387.53 50.218-7.149 27.382a10 10 0 0 1 -12.2 7.149 22 22 0 0 1 -15.731-26.841l3.55-15.408z" fill="#ef88ba"/><path d="m136.238 144h6.517a10.37 10.37 0 0 0 8.353-4.225l14.581-19.775h-29.689l-5.364 16.259a5.9 5.9 0 0 0 5.602 7.741z" fill="#ffb3d0"/><circle cx="72" cy="96" fill="#52379a" r="8"/><path d="m80 100h-8a4 4 0 0 1 0-8h8a4 4 0 0 1 0 8z" fill="#8c6ece"/><path d="m140 88h16a0 0 0 0 1 0 0v8a16 16 0 0 1 -16 16 0 0 0 0 1 0 0v-24a0 0 0 0 1 0 0z" fill="#ef88ba"/><path d="m132 72v28a8 8 0 0 0 8 8 24 24 0 0 0 24-24v-12z" fill="#ffb3d0"/><path d="m152 52h7.188a17.545 17.545 0 0 1 14.074 7.069 33.6 33.6 0 0 1 6.649 20.066 33.6 33.6 0 0 1 -8.592 22.441l-7.319 8.157v-25.733l-1.43.572a13.54 13.54 0 0 1 -18.57-12.572h-12a20 20 0 0 1 20-20z" fill="#3e1d8a"/><circle cx="160.861" cy="84.116" fill="#ffb3d0" r="7.839"/><path d="m392 33.093-23.2-6.057a23.926 23.926 0 0 0 -21.006 4.479 23.93 23.93 0 0 0 -8.194 12.629l-1.745 6.686a23.933 23.933 0 0 0 1.883 17.008l6.719 13.034 6.5-24.9 1.239.915a13.54 13.54 0 0 0 21.143-7.474l11.611 3.031z" fill="#3e1d8a"/><circle cx="352.962" cy="56.878" fill="#ef88ba" r="7.839"/></g></svg>