<svg id="Layer_1" enable-background="new 0 0 512 512" viewBox="0 0 512 512" xmlns="http://www.w3.org/2000/svg"><g clip-rule="evenodd" fill-rule="evenodd"><g><path d="m350.342 465.263-186.877-3.676 46.319-94.203 90.56-3.806z" fill="#e0dfe1"/><path d="m129.751 451.156h252.499c9.181 0 16.694 7.512 16.694 16.694v.001c0 9.182-7.512 16.694-16.694 16.694h-252.499c-9.181 0-16.694-7.512-16.694-16.694v-.001c0-9.182 7.512-16.694 16.694-16.694z" fill="#c8c9cd"/><path d="m31.495 27.455h449.009c12.648 0 22.996 10.349 22.996 22.995v310.13c0 12.646-10.347 22.995-22.996 22.995h-449.009c-12.648 0-22.995-10.349-22.995-22.995v-310.129c0-12.647 10.347-22.996 22.995-22.996z" fill="#c8c9cd"/><path d="m42.806 57.762h426.388c2.201 0 4 1.8 4 4v287.508c0 2.2-1.799 4-4 4h-426.388c-2.2 0-4-1.8-4-4v-287.509c0-2.2 1.8-3.999 4-3.999z" fill="#c9f0ff"/></g><path d="m315.504 86.783c4.142 0 7.5 3.358 7.5 7.5s-3.358 7.5-7.5 7.5h-44.874c-4.142 0-7.5-3.358-7.5-7.5s3.358-7.5 7.5-7.5zm-160.592 164.958c4.142 0 7.5 3.358 7.5 7.5s-3.358 7.5-7.5 7.5h-44.874c-4.142 0-7.5-3.358-7.5-7.5s3.358-7.5 7.5-7.5zm-77.202 0c4.142 0 7.5 3.358 7.5 7.5s-3.358 7.5-7.5 7.5h-7.936c-4.142 0-7.5-3.358-7.5-7.5s3.358-7.5 7.5-7.5zm77.202 60.192c4.142 0 7.5 3.358 7.5 7.5s-3.358 7.5-7.5 7.5h-85.138c-4.142 0-7.5-3.358-7.5-7.5s3.358-7.5 7.5-7.5zm0-30.096c4.142 0 7.5 3.358 7.5 7.5s-3.358 7.5-7.5 7.5h-85.138c-4.142 0-7.5-3.358-7.5-7.5s3.358-7.5 7.5-7.5zm83.39-195.054c4.142 0 7.5 3.358 7.5 7.5s-3.358 7.5-7.5 7.5h-7.936c-4.142 0-7.5-3.358-7.5-7.5s3.358-7.5 7.5-7.5zm57.202 60.192c4.142 0 7.5 3.358 7.5 7.5s-3.358 7.5-7.5 7.5h-65.138c-4.142 0-7.5-3.358-7.5-7.5s3.358-7.5 7.5-7.5zm20-30.096c4.142 0 7.5 3.358 7.5 7.5s-3.358 7.5-7.5 7.5h-85.138c-4.142 0-7.5-3.358-7.5-7.5s3.358-7.5 7.5-7.5z" fill="#7a7785"/><g><ellipse cx="132.392" cy="153.43" fill="#2891fa" rx="63.619" ry="63.619" transform="matrix(.526 -.851 .851 .526 -67.726 185.386)"/><path d="m132.392 89.81v63.62h63.62c-.001-35.136-28.484-63.62-63.62-63.62z" fill="#6ce75a"/><path d="m196.011 153.43h-63.62l44.986 44.986c11.513-11.514 18.634-27.418 18.634-44.986z" fill="#ffd54f"/><path d="m132.392 125.225c15.577 0 28.205 12.628 28.205 28.205s-12.628 28.205-28.205 28.205-28.205-12.628-28.205-28.205c0-15.578 12.628-28.205 28.205-28.205z" fill="#fff"/></g><g><path d="m414.699 157.438h24.035c1.386 0 2.516 1.13 2.516 2.515v160.669c0 1.386-1.13 2.516-2.516 2.516h-24.035c-1.386 0-2.516-1.13-2.516-2.516v-160.668c.001-1.386 1.131-2.516 2.516-2.516z" fill="#43a2ff"/><path d="m358.782 186.15h24.034c1.385 0 2.515 1.13 2.515 2.516v131.957c0 1.386-1.13 2.516-2.515 2.516-8.012 0-16.023 0-24.034 0-1.386 0-2.516-1.13-2.516-2.516 0-43.986 0-87.971 0-131.957 0-1.386 1.13-2.516 2.516-2.516z" fill="#6ce75a"/><path d="m301.55 214.863h24.034c1.386 0 2.516 1.13 2.516 2.516v103.245c0 1.386-1.13 2.516-2.516 2.516-8.012 0-16.023 0-24.034 0-1.386 0-2.516-1.13-2.516-2.516 0-34.415 0-68.83 0-103.245 0-1.387 1.13-2.516 2.516-2.516z" fill="#ffd54f"/><path d="m244.975 243.574h24.034c1.386 0 2.516 1.13 2.516 2.516v74.533c0 1.386-1.13 2.516-2.516 2.516-8.012 0-16.023 0-24.034 0-1.386 0-2.516-1.13-2.516-2.516 0-24.844 0-49.688 0-74.533 0-1.385 1.131-2.516 2.516-2.516z" fill="#ff6372"/><path d="m188.4 272.287h24.035c1.386 0 2.515 1.13 2.515 2.516v45.82c0 1.386-1.13 2.516-2.515 2.516h-24.035c-1.386 0-2.516-1.13-2.516-2.516v-45.82c.001-1.386 1.131-2.516 2.516-2.516z" fill="#7a7785"/><path d="m380.704 116.32c-4.126-.065-7.418-3.462-7.354-7.588.065-4.126 3.462-7.418 7.588-7.354l25.635.482c4.126.065 7.418 3.462 7.354 7.588l-.482 25.635c-.065 4.126-3.462 7.418-7.588 7.354-4.126-.065-7.418-3.462-7.354-7.588l.15-7.963c-19.138 16.829-44.835 34.833-72.86 51.625-35.527 21.287-74.89 40.706-109.402 53.355-3.883 1.424-8.186-.57-9.609-4.453-1.424-3.883.57-8.186 4.453-9.61 33.722-12.36 72.179-31.33 106.882-52.124 26.885-16.109 51.463-33.265 69.755-49.225z" fill="#f1cb86"/></g></g></svg>