<svg enable-background="new 0 0 64 64" height="512" viewBox="0 0 64 64" width="512" xmlns="http://www.w3.org/2000/svg"><g id="Icons"><g><g><path d="m51 42h-12v8h6v-1c0-.552.448-1 1-1h5z" fill="#0a5078"/></g><g><path d="m50 45h-11v-16c0-1.105.895-2 2-2h8c1.105 0 2 .895 2 2v15c0 .552-.448 1-1 1z" fill="#00325a"/></g><g><path d="m39 50v2h-6v6h9c1.657 0 3-1.343 3-3v-5z" fill="#f0c8a0"/></g><g><path d="m50 44h-11v-16c0-1.105.895-2 2-2h8c1.105 0 2 .895 2 2v15c0 .552-.448 1-1 1z" fill="#c80a50"/></g><g><path d="m51 33h-3c-.552 0-1 .448-1 1v2c0 .552.448 1 1 1h3z" fill="#a00028"/></g><g><path d="m42 38h-2v6h2c.552 0 1-.448 1-1v-4c0-.552-.448-1-1-1z" fill="#a00028"/></g><g><path d="m46 28c-1.105 0-2-.895-2-2v-4h4v4c0 1.105-.895 2-2 2z" fill="#d2aa82"/></g><g><path d="m48 24h-2c-1.657 0-3-1.343-3-3v-4c0-1.657 1.343-3 3-3h2c1.657 0 3 1.343 3 3v4c0 1.657-1.343 3-3 3z" fill="#f0c8a0"/></g><g><path d="m51 17h-3c-.552 0-1 .448-1 1 0 .552-.448 1-1 1v1c0 1.105-.895 2-2 2-.552 0-1-.448-1-1v-4c0-1.657 1.343-3 3-3h2c1.657 0 3 1.343 3 3z" fill="#0a5078"/></g><g><path d="m46 18c-.552 0-1 .448-1 1s.448 1 1 1z" fill="#d2aa82"/></g><g><path d="m29 59v-6c0-.552.448-1 1-1h3v6c0 1.105-.895 2-2 2h-1c-.552 0-1-.448-1-1z" fill="#c80a50"/></g><g><path d="m31 54h6v2h-6z" fill="#fab400" transform="matrix(0 1 -1 0 89 21)"/></g><g><path d="m39 50h6v1h-6z" fill="#d2aa82"/></g><g><path d="m51 48h1v8h6v-11c0-1.657-1.343-3-3-3h-4z" fill="#f0c8a0"/></g><g><path d="m59 60h-6c-.552 0-1-.448-1-1v-3h6c1.105 0 2 .895 2 2v1c0 .552-.448 1-1 1z" fill="#c80a50"/></g><g><path d="m52 54h6v2h-6z" fill="#fab400"/></g><g><path d="m48.5 44.5h6v1h-6z" fill="#d2aa82" transform="matrix(0 -1 1 0 6.5 96.5)"/></g><path d="m41 38h-.758l-2-2 1.879-1.879c1.172-1.171 1.172-3.071 0-4.242-1.171-1.172-3.071-1.172-4.242 0l-4 4c-1.172 1.171-1.172 3.071 0 4.242l5 5c.585.586 1.353.879 2.121.879h2c.552 0 1-.448 1-1v-4c0-.552-.448-1-1-1z" fill="#f0c8a0"/><path d="m44 29c0-1.657-1.343-3-3-3-.834 0-1.588.34-2.131.889l-2.99 2.99 4.242 4.242 2.99-2.99c.549-.543.889-1.297.889-2.131z" fill="#a00028"/><g><path d="m26 34h-14v-16c0-1.105.895-2 2-2h10c1.105 0 2 .895 2 2z" fill="#c80a50"/></g><g><path d="m26 25h-3c-.552 0-1 .448-1 1v2c0 .552.448 1 1 1h3z" fill="#a00028"/></g><g><path d="m19 18c-1.105 0-2-.895-2-2v-4h4v4c0 1.105-.895 2-2 2z" fill="#d2aa82"/></g><g><path d="m21 14h-2c-1.657 0-3-1.343-3-3v-4c0-1.657 1.343-3 3-3h2c1.657 0 3 1.343 3 3v4c0 1.657-1.343 3-3 3z" fill="#f0c8a0"/></g><g><path d="m24 7h-3c-.552 0-1 .448-1 1 0 .552-.448 1-1 1v1c0 1.105-.895 2-2 2-.552 0-1-.448-1-1v-4c0-1.657 1.343-3 3-3h2c1.657 0 3 1.343 3 3z" fill="#0a5078"/></g><g><path d="m19 8c-.552 0-1 .448-1 1s.448 1 1 1z" fill="#d2aa82"/></g><g><path d="m12 34v8h6v-3c0-.552.448-1 1-1 .552 0 1 .448 1 1v3h6v-8z" fill="#0a5078"/></g><g><path d="m12 34h14v1h-14z" fill="#00325a"/></g><g><path d="m20 42h6v14h-6z" fill="#f0c8a0"/></g><g><path d="m20 42h6v1h-6z" fill="#d2aa82"/></g><g><path d="m27 60h-6c-.552 0-1-.448-1-1v-3h6c1.105 0 2 .895 2 2v1c0 .552-.448 1-1 1z" fill="#c80a50"/></g><g><path d="m20 54h6v2h-6z" fill="#fab400"/></g><g><path d="m12 42h6v14h-6z" fill="#f0c8a0"/></g><g><path d="m12 42h6v1h-6z" fill="#d2aa82"/></g><g><path d="m19 60h-6c-.552 0-1-.448-1-1v-3h6c1.105 0 2 .895 2 2v1c0 .552-.448 1-1 1z" fill="#c80a50"/></g><g><path d="m12 54h6v2h-6z" fill="#fab400"/></g><g><path d="m15 28h-2v6h2c.552 0 1-.448 1-1v-4c0-.552-.448-1-1-1z" fill="#a00028"/></g><path d="m14 28h-.758l-2-2 1.879-1.879c1.172-1.171 1.172-3.071 0-4.242-1.171-1.172-3.071-1.172-4.242 0l-4 4c-1.172 1.171-1.172 3.071 0 4.242l5 5c.585.586 1.353.879 2.121.879h2c.552 0 1-.448 1-1v-4c0-.552-.448-1-1-1z" fill="#f0c8a0"/><path d="m17 19c0-1.657-1.343-3-3-3-.834 0-1.588.34-2.131.889l-2.99 2.99 4.242 4.242 2.99-2.99c.549-.543.889-1.297.889-2.131z" fill="#a00028"/><g><path d="m29.707 30.293 3.586-3.586c.391-.391.391-1.024 0-1.414l-3.586-3.586c-.63-.63-1.707-.184-1.707.707v1.586h-5c-.552 0-1 .448-1 1v2c0 .552.448 1 1 1h5v1.586c0 .891 1.077 1.337 1.707.707z" fill="#00a0c8"/></g><g><path d="m54.707 38.293 3.586-3.586c.391-.391.391-1.024 0-1.414l-3.586-3.586c-.63-.63-1.707-.184-1.707.707v1.586h-5c-.552 0-1 .448-1 1v2c0 .552.448 1 1 1h5v1.586c0 .891 1.077 1.337 1.707.707z" fill="#00a0c8"/></g></g></g></svg>