<svg id="Layer_1" enable-background="new 0 0 512 512" viewBox="0 0 512 512" xmlns="http://www.w3.org/2000/svg"><g clip-rule="evenodd" fill-rule="evenodd"><path d="m365.475 284.721-87.527 50.523 101.778 176.256 16.01-73.335 71.487 22.813z" fill="#e3465b"/><path d="m146.554 284.721 87.498 50.523-101.748 176.256-16.01-73.335-71.517 22.813z" fill="#e3465b"/><path d="m282.346 12.493 3.753 4.281c9.559 10.937 23.956 14.808 37.679 10.087l5.395-1.847c9.911-3.372 19.763-2.404 28.824 2.815s14.808 13.283 16.831 23.546l1.085 5.601c2.786 14.221 13.342 24.777 27.592 27.563l5.571 1.114c10.292 2.023 18.326 7.77 23.575 16.831 5.219 9.061 6.187 18.913 2.786 28.824l-1.847 5.366c-4.692 13.723-.821 28.149 10.087 37.679l4.31 3.753c7.888 6.891 11.964 15.893 11.964 26.361s-4.076 19.47-11.964 26.331l-4.31 3.753c-10.908 9.559-14.778 23.956-10.087 37.679l1.847 5.395c3.401 9.911 2.434 19.734-2.786 28.824-5.249 9.061-13.283 14.808-23.575 16.831l-5.571 1.085c-14.251 2.786-24.807 13.342-27.592 27.592l-1.085 5.571c-2.023 10.292-7.77 18.326-16.831 23.575-9.061 5.219-18.913 6.187-28.824 2.786l-5.395-1.847c-13.723-4.692-28.12-.821-37.679 10.087l-3.753 4.31c-6.861 7.888-15.863 11.964-26.331 11.964s-19.47-4.076-26.361-11.964l-3.753-4.31c-9.53-10.908-23.956-14.778-37.679-10.087l-5.366 1.847c-9.911 3.401-19.763 2.434-28.824-2.786-9.061-5.249-14.808-13.283-16.831-23.575l-1.114-5.571c-2.786-14.251-13.342-24.807-27.563-27.592l-5.601-1.085c-10.263-2.023-18.326-7.77-23.546-16.831-5.219-9.09-6.187-18.913-2.815-28.824l1.847-5.395c4.721-13.723.85-28.12-10.087-37.679l-4.281-3.753c-7.888-6.861-11.993-15.863-11.993-26.331s4.105-19.47 11.993-26.361l4.281-3.753c10.937-9.53 14.808-23.956 10.087-37.679l-1.847-5.366c-3.372-9.911-2.404-19.763 2.815-28.824s13.283-14.808 23.546-16.831l5.601-1.114c14.221-2.786 24.777-13.342 27.563-27.563l1.114-5.601c2.023-10.263 7.77-18.326 16.831-23.546s18.913-6.187 28.824-2.815l5.366 1.847c13.723 4.721 28.149.85 37.679-10.087l3.753-4.281c6.891-7.888 15.893-11.993 26.361-11.993s19.47 4.105 26.331 11.993z" fill="#ffb100"/><path d="m256.015 336.153c72.543 0 131.687-59.172 131.687-131.687 0-72.543-59.143-131.716-131.687-131.716s-131.716 59.172-131.716 131.716c0 72.514 59.172 131.687 131.716 131.687z" fill="#e2e8f7"/><path d="m255.282 111.749c26.595 0 51.959 11.729 51.079 42.547l-.674 23.077c4.193 2.815 7.448 4.926 7.448 10.703v16.303c0 6.451-4.193 8.533-8.767 11.612-1.495 8.034-8.269 19.763-18.268 29.557v13.4c0 5.131 2.316 9.559 6.539 12.491l45.391 31.375c1.056.704 1.965 1.525 2.786 2.404-22.93 19.294-52.487 30.935-84.8 30.935-32.694 0-62.603-11.905-85.621-31.609.645-.645 1.349-1.202 2.111-1.759l45.42-31.346c4.222-2.932 6.539-7.36 6.539-12.491v-13.4c-9.999-9.794-16.772-21.523-18.268-29.557-4.574-3.079-8.767-5.161-8.767-11.612v-16.303c0-5.777 3.255-7.888 7.448-10.703l-.674-23.077c-.882-30.818 24.482-42.547 51.078-42.547z" fill="#2f3a5a"/></g></svg>