<svg id="Capa_1" enable-background="new 0 0 512 512" height="512" viewBox="0 0 512 512" width="512" xmlns="http://www.w3.org/2000/svg"><g><path d="m466.42 241h-174.207l123.183-123.183c5.858-5.857 5.858-15.355 0-21.213-5.857-5.857-15.355-5.857-21.213 0l-123.183 123.183v-174.207c0-8.284-6.716-15-15-15s-15 6.716-15 15v174.207l-123.183-123.183c-5.857-5.857-15.355-5.857-21.213 0s-5.858 15.355 0 21.213l123.183 123.183h-174.207c-8.284 0-15 6.716-15 15s6.716 15 15 15h174.207l-123.183 123.183c-5.858 5.857-5.858 15.355 0 21.213 2.929 2.929 6.768 4.394 10.606 4.394s7.678-1.465 10.606-4.394l123.184-123.183v174.207c0 8.284 6.716 15 15 15s15-6.716 15-15v-174.207l123.183 123.183c2.929 2.929 6.768 4.394 10.606 4.394s7.678-1.465 10.606-4.394c5.858-5.857 5.858-15.355 0-21.213l-123.182-123.183h174.207c8.284 0 15-6.716 15-15s-6.716-15-15-15z" fill="#557983"/><path d="m466.42 241h-174.207l123.183-123.183c5.858-5.857 5.858-15.355 0-21.213-5.857-5.857-15.355-5.857-21.213 0l-123.183 123.183v-174.207c0-8.146-6.498-14.76-14.591-14.979v450.798c8.093-.219 14.591-6.833 14.591-14.979v-174.207l123.183 123.183c2.929 2.929 6.768 4.394 10.606 4.394s7.678-1.465 10.606-4.394c5.858-5.857 5.858-15.355 0-21.213l-123.182-123.183h174.207c8.284 0 15-6.716 15-15s-6.716-15-15-15z" fill="#3f5858"/><ellipse cx="256" cy="256" fill="#fff69d" rx="135.607" ry="135.501"/><path d="m256.409 120.504v270.992c74.586-.222 135.198-60.917 135.198-135.496s-60.611-135.274-135.198-135.496z" fill="#ffdf50"/><g><ellipse cx="407.639" cy="102.499" fill="#25e0c0" rx="38.917" ry="39.016" transform="matrix(.707 -.707 .707 .707 46.917 318.266)"/></g><g><ellipse cx="256" cy="38.917" fill="#fc7780" rx="39.016" ry="38.917"/></g><g><ellipse cx="100.638" cy="102.499" fill="#94c0ff" rx="39.016" ry="38.917" transform="matrix(.707 -.707 .707 .707 -43.002 101.183)"/></g><g><ellipse cx="36.637" cy="256" fill="#ffdf50" rx="36.637" ry="36.73"/></g><g><ellipse cx="100.638" cy="409.501" fill="#b1f98a" rx="38.917" ry="39.016" transform="matrix(.707 -.707 .707 .707 -260.085 191.102)"/></g><g><ellipse cx="256" cy="473.083" fill="#fc7780" rx="39.016" ry="38.917"/></g><g><ellipse cx="407.639" cy="409.501" fill="#6f8cfa" rx="39.016" ry="38.917" transform="matrix(.707 -.707 .707 .707 -170.166 408.185)"/></g><g><path d="m291.74 318.97c-2.387 0-4.783-.569-6.979-1.723l-28.761-15.12-28.761 15.12c-5.054 2.657-11.177 2.214-15.797-1.142-4.619-3.356-6.933-9.043-5.967-14.671l5.493-32.026-23.269-22.681c-4.088-3.985-5.56-9.946-3.795-15.376 1.764-5.43 6.458-9.388 12.108-10.209l32.156-4.672 14.38-29.139c2.527-5.12 7.742-8.361 13.451-8.361 5.71 0 10.924 3.242 13.451 8.362l14.38 29.138 32.156 4.672c5.65.821 10.345 4.779 12.108 10.209 1.765 5.43.293 11.391-3.796 15.376l-23.268 22.681 5.493 32.026c.965 5.627-1.349 11.315-5.968 14.671-2.609 1.899-5.705 2.865-8.815 2.865z" fill="#ffdf50"/></g><path d="m284.761 317.247c2.195 1.154 4.592 1.723 6.979 1.723 3.11 0 6.206-.966 8.818-2.865 4.619-3.356 6.933-9.043 5.968-14.671l-5.493-32.026 23.268-22.681c4.089-3.985 5.561-9.946 3.796-15.376-1.764-5.43-6.458-9.388-12.108-10.209l-32.156-4.672-14.38-29.138c-2.527-5.12-7.741-8.362-13.451-8.362v123.157z" fill="#ffb159"/><ellipse cx="473.083" cy="256" fill="#ffb159" rx="38.917" ry="39.016"/><g fill="#ff306f"><path d="m256.409 434.176v77.814c21.358-.22 38.607-17.551 38.607-38.907s-17.248-38.687-38.607-38.907z"/><path d="m256.409.01v77.814c21.358-.22 38.607-17.551 38.607-38.907s-17.248-38.687-38.607-38.907z"/></g></g></svg>