<svg id="Layer_1" enable-background="new 0 0 512 512" viewBox="0 0 512 512" xmlns="http://www.w3.org/2000/svg"><g clip-rule="evenodd" fill-rule="evenodd"><g><path d="m318.721 78.711c0 34.642-28.08 62.721-62.721 62.721s-62.721-28.079-62.721-62.721c0-34.631 28.08-62.711 62.721-62.711s62.721 28.08 62.721 62.711z" fill="#efc7a4"/><path d="m120.295 313.277c0 74.945 271.41 74.945 271.41 0 0-74.944-60.764-135.7-135.71-135.7-74.944 0-135.7 60.756-135.7 135.7z" fill="#66d4f1"/></g><g><path d="m445.595 373.97c-9.181 0-17.789 2.973-25.203 8.165-7.414-5.192-16.021-8.165-25.202-8.165-27.838 0-50.405 27.317-50.405 61.015s22.566 61.015 50.405 61.015c9.181 0 17.788-2.973 25.202-8.164 7.414 5.192 16.021 8.164 25.203 8.164 27.838 0 50.405-27.317 50.405-61.015s-22.567-61.015-50.405-61.015z" fill="#f76c82"/><path d="m427.392 382.134c0 3.866-3.134 7-7 7s-7-3.134-7-7v-36.272c0-3.866 3.134-7 7-7s7 3.134 7 7z" fill="#7e6451"/></g><g><ellipse cx="426.769" cy="124.294" fill="#c6ea94" rx="69.231" ry="69.231" transform="matrix(.16 -.987 .987 .16 235.719 525.643)"/><path d="m419.769 89.679c0-3.866 3.134-7 7-7s7 3.134 7 7v27.615h27.615c3.866 0 7 3.134 7 7s-3.134 7-7 7h-27.615v27.615c0 3.866-3.134 7-7 7s-7-3.134-7-7v-27.615h-27.615c-3.866 0-7-3.134-7-7s3.134-7 7-7h27.615z" fill="#f4f6f8"/></g><g><path d="m21 256h188.34c2.754 0 5 2.246 5 5v230c0 2.754-2.246 5-5 5h-188.34c-2.754 0-5-2.246-5-5v-230c0-2.754 2.246-5 5-5z" fill="#c6ea94"/><path d="m57.793 290.119h114.754c2.754 0 5 2.246 5 5v91.404c0 2.754-2.246 5-5 5h-114.754c-2.754 0-5-2.246-5-5v-91.404c0-2.754 2.246-5 5-5z" fill="#eb5463"/><path d="m52.793 438.018c-3.866 0-7-3.134-7-7s3.134-7 7-7h124.753c3.866 0 7 3.134 7 7s-3.134 7-7 7z" fill="#afe269"/><path d="m52.793 468.88c-3.866 0-7-3.134-7-7s3.134-7 7-7h124.753c3.866 0 7 3.134 7 7s-3.134 7-7 7z" fill="#afe269"/><g fill="#c6ea94"><path d="m115.17 357.249c-8.915 2.181-18.719-.21-25.683-7.174-6.963-6.964-9.355-16.768-7.174-25.683 8.915-2.181 18.719.21 25.683 7.174s9.354 16.769 7.174 25.683z"/><path d="m115.17 357.249c8.915 2.181 18.72-.21 25.683-7.174s9.355-16.768 7.174-25.683c-8.915-2.181-18.719.21-25.683 7.174s-9.355 16.769-7.174 25.683z"/></g></g></g></svg>