<svg id="Capa_1" enable-background="new 0 0 512 512" height="512" viewBox="0 0 512 512" width="512" xmlns="http://www.w3.org/2000/svg"><g><path d="m241.58 217.346c10.86-21.992 7.828-60.484-7.711-94.631-2.189-4.809-4.574-9.58-7.155-14.264-15.425-28.39-37.985-53.63-63.251-66.665-2.848-1.47-5.656-.499-6.99 2.415-11.83 25.852-13.997 59.635-8.607 91.492.861 5.278 1.929 10.504 3.176 15.639 8.855 36.456 30.231 68.61 52.35 79.208 15.538 7.445 30.559 2.255 38.188-13.194z" fill="#6dc847"/><path d="m209.839 190.319c-2.035 0-4.065-.8-5.582-2.388-.767-.804-1.362-1.774-1.724-2.823l-19.974-53.049c-1.393-4.033.746-8.433 4.78-9.826 4.032-1.393 8.433.746 9.826 4.78l19.91 52.865c1.051 2.811.407 6.101-1.899 8.302-1.498 1.429-3.419 2.139-5.337 2.139z" fill="#4eb229"/><path d="m201.182 239.982c-18.934 11.223-47.027 8.925-69.005-5.908-3.095-2.089-6.116-4.375-9.028-6.857-17.699-14.827-31.407-36.816-35.369-61.727-.447-2.808.922-5.622 3.407-7.004 22.043-12.261 47.805-15.051 70.395-10.281 3.75.758 7.414 1.724 10.968 2.869 25.236 8.134 44.387 28.815 47.247 50.639 2.008 15.333-5.314 30.385-18.615 38.269z" fill="#9cda82"/><path d="m431.918 121.311c-22.269-15.002-51.898-9.534-67.591 11.159-2.166 2.857-3.947 5.987-5.448 9.243l-40.966 88.927 55.505 37.394 67.027-71.369c2.455-2.614 4.686-5.44 6.52-8.521 13.283-22.316 7.221-51.83-15.047-66.833z" fill="#fbf198"/><path d="m321.585 146.932c14.098 6.054 33.309 1.937 47.166-10.293 1.952-1.723 3.834-3.575 5.624-5.552 10.042-10.909 17.195-25.716 18.648-41.722.427-4.71-2.133-8.599-6.628-10.069-15.277-4.994-31.705-4.277-45.696.634-2.524.862-4.97 1.859-7.323 2.97-16.712 7.893-28.089 23.912-28.101 39.255-.009 11.162 6.054 20.373 16.31 24.777z" fill="#9cda82"/><path d="m270.357 270.253c3.508.101 6.958-.151 10.327-.726 3.561-.608 7.226.147 10.257 2.113 2.867 1.86 5.937 3.455 9.199 4.749 32.061 12.721 70.481-8.292 85.814-46.935s1.773-80.282-30.288-93.003c-6.727-2.669-13.733-3.852-20.748-3.699-12.367.27-24.664-1.992-36.107-6.627l-20.569-1.089-41.437 44.665 11.226 77.339z" fill="#f85647"/><path d="m261.069 199.923c0-30.374 14.881-57.27 37.746-73.805-1.216-.493-2.426-1.004-3.623-1.55-6.382-2.914-13.286-4.597-20.52-4.805-34.478-.989-63.395 31.898-64.586 73.454s25.792 76.046 60.27 77.035c3.508.101 6.958-.151 10.327-.726 3.561-.608 7.226.147 10.257 2.113 2.867 1.86 5.937 3.455 9.199 4.749 1.816.721 3.655 1.318 5.506 1.825-26.687-15.866-44.576-44.987-44.576-78.29z" fill="#e83826"/><path d="m219.561 226.048h204.337c8.221 0 14.712 6.98 14.116 15.18l-18.174 249.981c-.538 7.399-6.698 13.127-14.116 13.127h-182.24l-32.114-3.916-32.824-89.345-4.636-116.124 30.198-63.312z" fill="#df8a57"/><path d="m192.257 457.11v-185.714c0-19.663 11.066-36.733 27.304-45.347h-100.753c-8.221 0-14.712 6.98-14.116 15.18l18.174 249.981c.538 7.399 6.698 13.127 14.116 13.127h86.502c-18.356-7.815-31.227-26.017-31.227-47.227z" fill="#c76d33"/><circle cx="59.125" cy="58.185" fill="#a4e7ff" r="54.602"/><circle cx="72.536" cy="431.801" fill="#ff899f" r="72.536"/><circle cx="271.353" cy="442.772" fill="#fbf198" r="65.646"/><circle cx="453.938" cy="353.014" fill="#9cda82" r="58.062"/><ellipse cx="190.611" cy="311.518" fill="#fff" rx="29.792" ry="23.725"/><ellipse cx="352.095" cy="311.518" fill="#fff" rx="29.792" ry="23.725"/><g fill="#fff8e6"><path d="m81.073 401.022c-.027-.07-.054-.141-.083-.21-1.399-3.401-4.678-5.599-8.356-5.599-.002 0-.005 0-.008 0-3.681.003-6.96 2.206-8.354 5.612-.024.059-.047.119-.07.178l-21.675 56.909c-1.519 3.987.482 8.451 4.47 9.97 3.989 1.521 8.452-.482 9.97-4.471l3.503-9.196h24.159l3.462 9.175c1.168 3.094 4.108 5 7.23 5 .906 0 1.828-.161 2.726-.5 3.992-1.506 6.008-5.964 4.501-9.957zm-14.716 37.741 6.25-16.409 6.193 16.409z"/><path d="m268.296 409.698h-14.358c-2.052 0-4.019.816-5.468 2.269-1.45 1.452-2.262 3.421-2.258 5.472 0 0 .037 19.498.037 25.278 0 7.048.066 25.431.066 25.431.008 2.049.828 4.011 2.283 5.456 1.448 1.437 3.404 2.242 5.443 2.242h.029c.435-.002 10.681-.041 14.781-.113 16.018-.28 27.643-14.141 27.643-32.961 0-19.783-11.332-33.074-28.198-33.074zm.285 50.584c-1.601.028-4.242.051-6.84.069-.019-5.876-.04-13.609-.04-17.635 0-3.379-.013-11.442-.023-17.565h6.618c11.826 0 12.745 13.487 12.745 17.621 0 8.607-3.852 17.36-12.46 17.51z"/><path d="m469.508 349.059c1.341-2.548 2.109-5.442 2.109-8.516 0-10.123-8.235-18.358-18.358-18.358h-13.422c-4.267 0-7.726 3.459-7.726 7.726v21.276.035 24.893c0 2.055.819 4.025 2.275 5.476 1.448 1.442 3.408 2.25 5.451 2.25h.034c.002 0 12.333-.054 15.731-.054 11.118 0 20.163-9.045 20.163-20.163.001-5.726-2.411-10.891-6.257-14.565zm-16.249-11.421c1.602 0 2.905 1.304 2.905 2.905 0 1.602-1.303 2.905-2.905 2.905-.977 0-2.805.005-4.807.012h-.888v-5.823h5.695zm2.344 30.697c-1.525 0-4.838.011-8.039.023v-9.441c.33-.001.657-.002.981-.004h7.059c2.597 0 4.71 2.114 4.71 4.711-.001 2.598-2.114 4.711-4.711 4.711z"/><path d="m63.144 87.637c6.556 0 12.456-2.168 17.059-6.268.903-.804 1.761-1.688 2.548-2.628 2.741-3.27 2.313-8.143-.956-10.884-3.27-2.741-8.143-2.314-10.885.957-.306.365-.636.705-.981 1.013-1.757 1.564-4.04 2.357-6.785 2.357-7.719 0-13.999-6.28-13.999-13.999s6.28-14 13.999-14c2.806 0 5.511.825 7.822 2.386 3.538 2.387 8.34 1.459 10.727-2.077 2.389-3.536 1.458-8.339-2.077-10.727-4.876-3.294-10.571-5.034-16.472-5.034-16.24 0-29.452 13.212-29.452 29.453 0 16.239 13.212 29.451 29.452 29.451z"/></g><path d="m207.974 263.794c-12.079 0-21.907 9.827-21.907 21.906 0 4.268 3.459 7.726 7.726 7.726s7.726-3.459 7.726-7.726c0-3.558 2.895-6.454 6.454-6.454s6.454 2.895 6.454 6.454c0 4.268 3.459 7.726 7.726 7.726s7.726-3.459 7.726-7.726c.001-12.079-9.826-21.906-21.905-21.906z" fill="#475066"/><path d="m334.732 263.794c-12.079 0-21.907 9.827-21.907 21.906 0 4.268 3.459 7.726 7.726 7.726s7.726-3.459 7.726-7.726c0-3.558 2.895-6.454 6.454-6.454s6.454 2.895 6.454 6.454c0 4.268 3.459 7.726 7.726 7.726s7.726-3.459 7.726-7.726c.002-12.079-9.825-21.906-21.905-21.906z" fill="#475066"/><path d="m271.353 316.854c7.998 0 15.604-3.464 20.867-9.503 2.803-3.217 2.468-8.099-.749-10.901-3.217-2.804-8.098-2.469-10.901.748-2.327 2.671-5.687 4.203-9.217 4.203s-6.89-1.532-9.217-4.203c-2.803-3.215-7.684-3.552-10.901-.748-3.217 2.803-3.552 7.684-.749 10.901 5.263 6.039 12.869 9.503 20.867 9.503z" fill="#475066"/></g></svg>