<svg height="512" viewBox="0 0 64 64" width="512" xmlns="http://www.w3.org/2000/svg"><g id="_30-Report" data-name="30-Report"><rect fill="#ffb74d" height="47" rx="4" width="38" x="5" y="9"/><path d="m28 7a4 4 0 0 0 -8 0h-4a2 2 0 0 0 -2 2v3a2 2 0 0 0 2 2h16a2 2 0 0 0 2-2v-3a2 2 0 0 0 -2-2z" fill="#ef5350"/><g fill="#eee"><path d="m37 21h-15a1 1 0 0 1 0-2h15a1 1 0 0 1 0 2z"/><path d="m31 27h-9a1 1 0 0 1 0-2h9a1 1 0 0 1 0 2z"/><path d="m37 33h-15a1 1 0 0 1 0-2h15a1 1 0 0 1 0 2z"/><path d="m31 39h-9a1 1 0 0 1 0-2h9a1 1 0 0 1 0 2z"/><path d="m25 45h-3a1 1 0 0 1 0-2h3a1 1 0 0 1 0 2z"/><path d="m25 51h-3a1 1 0 0 1 0-2h3a1 1 0 0 1 0 2z"/></g><path d="m56.16093 41.17045 2.12132 2.12132a2.42424 2.42424 0 0 1 .007 3.41534l-.58687.58687a2.4242 2.4242 0 0 1 -3.42242 0l-2.12128-2.12128a2.4242 2.4242 0 0 0 3.42242 0l.58687-.58687a2.42424 2.42424 0 0 0 -.007-3.41534z" fill="#616161"/><path d="m43 13v39a3.99891 3.99891 0 0 1 -4 4h-30a3.99891 3.99891 0 0 1 -4-4v-3a3.99891 3.99891 0 0 0 4 4h25a3.99891 3.99891 0 0 0 4-4v-36a3.99887 3.99887 0 0 0 -4-4h5a3.99887 3.99887 0 0 1 4 4z" fill="#ffa726"/><path d="m22.5 3.3a3.75542 3.75542 0 0 1 1.5-.3 3.99887 3.99887 0 0 1 4 4h-3a3.97784 3.97784 0 0 0 -2.5-3.7z" fill="#e53935"/><path d="m34 9v3a2.00591 2.00591 0 0 1 -2 2h-16a2.00591 2.00591 0 0 1 -2-2v-3a2.01467 2.01467 0 0 0 2 2h13a2.00591 2.00591 0 0 0 2-2 2.01456 2.01456 0 0 0 -2-2h3a2.00587 2.00587 0 0 1 2 2z" fill="#e53935"/><rect fill="#eee" height="4.243" rx="1" transform="matrix(.707 -.707 .707 .707 -19.642 44.58)" width="39.355" x="24.314" y="43.879"/><path d="m30.07739 59.91422.79287.79286a1 1 0 0 0 1.41421 0l26.41422-26.41422a1 1 0 0 0 0-1.41421l-.79286-.79286z" fill="#e0e0e0"/><path d="m58.28452 37.29291-5.58582-5.58582a2.41421 2.41421 0 0 0 -3.41418 0l-1.29291 1.29291 9 9 1.29291-1.29291a2.41421 2.41421 0 0 0 0-3.41418z" fill="#616161"/><path d="m45.2845 56.2929-11.58578-11.58579a2.41425 2.41425 0 0 0 -1.70711-.70711 2.41425 2.41425 0 0 0 -1.70711.70711l-.58578.58579a2.41416 2.41416 0 0 0 -.70711 1.7071 2.41419 2.41419 0 0 0 .70711 1.70711l11.58578 11.58579a2.41424 2.41424 0 0 0 1.70711.7071 2.41424 2.41424 0 0 0 1.70711-.7071l.58578-.58579a2.41419 2.41419 0 0 0 .70711-1.70711 2.41416 2.41416 0 0 0 -.70711-1.7071z" fill="#757575"/><path d="m43.16431 54.16708 2.12132 2.12132a2.42417 2.42417 0 0 1 0 3.42241l-.58686.58687a2.42425 2.42425 0 0 1 -3.41534-.007l-2.12132-2.12133a2.42424 2.42424 0 0 0 3.41534.007l.58686-.58687a2.42417 2.42417 0 0 0 .00005-3.42241z" fill="#616161"/><path d="m30.99161 50-1.29291 1.29291a2.41421 2.41421 0 0 0 0 3.41418l5.58582 5.58582a2.41421 2.41421 0 0 0 3.41418 0l1.29291-1.29291z" fill="#616161"/><path d="m56.16093 35.1742 2.12132 2.12132a2.39026 2.39026 0 0 1 0 3.40826l-1.294 1.294-2.12132-2.12132 1.294-1.294a2.39028 2.39028 0 0 0 0-3.40826z" fill="#4d4d4d"/><path d="m37.868 56.87531 2.12132 2.12132-1.294 1.294a2.39027 2.39027 0 0 1 -3.40826.00005l-2.12132-2.12133a2.39026 2.39026 0 0 0 3.40826 0z" fill="#4d4d4d"/><path d="m46.69872 31.70711 11.58578 11.58579a2.41421 2.41421 0 0 1 .70711 1.7071 2.41423 2.41423 0 0 1 -.70711 1.70711l-.58579.58579a2.4142 2.4142 0 0 1 -1.7071.7071 2.41422 2.41422 0 0 1 -1.70711-.7071l-11.58579-11.58579a2.41424 2.41424 0 0 1 -.7071-1.70711 2.41421 2.41421 0 0 1 .70711-1.70711l.58578-.58578a2.41421 2.41421 0 0 1 1.70711-.70711 2.41421 2.41421 0 0 1 1.70711.70711z" fill="#757575"/></g><g id="_29-Schedule" data-name="29-Schedule"><path d="m11 20h6v6h-6z" fill="#ef5350"/><path d="m14 20a3 3 0 0 1 -3 3v3h6v-6z" fill="#e53935"/><path d="m11 32h6v6h-6z" fill="#ef5350"/><path d="m14 32a3 3 0 0 1 -3 3v3h6v-6z" fill="#e53935"/><path d="m11 44h6v6h-6z" fill="#ef5350"/><path d="m14 44a3 3 0 0 1 -3 3v3h6v-6z" fill="#e53935"/></g></svg>