<svg height="512" viewBox="0 0 500 500" width="512" xmlns="http://www.w3.org/2000/svg"><g id="圖層_17" data-name="圖層 17"><rect fill="#b6d45b" height="433.93" rx="13.22" width="304.28" x="35.68" y="29.33"/><path d="m60.27 59.85h260.63v359.97h-260.63z" fill="#99b972"/><path d="m57.51 56.67h260.63v359.97h-260.63z" fill="#f7f6fb"/><path d="m212.15 29.33a24.33 24.33 0 1 0 -48.65 0h-52.85v27.34l21.17 20.33h112.89l20.29-20.33v-27.34zm-24.33-17.89a6 6 0 1 1 -6 6 6 6 0 0 1 6-6z" fill="#00c2f6"/><circle cx="108.65" cy="150.69" fill="#e3f0d5" r="23.19"/><path d="m89.3 143.4 6.85-5.52 12.5 16.24 28.78-31.15 5.66 6.75-35.86 39.61z" fill="#00b781"/><circle cx="108.65" cy="238.92" fill="#e3f0d5" r="23.19"/><path d="m89.3 231.63 6.85-5.51 12.5 16.23 28.78-31.15 5.66 6.75-35.86 39.61z" fill="#00b781"/><circle cx="108.65" cy="327.15" fill="#e3f0d5" r="23.19"/><path d="m89.3 319.86 6.85-5.51 12.5 16.23 28.78-31.15 5.66 6.75-35.86 39.61z" fill="#00b781"/><path d="m150.48 139.79h131.68v8.14h-131.68z" fill="#d0e4b6"/><path d="m150.48 155.72h131.68v8.14h-131.68z" fill="#e3f0d5"/><path d="m150.48 227.8h131.68v8.14h-131.68z" fill="#d0e4b6"/><path d="m150.48 243.73h131.68v8.14h-131.68z" fill="#e3f0d5"/><path d="m150.48 315.61h131.68v8.14h-131.68z" fill="#d0e4b6"/><path d="m150.48 331.54h131.68v8.14h-131.68z" fill="#e3f0d5"/><path d="m314.77 427.92s4.79 48.93 9.21 57.77h6.63s-5.89-41.93-5.15-57.77c0 0-1.59-2.47-5.64-2.47s-5.05 2.47-5.05 2.47z" fill="#ec7278"/><path d="m329.93 482.32c-4.59-1.37-30.85-8.58-37.61 3.37 0 0-4.22 9.72 11.81 9.3l18.56-1c4.41 0 9.11-.93 9.11-5.34l-1.05-5.41a1.2 1.2 0 0 0 -.82-.92z" fill="#59261f"/><path d="m374.43 427.92s-4.79 48.93-9.21 57.77h-6.63s5.89-41.93 5.16-57.77c0 0 1.58-2.47 5.63-2.47s5.05 2.47 5.05 2.47z" fill="#ec7278"/><path d="m359.28 482.32c4.59-1.37 30.85-8.58 37.61 3.37 0 0 4.21 9.72-11.81 9.3l-18.57-1c-4.41 0-9.11-.93-9.11-5.34l1.05-5.41a1.2 1.2 0 0 1 .83-.92z" fill="#59261f"/><path d="m457.46 340.61c-4.93 44.62-40.55 106-80.6 107.85-12.49.57-23-3-35.52-4.35-13.51-1.5-25.19-1.16-38.14-5.22-40.83-12.81-57.39-77.54-52.57-121.14 4.3-38.87 28.42-60.75 61.37-68.75 15.48-3.76 31.72 6.31 50 8.33 18 2 35.88-4.38 50.05 2.53 30.73 14.96 49.74 41.66 45.41 80.75z" fill="#ff404c"/><path d="m360.12 258.08s-1.69-33.35 11.1-46.88c0 0 16.08 3.11 9 7.64 0 0-13.74 15.34-13.39 40 .03-.02-4.06 2.81-6.71-.76z" fill="#59261f"/><path d="m367.15 246s28-48.71 77.18-23.9c0-.02-23.12 53.66-77.18 23.9z" fill="#47a000"/><g fill="#ec7278"><path d="m427.79 416.86s45.08-22.15 17.81-59.35a5.41 5.41 0 0 1 1.08-7.57l.1-.07a4.79 4.79 0 0 1 6.15.51s36.37 42.32-20.87 74.71z"/><path d="m210.81 292.5s-1.9 50.19 43.79 43.84a5.41 5.41 0 0 1 6.15 4.54s0 .08 0 .13a4.78 4.78 0 0 1 -3.36 5.17s-54.51 11.92-55.85-53.83z"/><path d="m432.06 425.09s2.59 9-15 16.09c0 0-4.1 1.59-4-1.15 0 0 .25-1.24 4-3.41 0 0 .7-.75-3 .72-2.09.83-4.93 1.8-5.84-.2 0 0-.9-2.17 2.14-3.6 1.12-.53 3.64-1 4.64-2.07 0 0-.19-.8-5.86 2.16-1.59.83-3.83.45-4.46-1.16 0 0-1.18-2.55 3-4.44 1.4-.63 4.31-1.29 5.75-2.44 0 0-7.08 3.1-8.74 1.34 0 0-3-3 5.58-6.49a7.65 7.65 0 0 1 -1.78-.23c-3.85-.82-2.35-6.09 2.67-5.26 5.77.95 11.3-2.79 16.62 1.91z"/></g><path d="m333.54 327.61a12.44 12.44 0 0 1 -2-.17 10.79 10.79 0 0 1 -9.1-9.8 30.16 30.16 0 0 1 .29-6.85 2.39 2.39 0 1 1 4.74.69 25.71 25.71 0 0 0 -.25 5.75 6 6 0 0 0 5.13 5.48 5.74 5.74 0 0 0 6.44-3.36 22.45 22.45 0 0 0 1.6-5.78 2.4 2.4 0 0 1 4.74.72 27.68 27.68 0 0 1 -2 7 10.41 10.41 0 0 1 -9.59 6.32z" fill="#40220f"/><path d="m377.09 332.81a11.51 11.51 0 0 1 -1.84-.15 10.9 10.9 0 0 1 -9.16-10.3 31.52 31.52 0 0 1 .32-6.37 2.4 2.4 0 0 1 4.75.69 26.13 26.13 0 0 0 -.28 5.37 6.08 6.08 0 0 0 5.15 5.87 5.89 5.89 0 0 0 6.63-3.81 23.23 23.23 0 0 0 1.41-5.35 2.4 2.4 0 1 1 4.74.73 28.07 28.07 0 0 1 -1.71 6.45 10.78 10.78 0 0 1 -10.01 6.87z" fill="#40220f"/><path d="m204.69 294.07s-15.94-1.15-14.11-21.6a7.67 7.67 0 0 1 7-7 37.79 37.79 0 0 1 15.6 2.93s8.71.8 8.12 11.37c0 0-1.19 12.88-10.45 12.73s-6.16 1.57-6.16 1.57z" fill="#ec7278"/><path d="m218 271.17s1.19-6.64-5.8-14.53a5 5 0 0 0 -5.47-1.58c-1.23.48-2.48 2-1 5.11a28.64 28.64 0 0 1 2.46 7.18l.23 1.2z" fill="#ec7278"/><path d="m175.19 143.91 42.35 156.23a2.51 2.51 0 0 1 -1.7 3.05 2.51 2.51 0 0 1 -3.14-1.76l-41.08-156.56a1.84 1.84 0 0 1 1.31-2.26 1.85 1.85 0 0 1 2.26 1.3z" fill="#231815"/><path d="m201.55 264.66s12.59 3.24 9.57 12c0 0 1.15 6-2.7 5.54 0 0-2.27 4.86-6.87 4 0 0-11.48-2.48-12.1-9.57 0 0-1.85-6.33 6-11.26.01.06 3.46-1.64 6.1-.71z" fill="#ec7278"/><path d="m209.12 268.73s5.08 7-2.35 15.76c0 0-3.58 3.59-8.85.63 0 0 6.78 2.32 10.7-5 0-.03 2.93-5.78.5-11.39z" fill="#db3f47"/><path d="m218 271.17s-13.16.35-12.62 8.58c0 0 1.16 9 9.79 2.95 0 0 5.42-3.15 5.17-7.28.03 0-.4-3.91-2.34-4.25z" fill="#ec7278"/><path d="m212.48 272.07s-7.95 1.61-7.07 7.68c0 0 .55 5.17 4.66 5 0 0-5.68-3.43-2.45-8.6a10.73 10.73 0 0 1 4.86-4.08z" fill="#db3f47"/><path d="m334.23 345.12c.81-5.5 7.38-3.08 15.75-1.85s15.36.8 14.56 6.3-8.25 9-16.62 7.73-14.5-6.68-13.69-12.18z" fill="#40220f"/><g opacity=".3"><path d="m313.21 426.35a5.64 5.64 0 0 1 -5.69 1.85c-8-1.9-30.87-10-37.81-41.64 0 0-4.11-14 .11-14.54 0 0 4.16-2.13 7.58 16.29 0 0 4.19 23.6 30.49 31.51 0 0 8.3 2.52 5.32 6.53z" fill="#fff"/></g><g opacity=".3"><path d="m266.75 363.94s3.63 4.83 5.66-1.66c0 0 .42-11.1-4.43-10.89.02 0-4.74-.23-1.23 12.55z" fill="#fff"/></g><path d="m374.76 243.73s26.62-25.95 61.15-20c0 .04-32.85-.33-61.15 20z" fill="#3d7e33"/></g></svg>