<?xml version="1.0" encoding="UTF-8"?>
<svg xmlns="http://www.w3.org/2000/svg" viewBox="0 0 500 500" width="512" height="512"><defs><style>.cls-1{fill:#cceafb;}.cls-2{fill:#d7edd6;}.cls-3{fill:#ffe89c;}.cls-4{fill:#ffbfcb;}.cls-5{fill:#e08044;}.cls-6{fill:#fff;}.cls-7{fill:#e56881;}.cls-8{fill:#00adcf;}.cls-9{fill:none;}.cls-10{fill:#98c68f;}</style></defs><g id="圖層_10" data-name="圖層 10"><polygon class="cls-1" points="326.42 134.28 208.28 134.28 198.15 134.28 173.58 134.28 110.57 243.41 198.15 243.41 208.28 243.41 389.43 243.41 326.42 134.28"/><path class="cls-2" d="M325.34,132.4,277.45,49.47a31.69,31.69,0,0,0-54.9,0L174.66,132.4Z"/><path class="cls-3" d="M454.61,356.31H45.39L9.29,418.83a31.7,31.7,0,0,0,27.46,47.55h426.5a31.7,31.7,0,0,0,27.46-47.55Z"/><polygon class="cls-4" points="390.51 245.3 285.62 245.3 272.72 245.3 109.49 245.3 46.48 354.43 272.72 354.43 285.62 354.43 453.52 354.43 390.51 245.3"/><path class="cls-5" d="M168.19,372H119.9a14.61,14.61,0,0,0-14.6,14.61v14.24a6.12,6.12,0,0,0,6.12,6.12v33.66a10.06,10.06,0,0,0,10.06,10.07h45.13a10.06,10.06,0,0,0,10.06-10.07V407a6.12,6.12,0,0,0,6.12-6.12V386.64A14.61,14.61,0,0,0,168.19,372Zm11.74,27.1a5.67,5.67,0,0,1-5.67,5.67v34.06a9.32,9.32,0,0,1-9.32,9.32H123.15a9.32,9.32,0,0,1-9.32-9.32V404.8a5.67,5.67,0,0,1-5.67-5.67v-11a13.53,13.53,0,0,1,13.53-13.52H166.4a13.53,13.53,0,0,1,13.53,13.52Z"/><circle class="cls-5" cx="118.39" cy="394" r="1.83"/><circle class="cls-5" cx="144.05" cy="394" r="1.83"/><circle class="cls-5" cx="156.87" cy="387.14" r="1.83"/><circle class="cls-5" cx="169.7" cy="394" r="1.83"/><circle class="cls-5" cx="131.22" cy="387.04" r="1.83"/><path class="cls-5" d="M355.55,389.69c-9.17,0-17.65,5-24.55,8.74-10.58,5.69-17.46,12.1-17.46,22.56,0,17.28,21.06,24.27,42,17.54,22.09-7.09,39.61,12,42-17.54C399,403.76,378.75,389.69,355.55,389.69Zm-.93,30.05a1.44,1.44,0,0,1-2-.32,1.28,1.28,0,0,1,.46-1.82c.77-.41,2.06-.23,2.36.35A1.44,1.44,0,0,1,354.62,419.74Zm9.9,7.18c-1.26.66-2.68.44-3.17-.51a2.08,2.08,0,0,1,.73-3c1.26-.66,3.35-.37,3.84.57S365.79,426.26,364.52,426.92Zm2-15.82a1.43,1.43,0,0,1-2-.31A1.3,1.3,0,0,1,365,409c.78-.4,2.07-.22,2.37.36A1.42,1.42,0,0,1,366.49,411.1Zm16.76,9.58c-1.47.77-3.12.5-3.69-.59a2.44,2.44,0,0,1,.85-3.45c1.47-.77,3.89-.42,4.46.67S384.72,419.91,383.25,420.68Z"/><path class="cls-5" d="M255.09,380.16a4,4,0,0,0-5.89,1.33c-15.58-10.76-28.24-15.74-35.53-9s-3.47,19.54,6.41,36.46a4,4,0,0,0-2.64,6c34.12,53.65,58.61,31.75,61.53,28.82C282.13,441.1,305.88,418.41,255.09,380.16Zm-27.83,16.73a59.23,59.23,0,0,0,10.16-9.27q5.1,4,10,8.29a65.14,65.14,0,0,1-13.26,12q-3.87-5.19-7.48-10.58Zm-.8-.87c-.14.11-.29.21-.44.31q-3.22-4.87-6.24-9.88a48.08,48.08,0,0,0,7.36-6.6q2.64,1.92,5.25,3.88c1.37,1,2.74,2.09,4.09,3.15A57.24,57.24,0,0,1,226.46,396ZM271,435.2a130.15,130.15,0,0,0-10.11-8.56c.82-.7,1.62-1.42,2.41-2.15A128.75,128.75,0,0,0,271,435.2Zm-8.32-11.71c-.9.84-1.81,1.65-2.74,2.45a97.64,97.64,0,0,0-13.35-8.38,82.56,82.56,0,0,0,8.85-7.86A98.22,98.22,0,0,0,262.72,423.49ZM251.47,398l-2.44-2.2c.51-.63,1-1.3,1.46-1.95C250.77,395.14,251.09,396.52,251.47,398Zm.59,2.14a83.46,83.46,0,0,0,2.93,8.4A80.39,80.39,0,0,1,245.5,417c-2.31-1.16-4.51-2.13-6.62-3-.43-.54-.89-1.08-1.32-1.63-.92-1.18-1.83-2.38-2.73-3.58a67.44,67.44,0,0,0,12.61-11.12c.29-.33.56-.67.84-1C249.56,397.81,250.81,399,252.06,400.11ZM236.72,413.2c-2-.75-4-1.36-5.77-1.89.4-.24.81-.48,1.2-.73.58-.36,1.14-.73,1.71-1.1C234.79,410.73,235.76,412,236.72,413.2ZM249,385c.32,2.14.68,4.59,1.21,7.31-.65.93-1.32,1.85-2,2.74q-4.87-4.26-9.95-8.29a50.74,50.74,0,0,0,4.37-6.19C244.62,381.86,246.76,383.36,249,385Zm-7.39-5.07a50,50,0,0,1-4.32,6.09q-4.59-3.6-9.35-7a42.58,42.58,0,0,0,3.43-4.6A69.52,69.52,0,0,1,241.57,379.88Zm-11.37-5.95a40.63,40.63,0,0,1-3.26,4.34c-1.72-1.22-3.44-2.42-5.18-3.6L219,372.81C222,371.78,225.81,372.26,230.2,373.93Zm-14.47.79a9.13,9.13,0,0,1,2-1.36c2.89,1.84,5.71,3.8,8.49,5.8a47,47,0,0,1-7,6.28c-1-1.74-2.06-3.49-3.06-5.25-.66-1.17-1.32-2.35-2-3.54A9.55,9.55,0,0,1,215.73,374.72Zm-2.26,3.21c1.51,2.77,3.1,5.51,4.73,8.21a49.06,49.06,0,0,1-4.48,2.83C212.42,384.56,212.25,380.85,213.47,377.93Zm.6,12.19a50.24,50.24,0,0,0,4.74-3q1.77,2.89,3.59,5.75c.88,1.37,1.77,2.73,2.67,4.1a54.45,54.45,0,0,1-6.27,3.76A68.85,68.85,0,0,1,214.07,390.12Zm5.29,11.68a54.65,54.65,0,0,0,6.36-3.82q3.59,5.37,7.44,10.58c-1.23.81-2.5,1.58-3.78,2.31-2-.54-3.84-1-5.51-1.37C222.21,406.82,220.69,404.25,219.36,401.8Z"/><path class="cls-6" d="M252.06,400.11c-1.25-1.16-2.5-2.3-3.78-3.43-.28.34-.55.68-.84,1a67.44,67.44,0,0,1-12.61,11.12c.9,1.2,1.81,2.4,2.73,3.58.43.55.89,1.09,1.32,1.63,2.11.84,4.31,1.81,6.62,3a80.39,80.39,0,0,0,9.49-8.48A83.46,83.46,0,0,1,252.06,400.11Z"/><path class="cls-6" d="M249,395.77l2.44,2.2c-.38-1.45-.7-2.83-1-4.15C250,394.47,249.54,395.14,249,395.77Z"/><path class="cls-6" d="M227.26,396.89l-.59.42q3.62,5.38,7.48,10.58a65.14,65.14,0,0,0,13.26-12q-4.89-4.26-10-8.29A59.23,59.23,0,0,1,227.26,396.89Z"/><path class="cls-6" d="M255.48,409.7a82.56,82.56,0,0,1-8.85,7.86A97.64,97.64,0,0,1,260,425.94c.93-.8,1.84-1.61,2.74-2.45A98.22,98.22,0,0,1,255.48,409.7Z"/><path class="cls-6" d="M242.56,380.52a50.74,50.74,0,0,1-4.37,6.19q5.07,4,9.95,8.29c.71-.89,1.38-1.81,2-2.74-.53-2.72-.89-5.17-1.21-7.31C246.76,383.36,244.62,381.86,242.56,380.52Z"/><path class="cls-6" d="M225.72,398a54.65,54.65,0,0,1-6.36,3.82c1.33,2.45,2.85,5,4.51,7.7,1.67.39,3.51.83,5.51,1.37,1.28-.73,2.55-1.5,3.78-2.31Q229.32,403.35,225.72,398Z"/><path class="cls-6" d="M232.15,410.58c-.39.25-.8.49-1.2.73,1.81.53,3.73,1.14,5.77,1.89-1-1.24-1.93-2.47-2.86-3.72C233.29,409.85,232.73,410.22,232.15,410.58Z"/><path class="cls-6" d="M237.25,386a50,50,0,0,0,4.32-6.09,69.52,69.52,0,0,0-10.24-5.51,42.58,42.58,0,0,1-3.43,4.6Q232.65,382.38,237.25,386Z"/><path class="cls-6" d="M222.4,392.9q-1.82-2.85-3.59-5.75a50.24,50.24,0,0,1-4.74,3,68.85,68.85,0,0,0,4.73,10.64,54.45,54.45,0,0,0,6.27-3.76C224.17,395.63,223.28,394.27,222.4,392.9Z"/><path class="cls-6" d="M219.17,385.44a47,47,0,0,0,7-6.28c-2.78-2-5.6-4-8.49-5.8a9.13,9.13,0,0,0-2,1.36,9.55,9.55,0,0,0-1.58,1.93c.64,1.19,1.3,2.37,2,3.54C217.11,382,218.14,383.7,219.17,385.44Z"/><path class="cls-6" d="M226.94,378.27a40.63,40.63,0,0,0,3.26-4.34c-4.39-1.67-8.18-2.15-11.23-1.12l2.79,1.86C223.5,375.85,225.22,377.05,226.94,378.27Z"/><path class="cls-6" d="M236.48,386.88c-1.35-1.06-2.72-2.11-4.09-3.15q-2.61-2-5.25-3.88a48.08,48.08,0,0,1-7.36,6.6q3,5,6.24,9.88c.15-.1.3-.2.44-.31A57.24,57.24,0,0,0,236.48,386.88Z"/><path class="cls-6" d="M213.47,377.93c-1.22,2.92-1.05,6.63.25,11a49.06,49.06,0,0,0,4.48-2.83C216.57,383.44,215,380.7,213.47,377.93Z"/><path class="cls-6" d="M263.34,424.49c-.79.73-1.59,1.45-2.41,2.15A130.15,130.15,0,0,1,271,435.2,128.75,128.75,0,0,1,263.34,424.49Z"/><path class="cls-6" d="M166.4,374.58H121.69a13.53,13.53,0,0,0-13.53,13.52v11a5.67,5.67,0,0,0,5.67,5.67v34.06a9.32,9.32,0,0,0,9.32,9.32h41.79a9.32,9.32,0,0,0,9.32-9.32V404.8a5.67,5.67,0,0,0,5.67-5.67v-11A13.53,13.53,0,0,0,166.4,374.58Zm-48,21.25a1.83,1.83,0,1,1,1.83-1.83A1.83,1.83,0,0,1,118.39,395.83Zm12.83-7a1.83,1.83,0,1,1,1.83-1.83A1.83,1.83,0,0,1,131.22,388.87Zm12.83,7a1.83,1.83,0,1,1,1.83-1.83A1.83,1.83,0,0,1,144.05,395.83ZM156.87,389a1.84,1.84,0,1,1,1.84-1.84A1.83,1.83,0,0,1,156.87,389Zm12.83,6.85a1.83,1.83,0,1,1,1.84-1.83A1.83,1.83,0,0,1,169.7,395.83Z"/><path class="cls-6" d="M380.41,416.64a2.44,2.44,0,0,0-.85,3.45c.57,1.09,2.22,1.36,3.69.59s2.19-2.27,1.62-3.37S381.88,415.87,380.41,416.64Z"/><path class="cls-6" d="M365,409a1.3,1.3,0,0,0-.45,1.83,1.66,1.66,0,0,0,2.82-1.47C367.05,408.74,365.76,408.56,365,409Z"/><path class="cls-6" d="M353.12,417.6a1.28,1.28,0,0,0-.46,1.82,1.66,1.66,0,0,0,2.82-1.47C355.18,417.37,353.89,417.19,353.12,417.6Z"/><path class="cls-6" d="M362.08,423.45a2.08,2.08,0,0,0-.73,3c.49.95,1.91,1.17,3.17.51s1.89-2,1.4-2.9S363.34,422.79,362.08,423.45Z"/><path class="cls-7" d="M341.53,329.11a9.23,9.23,0,1,0,17.63,3.8,9.11,9.11,0,0,0-.84-3.8,9.19,9.19,0,0,0,8.59-12.53,9.14,9.14,0,0,0,8.42-12.37,9.19,9.19,0,0,0,.26-18.22,9.44,9.44,0,0,0,.33-2.34,9.22,9.22,0,0,0-17.61-3.82,9.26,9.26,0,0,0-4.95-4.74v-7.41h4.95a3.28,3.28,0,0,0,0-6.56H341.55a3.28,3.28,0,0,0,0,6.56h4.95v7.41a9.26,9.26,0,0,0-4.95,4.74,9.2,9.2,0,0,0-17.31,6.06,3,3,0,0,0-.31,0,9.23,9.23,0,1,0,0,18.46c.2,0,.39-.05.58-.06A9.12,9.12,0,0,0,333,316.58a9.05,9.05,0,0,0-.63,3.3A9.23,9.23,0,0,0,341.53,329.11Z"/><path class="cls-6" d="M370.18,277.63a3,3,0,1,0,3,3A3,3,0,0,0,370.18,277.63Z"/><path class="cls-6" d="M377.23,288.81a3,3,0,1,0,3,3A3,3,0,0,0,377.23,288.81Z"/><path class="cls-6" d="M359.16,288.81H359a3,3,0,1,0,3.13,3,1,1,0,0,0,0-.17A3,3,0,0,0,359.16,288.81Z"/><path class="cls-6" d="M353.36,277.63a3,3,0,0,0-2.78,1.87,2.9,2.9,0,0,0-.23,1.14,3,3,0,1,0,3-3Z"/><path class="cls-6" d="M335.32,277.63a3,3,0,1,0,3,3A3,3,0,0,0,335.32,277.63Z"/><path class="cls-8" d="M280.82,150.18a50.3,50.3,0,0,0-12.79-.69,19.61,19.61,0,0,0-17.73,23.15c1.72,9.07,6.06,19.63,16.24,27.45,15,11.54,38.86,14.08,52.3,14.54a42.72,42.72,0,0,0,1.41,15.46,4,4,0,0,0,7.9-.44l2.24-14,12.21-4.82A4,4,0,0,0,341,203a54.84,54.84,0,0,0-14.47,2.48c-3.82-12.76-12.46-35.66-27.72-47.38a41.45,41.45,0,0,0-18-7.92"/><path class="cls-6" d="M259.68,184.63s3.85,20.31,43.4,24.58C303.08,209.21,273.09,205.39,259.68,184.63Z"/><path class="cls-6" d="M265.63,160.71a2.21,2.21,0,1,0-3.1.4A2.21,2.21,0,0,0,265.63,160.71Z"/><path class="cls-6" d="M280.82,150.14v0h0A.08.08,0,0,1,280.82,150.14Z"/><path class="cls-6" d="M268.8,178s18-6.75,12-27.77h0A28.26,28.26,0,0,1,268.8,178Z"/><path class="cls-7" d="M128.34,301.61a16.15,16.15,0,0,0,5.88-1.76,16.13,16.13,0,0,0,15.89,14.71h.19a16.15,16.15,0,0,0,5.58-1,16,16,0,0,0,.84,2,16.33,16.33,0,0,0,3.72,4.95A16.12,16.12,0,0,0,182.51,297c0-.47.07-.95.07-1.43A16.13,16.13,0,0,0,159,281.3a16.1,16.1,0,0,0-26.92-11,16.14,16.14,0,1,0-5.32,31.37C127.26,301.71,127.81,301.66,128.34,301.61Z"/><path class="cls-9" d="M156.72,315.56a16,16,0,0,1-.84-2,16.15,16.15,0,0,1-5.58,1h-.19l-2.7,3.36Z"/><path class="cls-9" d="M138.36,309.29a16.07,16.07,0,0,1-2.68-4.06l.4,7.64Z"/><path class="cls-6" d="M156.72,315.56l-9.31,2.36,2.7-3.36a16.07,16.07,0,0,1-11.75-5.27l-2.28,3.58-.4-7.64a16,16,0,0,1-1.46-5.38,16.15,16.15,0,0,1-5.88,1.76l1.3,20.75L126.08,328a5.34,5.34,0,0,0,.7,6.68,8.77,8.77,0,0,0,5,2.43,5.39,5.39,0,0,0,5.1-2.15l7.5-10.21,16.05-4.19A16.33,16.33,0,0,1,156.72,315.56Z"/><path class="cls-6" d="M147.41,287.2a3,3,0,1,0-3-3A3,3,0,0,0,147.41,287.2Z"/><path class="cls-6" d="M123.24,281.15a3,3,0,1,0,3,3A3,3,0,0,0,123.24,281.15Z"/><path class="cls-7" d="M244.86,344.27a14.52,14.52,0,0,0,9.1-2.91c23.55,5.44,25.54-32.65,26.22-43.13a31.55,31.55,0,0,0-.24-6.87c-2.7-17.68-25.12-13.42-32.7-11.45,0,.57-.06,1.15-.08,1.75a14.74,14.74,0,0,0,1.74-.15c.31,0,2.09-.35,2.28.93.1.7-.24,2.53-6.26,2.53,0,0-5.53-.3-5.56-3,0-1.35,1.57-1.46,2.17-1.2a12.64,12.64,0,0,0,1.2.45c0-.57-.1-1.17-.14-1.84-14.3-8.1-23.52.62-27,5.62-3.21,4.65-3.94,13.84-3.65,19.48,2,38.36,12.46,39.34,23.78,36.89A14.52,14.52,0,0,0,244.86,344.27Z"/><path class="cls-6" d="M227.86,286.24c-6.16.42-4.73,18.05-4.73,18.05,2.45,35.29,12.27,34,12.27,34-4.37-5.61-7.62-21.14-7.62-21.14C223.53,298,227.86,286.24,227.86,286.24Z"/><path class="cls-6" d="M267.58,304.43s1.73-17.6-4.42-18.12c0,0,4.12,11.85-.45,30.86,0,0-3.51,15.48-8,21C254.74,338.19,264.53,339.67,267.58,304.43Z"/><path class="cls-6" d="M251.19,265.22c1.76-3.62.26-6.32-2.32-6.23A4.69,4.69,0,0,0,245,261.3c-2.64,4.57-2.68,12.71-2.36,18.05,0,.67.09,1.27.14,1.84a12.64,12.64,0,0,1-1.2-.45c-.6-.26-2.19-.15-2.17,1.2,0,2.73,5.56,3,5.56,3,6,0,6.36-1.83,6.26-2.53-.19-1.28-2-1-2.28-.93a14.74,14.74,0,0,1-1.74.15c0-.6,0-1.18.08-1.75C247.82,270.68,251.19,265.22,251.19,265.22Z"/><rect class="cls-10" x="235.96" y="68.6" width="28.09" height="58.24" rx="8.35"/><rect class="cls-10" x="245.9" y="58.64" width="8.2" height="19.57"/><rect class="cls-6" x="244.91" y="45.66" width="10.19" height="12.99" rx="1.26"/></g><g id="圖層_19" data-name="圖層 19"><path class="cls-6" d="M241.6,204.82c0,17.25-17,20.3-39.58,20.3s-42.3-3.05-42.3-20.3c0-10,2.22-22.64,15.71-24.59,7.7-1.11,15.71-6.63,25.23-6.63C223.27,173.6,241.6,187.58,241.6,204.82Z"/><ellipse class="cls-8" cx="200.66" cy="193.23" rx="17.45" ry="14.59"/><path class="cls-6" d="M193.2,185.53c-2.54,2.87-4.8,7.32-2.19,12.88.54,1.15-.46,3.37-1.95,1.46-2.72-3.49-3.67-11.51,2.63-16C193.07,182.88,195.25,183.21,193.2,185.53Z"/></g></svg>
