<svg id="a" height="512" viewBox="0 0 60 60" width="512" xmlns="http://www.w3.org/2000/svg"><path d="m9 39v18.2c0 .84.97 1.3 1.62.78l2.76-2.2c.36-.29.88-.29 1.24 0l3.76 3c.36.29.88.29 1.24 0l3.76-3c.36-.29.88-.29 1.24 0l3.76 3c.36.29.88.29 1.24 0l3.76-3c.36-.29.88-.29 1.24 0l3.76 3c.36.29.88.29 1.24 0l3.76-3c.36-.29.88-.29 1.24 0l2.76 2.2c.65.52 1.62.06 1.62-.78v-52.2c0-2.21-1.79-4-4-4h-40z" fill="#f9eab0"/><path d="m5 1c2.208 0 4 1.792 4 4v34h-6c-1.104 0-2-.896-2-2v-32c0-2.208 1.792-4 4-4z" fill="#f3d55b"/><g fill="#3f5c6c"><path d="m35 11h-20c-.553 0-1-.448-1-1s.447-1 1-1h20c.553 0 1 .448 1 1s-.447 1-1 1z"/><path d="m35 17h-20c-.553 0-1-.448-1-1s.447-1 1-1h20c.553 0 1 .448 1 1s-.447 1-1 1z"/><path d="m35 23h-9c-.553 0-1-.448-1-1s.447-1 1-1h9c.553 0 1 .448 1 1s-.447 1-1 1z"/><path d="m22 23h-7c-.553 0-1-.448-1-1s.447-1 1-1h7c.553 0 1 .448 1 1s-.447 1-1 1z"/><path d="m40 29h-25c-.553 0-1-.448-1-1s.447-1 1-1h25c.553 0 1 .448 1 1s-.447 1-1 1z"/></g><path d="m40 40c-1.103 0-2-.897-2-2s.897-2 2-2 2 .897 2 2c0 .552.447 1 1 1s1-.448 1-1c0-1.858-1.279-3.411-3-3.858v-.142c0-.552-.447-1-1-1s-1 .448-1 1v.142c-1.721.447-3 2-3 3.858 0 2.206 1.794 4 4 4 1.103 0 2 .897 2 2s-.897 2-2 2-2-.897-2-2c0-.552-.447-1-1-1s-1 .448-1 1c0 1.858 1.279 3.411 3 3.858v.142c0 .552.447 1 1 1s1-.448 1-1v-.142c1.721-.447 3-2 3-3.858 0-2.206-1.794-4-4-4z" fill="#24ae5f"/><path d="m30 35h-15c-.553 0-1-.448-1-1s.447-1 1-1h15c.553 0 1 .448 1 1s-.447 1-1 1z" fill="#3f5c6c"/><path d="m30 41h-15c-.553 0-1-.448-1-1s.447-1 1-1h15c.553 0 1 .448 1 1s-.447 1-1 1z" fill="#3f5c6c"/><path d="m30 47h-15c-.553 0-1-.448-1-1s.447-1 1-1h15c.553 0 1 .448 1 1s-.447 1-1 1z" fill="#3f5c6c"/><circle cx="49" cy="16" fill="#24ae5f" r="10"/><path d="m47 22c-.265 0-.519-.105-.707-.293l-3-3c-.391-.391-.391-1.023 0-1.414s1.023-.391 1.414 0l2.199 2.199 6.305-8.105c.34-.435.967-.514 1.403-.176.436.339.515.968.175 1.403l-7 9c-.176.227-.44.367-.727.384-.021.001-.042.002-.062.002z" fill="#ecf0f1"/></svg>