<svg id="Capa_1" enable-background="new 0 0 512 512" viewBox="0 0 512 512" xmlns="http://www.w3.org/2000/svg"><g><path d="m352.763 368.351h-177.792c-14.661 0-26.546-11.885-26.546-26.546v-138.371l115.442-16.492 115.442 16.492v138.371c0 14.661-11.885 26.546-26.546 26.546z" fill="#f3f0f3"/><path d="m358.705 200.491v120.711c0 14.661-11.885 26.546-26.546 26.546h-177.791c-1.848 0-3.652-.189-5.394-.549 2.492 12.075 13.185 21.152 25.997 21.152h177.792c14.661 0 26.546-11.885 26.546-26.546v-138.371z" fill="#e2dee2"/><path d="m256.159 276.951-17.692-17.691c-2.073-2.073-5.435-2.073-7.508 0l-15.814 15.814c-2.073 2.073-2.073 5.435 0 7.508l31.629 31.629c6.22 6.22 16.305 6.22 22.525 0l43.29-43.29c2.073-2.073 2.073-5.435 0-7.508l-15.814-15.814c-2.073-2.073-5.435-2.073-7.508 0l-29.353 29.353c-1.037 1.036-2.718 1.036-3.755-.001z" fill="#91deb6"/><path d="m263.867 57.494c-93.806 0-172.413 65.068-193.154 152.531-.332 1.398.523 2.808 1.911 3.18l18.277 4.897c1.912.512 2.616 2.858 1.303 4.339l-63.699 71.834c-2.912 3.283-8.322 1.834-9.202-2.466l-19.247-94.059c-.397-1.939 1.386-3.618 3.298-3.106l16.162 4.331c1.446.387 2.915-.497 3.27-1.951 26.467-108.569 124.363-189.157 241.081-189.157 137.04 0 248.133 111.093 248.133 248.133s-111.093 248.133-248.133 248.133c-105.294 0-195.27-65.584-231.306-158.13-1.086-2.791.327-5.933 3.141-6.957l36.65-13.339c2.707-.985 5.707.362 6.763 3.043 29.021 73.643 100.801 125.758 184.752 125.758 109.632 0 198.506-88.874 198.506-198.506s-88.874-198.508-198.506-198.508z" fill="#7bacdf"/><path d="m429.808 71.516c39.568 43.961 63.649 102.139 63.649 165.941 0 137.04-111.093 248.133-248.133 248.133-63.803 0-121.981-24.081-165.942-63.649 45.42 50.463 111.247 82.193 184.485 82.193 137.04-.001 248.133-111.094 248.133-248.134 0-73.238-31.73-139.065-82.192-184.484z" fill="#5f99d7"/><path d="m352.763 153.959h-177.792c-14.661 0-26.546 11.885-26.546 26.546v22.929h230.884v-22.929c0-14.661-11.885-26.546-26.546-26.546z" fill="#fd8087"/><path d="m358.157 154.508c.359 1.742.549 3.546.549 5.394v43.533h20.604v-22.929c-.001-12.814-9.079-23.506-21.153-25.998z" fill="#fe646f"/><g><g><path d="m189.654 183.328c-4.267 0-7.726-3.459-7.726-7.726v-32.983c0-4.267 3.459-7.726 7.726-7.726s7.726 3.459 7.726 7.726v32.983c.001 4.267-3.458 7.726-7.726 7.726z" fill="#d5e3f4"/></g></g><g><g><path d="m239.13 183.328c-4.267 0-7.726-3.459-7.726-7.726v-32.983c0-4.267 3.459-7.726 7.726-7.726s7.726 3.459 7.726 7.726v32.983c0 4.267-3.459 7.726-7.726 7.726z" fill="#d5e3f4"/></g></g><g><g><path d="m288.605 183.328c-4.267 0-7.726-3.459-7.726-7.726v-32.983c0-4.267 3.459-7.726 7.726-7.726s7.726 3.459 7.726 7.726v32.983c0 4.267-3.459 7.726-7.726 7.726z" fill="#d5e3f4"/></g></g><g><g><path d="m338.079 183.328c-4.267 0-7.726-3.459-7.726-7.726v-32.983c0-4.267 3.459-7.726 7.726-7.726s7.726 3.459 7.726 7.726v32.983c.001 4.267-3.458 7.726-7.726 7.726z" fill="#d5e3f4"/></g></g></g><g/><g/><g/><g/><g/><g/><g/><g/><g/><g/><g/><g/><g/><g/><g/></svg>