<svg height="512" viewBox="0 0 64 64" width="512" xmlns="http://www.w3.org/2000/svg"><g id="Training_Program" data-name="Training Program"><rect fill="#dcf1ff" height="58" rx="5" width="50" x="7" y="6"/><path d="m52 10h-40a1 1 0 0 0 -1 1v39l10 10h31a1 1 0 0 0 1-1v-48a1 1 0 0 0 -1-1z" fill="#ffb74d"/><path d="m20 21h-2a3 3 0 0 0 0 6h2a.99974.99974 0 0 0 1-1v-4a.99974.99974 0 0 0 -1-1z" fill="#4a4a51"/><path d="m46 21h-2a.99974.99974 0 0 0 -1 1v4a.99974.99974 0 0 0 1 1h2a3 3 0 0 0 0-6z" fill="#4a4a51"/><rect fill="#68686d" height="6" rx="1" width="10" x="27" y="21"/><path d="m47 4h-5.38184l-1.72363-3.44727a.99985.99985 0 0 0 -.89453-.55273h-14a.99985.99985 0 0 0 -.89453.55273l-1.72363 3.44727h-5.38184a.99974.99974 0 0 0 -1 1v8a.99974.99974 0 0 0 1 1h30a.99974.99974 0 0 0 1-1v-8a.99974.99974 0 0 0 -1-1z" fill="#c5e1fc"/><path d="m36 6h-8a1 1 0 0 1 0-2h8a1 1 0 0 1 0 2z" fill="#9fc5f4"/><g fill="#f49537"><path d="m43 44h-27a1 1 0 0 1 0-2h27a1 1 0 0 1 0 2z"/><path d="m43 40h-27a1 1 0 0 1 0-2h27a1 1 0 0 1 0 2z"/><path d="m48 36h-32a1 1 0 0 1 0-2h32a1 1 0 0 1 0 2z"/><path d="m43 48h-27a1 1 0 0 1 0-2h27a1 1 0 0 1 0 2z"/><path d="m43 52h-19a1 1 0 0 1 0-2h19a1 1 0 0 1 0 2z"/><path d="m43 56h-19a1 1 0 0 1 0-2h19a1 1 0 0 1 0 2z"/><path d="m48 48h-2a1 1 0 0 1 0-2h2a1 1 0 0 1 0 2z"/><path d="m48 52h-2a1 1 0 0 1 0-2h2a1 1 0 0 1 0 2z"/><path d="m48 40h-2a1 1 0 0 1 0-2h2a1 1 0 0 1 0 2z"/><path d="m48 44h-2a1 1 0 0 1 0-2h2a1 1 0 0 1 0 2z"/><path d="m48 56h-2a1 1 0 0 1 0-2h2a1 1 0 0 1 0 2z"/><path d="m20 50h-9l10 10v-9a1 1 0 0 0 -1-1z"/></g><path d="m24 18h-3a2.00229 2.00229 0 0 0 -2 2v8a2.00229 2.00229 0 0 0 2 2h3a.99974.99974 0 0 0 1-1v-10a.99974.99974 0 0 0 -1-1z" fill="#68686d"/><path d="m43 18h-3a.99974.99974 0 0 0 -1 1v10a.99974.99974 0 0 0 1 1h3a2.00229 2.00229 0 0 0 2-2v-8a2.00229 2.00229 0 0 0 -2-2z" fill="#68686d"/><rect fill="#898890" height="16" rx="2" width="6" x="23" y="16"/><rect fill="#898890" height="16" rx="2" width="6" x="35" y="16"/></g></svg>