<svg id="Capa_1" enable-background="new 0 0 510 510" height="512" viewBox="0 0 510 510" width="512" xmlns="http://www.w3.org/2000/svg" xmlns:xlink="http://www.w3.org/1999/xlink"><linearGradient id="lg1"><stop offset="0" stop-color="#f89580"/><stop offset="1" stop-color="#c4573a"/></linearGradient><linearGradient id="SVGID_1_" gradientTransform="matrix(.707 .707 -.707 .707 -2903.198 -973.07)" gradientUnits="userSpaceOnUse" x1="3086.771" x2="3145.301" xlink:href="#lg1" y1="-1507.827" y2="-1507.827"/><linearGradient id="SVGID_00000008143963677380511360000006397814063444674979_" gradientTransform="matrix(.707 .707 -.707 .707 -2903.198 -973.07)" gradientUnits="userSpaceOnUse" x1="3148.435" x2="3038.314" xlink:href="#lg1" y1="-1386.156" y2="-1433.141"/><linearGradient id="SVGID_00000057146128946328954000000003003752568615706546_" gradientTransform="matrix(.707 .707 -.707 .707 -2903.198 -973.07)" gradientUnits="userSpaceOnUse" x1="3129.779" x2="3168.688" y1="-1392.496" y2="-1371.94"><stop offset="0" stop-color="#c4573a" stop-opacity="0"/><stop offset=".2429" stop-color="#bf5539" stop-opacity=".243"/><stop offset=".5221" stop-color="#b15036" stop-opacity=".522"/><stop offset=".818" stop-color="#9a4631" stop-opacity=".818"/><stop offset="1" stop-color="#883f2e"/></linearGradient><linearGradient id="lg2"><stop offset="0" stop-color="#fffaf8"/><stop offset="1" stop-color="#ffdfcf"/></linearGradient><linearGradient id="SVGID_00000054977840281813004450000010485412617158606508_" gradientUnits="userSpaceOnUse" x1="70.667" x2="168.656" xlink:href="#lg2" y1="215.574" y2="313.564"/><linearGradient id="SVGID_00000173875960417448876240000015565543014268763527_" gradientUnits="userSpaceOnUse" x1="148.333" x2="69.13" xlink:href="#lg2" y1="293.24" y2="214.038"/><linearGradient id="lg3"><stop offset="0" stop-color="#ffa78f" stop-opacity="0"/><stop offset=".9385" stop-color="#ffa78f" stop-opacity=".939"/><stop offset="1" stop-color="#ffa78f"/></linearGradient><linearGradient id="SVGID_00000153669967338187743080000012350925026333449149_" gradientUnits="userSpaceOnUse" x1="86.682" x2="120.015" xlink:href="#lg3" y1="234.153" y2="262.82"/><linearGradient id="SVGID_00000086655243793031667290000012078517286075161525_" gradientUnits="userSpaceOnUse" x1="367.101" x2="455.291" xlink:href="#lg2" y1="237.008" y2="325.198"/><linearGradient id="SVGID_00000047743482264378798780000010653632010067533717_" gradientUnits="userSpaceOnUse" x1="437" x2="365.717" xlink:href="#lg2" y1="306.907" y2="235.624"/><linearGradient id="SVGID_00000128483246909874491960000002210072641336270489_" gradientUnits="userSpaceOnUse" x1="408.829" x2="398.829" xlink:href="#lg3" y1="226.757" y2="264.757"/><linearGradient id="lg4"><stop offset="0" stop-color="#5a5a5a"/><stop offset="1" stop-color="#444"/></linearGradient><linearGradient id="SVGID_00000069357053491472733890000004277824831177712318_" gradientTransform="matrix(.707 .707 -.707 .707 177.821 -258.431)" gradientUnits="userSpaceOnUse" x1="451.456" x2="470.398" xlink:href="#lg4" y1="264.297" y2="283.24"/><linearGradient id="lg5"><stop offset="0" stop-color="#433f43" stop-opacity="0"/><stop offset=".3174" stop-color="#3b373b" stop-opacity=".317"/><stop offset=".8224" stop-color="#242324" stop-opacity=".822"/><stop offset="1" stop-color="#1a1a1a"/></linearGradient><linearGradient id="SVGID_00000180353983746732186590000014351052209416958896_" gradientTransform="matrix(.707 .707 -.707 .707 177.821 -258.431)" gradientUnits="userSpaceOnUse" x1="459.507" x2="459.507" xlink:href="#lg5" y1="273.768" y2="295.712"/><linearGradient id="SVGID_00000114786719290076884790000008769739240969674667_" gradientUnits="userSpaceOnUse" x1="310.274" x2="313.274" xlink:href="#lg5" y1="259.568" y2="272.902"/><linearGradient id="lg6"><stop offset="0" stop-color="#a2e62e"/><stop offset=".1231" stop-color="#97de30"/><stop offset=".3395" stop-color="#79cb36"/><stop offset=".6234" stop-color="#4aab3f"/><stop offset=".9609" stop-color="#09804c"/><stop offset="1" stop-color="#017b4e"/></linearGradient><linearGradient id="SVGID_00000059287715892316352700000012820600902849048735_" gradientTransform="matrix(-1 0 0 1 825.291 0)" gradientUnits="userSpaceOnUse" x1="513.835" x2="518.502" xlink:href="#lg6" y1="236.028" y2="370.028"/><linearGradient id="lg7"><stop offset="0" stop-color="#026841" stop-opacity="0"/><stop offset=".3243" stop-color="#046842" stop-opacity=".324"/><stop offset=".5509" stop-color="#0e6546" stop-opacity=".551"/><stop offset=".7476" stop-color="#1d614c" stop-opacity=".748"/><stop offset=".9263" stop-color="#335c54" stop-opacity=".926"/><stop offset="1" stop-color="#3e5959"/></linearGradient><linearGradient id="SVGID_00000173846596313600478700000007160774969565813673_" gradientTransform="matrix(-1 0 0 1 825.291 0)" gradientUnits="userSpaceOnUse" x1="549.627" x2="517.96" xlink:href="#lg7" y1="325.05" y2="400.717"/><linearGradient id="SVGID_00000142854506778980644340000001443964555766221469_" gradientTransform="matrix(-1 0 0 1 825.291 0)" gradientUnits="userSpaceOnUse" x1="486.575" x2="540.575" xlink:href="#lg7" y1="286.984" y2="415.984"/><linearGradient id="SVGID_00000023967670342286511130000008909438044989171618_" gradientTransform="matrix(-1 0 0 1 825.291 0)" gradientUnits="userSpaceOnUse" x1="472.713" x2="523.713" xlink:href="#lg7" y1="264.975" y2="373.975"/><linearGradient id="SVGID_00000139257051217049475400000007918607612259482024_" gradientTransform="matrix(-1 0 0 1 825.291 0)" gradientUnits="userSpaceOnUse" x1="463.363" x2="495.029" xlink:href="#lg7" y1="254.936" y2="323.603"/><linearGradient id="SVGID_00000009587186653393662030000003154740793500954004_" gradientUnits="userSpaceOnUse" x1="184.169" x2="317.51" xlink:href="#lg2" y1="209.621" y2="342.962"/><linearGradient id="SVGID_00000080905333194861148240000005341499675693694097_" gradientUnits="userSpaceOnUse" x1="225.907" x2="225.907" xlink:href="#lg3" y1="256.764" y2="330.235"/><linearGradient id="SVGID_00000150067121778964326180000010104791459500172434_" gradientUnits="userSpaceOnUse" x1="224.793" x2="278.311" xlink:href="#lg3" y1="250.244" y2="303.762"/><linearGradient id="lg8"><stop offset="0" stop-color="#fef0ae"/><stop offset="1" stop-color="#ffbf51"/></linearGradient><linearGradient id="SVGID_00000031899850703406484710000007475401307162430337_" gradientUnits="userSpaceOnUse" x1="207.45" x2="250.874" xlink:href="#lg8" y1="247.849" y2="291.274"/><linearGradient id="lg9"><stop offset="0" stop-color="#fea613" stop-opacity="0"/><stop offset=".1766" stop-color="#fda116" stop-opacity=".177"/><stop offset=".3939" stop-color="#fa921d" stop-opacity=".394"/><stop offset=".6325" stop-color="#f4792a" stop-opacity=".633"/><stop offset=".8846" stop-color="#ed573b" stop-opacity=".885"/><stop offset="1" stop-color="#e94444"/></linearGradient><linearGradient id="SVGID_00000155118882505947372080000013962695797921672339_" gradientUnits="userSpaceOnUse" x1="225.907" x2="225.907" xlink:href="#lg9" y1="266.911" y2="323.103"/><linearGradient id="SVGID_00000128455351536401945260000000849838450615278761_" gradientTransform="matrix(.707 -.707 .707 .707 2612.163 -1010.651)" gradientUnits="userSpaceOnUse" x1="-2590.283" x2="-2590.283" xlink:href="#lg9" y1="-783.788" y2="-724.639"/><linearGradient id="SVGID_00000142897106267894714240000013984568533763006618_" gradientTransform="matrix(-.707 .707 .707 .707 110.503 -258.431)" gradientUnits="userSpaceOnUse" x1="359.761" x2="378.703" xlink:href="#lg4" y1="353.164" y2="372.106"/><linearGradient id="SVGID_00000114785405712005165380000005801346387471208868_" gradientTransform="matrix(-.707 .707 .707 .707 110.503 -258.431)" gradientUnits="userSpaceOnUse" x1="367.812" x2="367.812" xlink:href="#lg5" y1="362.635" y2="384.578"/><linearGradient id="SVGID_00000024700501602333227080000012679497546575129769_" gradientTransform="matrix(-1 0 0 1 288.324 0)" gradientUnits="userSpaceOnUse" x1="182.598" x2="185.598" xlink:href="#lg5" y1="257.568" y2="270.902"/><linearGradient id="lg10"><stop offset="0" stop-color="#ffa1ae"/><stop offset="1" stop-color="#e41f2d"/></linearGradient><linearGradient id="SVGID_00000021116592511432547280000007226398307983788723_" gradientUnits="userSpaceOnUse" x1="121.457" x2="145.902" xlink:href="#lg10" y1="251.451" y2="275.896"/><linearGradient id="lg11"><stop offset="0" stop-color="#c41926" stop-opacity="0"/><stop offset=".1758" stop-color="#c01a27" stop-opacity=".176"/><stop offset=".3761" stop-color="#b21e29" stop-opacity=".376"/><stop offset=".5886" stop-color="#9b242c" stop-opacity=".589"/><stop offset=".8079" stop-color="#7b2d31" stop-opacity=".808"/><stop offset="1" stop-color="#593636"/></linearGradient><linearGradient id="SVGID_00000023998157138082865680000013618400152586393006_" gradientTransform="matrix(-.707 -.707 .707 -.707 1.947 494.448)" gradientUnits="userSpaceOnUse" x1="89.702" x2="55.237" xlink:href="#lg11" y1="256.332" y2="256.332"/><linearGradient id="SVGID_00000122723030812185540470000007628623261823868327_" gradientUnits="userSpaceOnUse" x1="146.725" x2="190.048" xlink:href="#lg6" y1="308.456" y2="402.261"/><linearGradient id="SVGID_00000096053384339964540320000002768274048800401853_" gradientUnits="userSpaceOnUse" x1="209.624" x2="254.831" xlink:href="#lg7" y1="336.342" y2="352.165"/><linearGradient id="SVGID_00000128467843518319201980000012214678536143701397_" gradientUnits="userSpaceOnUse" x1="162.158" x2="159.144" xlink:href="#lg7" y1="365.926" y2="396.818"/><linearGradient id="SVGID_00000132048880258960384460000009808423946804124044_" gradientUnits="userSpaceOnUse" x1="154.877" x2="115.195" xlink:href="#lg7" y1="305.969" y2="313.755"/><linearGradient id="SVGID_00000177464885047669510480000011593651959177761412_" gradientUnits="userSpaceOnUse" x1="185.319" x2="144.381" xlink:href="#lg7" y1="372.963" y2="360.907"/><linearGradient id="SVGID_00000046325093417071063860000002703358974899415472_" gradientUnits="userSpaceOnUse" x1="209.943" x2="209.943" xlink:href="#lg7" y1="327.964" y2="301.834"/><linearGradient id="SVGID_00000158022160281300867200000014266727515212068259_" gradientTransform="matrix(.707 .707 -.707 .707 -.333 -84.514)" gradientUnits="userSpaceOnUse" x1="533.292" x2="576.716" xlink:href="#lg10" y1="-39.608" y2="3.817"/><linearGradient id="SVGID_00000182498672323684219860000013866050461253188519_" gradientTransform="matrix(.707 .707 -.707 .707 252.119 -227.132)" gradientUnits="userSpaceOnUse" x1="408.213" x2="484.963" xlink:href="#lg11" y1="225.792" y2="272.542"/><linearGradient id="SVGID_00000130638041683624310420000013283538865782776210_" gradientTransform="matrix(.707 .707 -.707 .707 252.119 -227.132)" gradientUnits="userSpaceOnUse" x1="455.837" x2="517.337" xlink:href="#lg11" y1="239.49" y2="276.74"/><linearGradient id="SVGID_00000005235927762313996420000010255010390540463292_" gradientTransform="matrix(.707 -.707 .707 .707 208.655 446.741)" gradientUnits="userSpaceOnUse" x1="241.312" x2="255.337" xlink:href="#lg8" y1="1.177" y2="9.671"/><linearGradient id="SVGID_00000091702443501018621810000010044293982649553310_" gradientTransform="matrix(.373 -.928 .928 .373 352.85 557.846)" gradientUnits="userSpaceOnUse" x1="248.408" x2="262.432" xlink:href="#lg8" y1="-81.003" y2="-72.508"/><linearGradient id="SVGID_00000118374278420314726980000013252471672264940222_" gradientTransform="matrix(-.928 .373 .373 .928 1017.591 -106.894)" gradientUnits="userSpaceOnUse" x1="698.057" x2="712.081" xlink:href="#lg8" y1="110.732" y2="119.227"/><linearGradient id="SVGID_00000080183187725865965190000008556518572591447682_" gradientTransform="matrix(.707 -.707 -.707 -.707 224.919 463.004)" gradientUnits="userSpaceOnUse" x1="241.312" x2="255.337" xlink:href="#lg8" y1="-32.459" y2="-23.964"/><linearGradient id="SVGID_00000147195517719654242690000017797851724438719148_" gradientTransform="matrix(.928 -.373 -.373 -.928 113.813 318.809)" gradientUnits="userSpaceOnUse" x1="261.601" x2="275.626" xlink:href="#lg8" y1="-111.943" y2="-103.448"/><linearGradient id="SVGID_00000021099545090326530320000017250315314092496047_" gradientTransform="matrix(-.373 .928 -.928 -.373 778.553 -345.931)" gradientUnits="userSpaceOnUse" x1="711.25" x2="725.275" xlink:href="#lg8" y1="79.792" y2="88.287"/><linearGradient id="SVGID_00000034087280366880120800000006196593211868771249_" gradientTransform="matrix(.707 .707 -.707 .707 -.333 -84.514)" gradientUnits="userSpaceOnUse" x1="551.749" x2="551.749" xlink:href="#lg11" y1="-20.546" y2="35.646"/><linearGradient id="SVGID_00000047049377211968271870000006499778272590402746_" gradientUnits="userSpaceOnUse" x1="404.768" x2="404.768" xlink:href="#lg11" y1="291.279" y2="350.428"/><linearGradient id="SVGID_00000130646268567094845760000003278687484580053658_" gradientUnits="userSpaceOnUse" x1="286.667" x2="384.656" xlink:href="#lg2" y1="332.574" y2="430.564"/><linearGradient id="SVGID_00000142139668513420731130000016434375698154843047_" gradientUnits="userSpaceOnUse" x1="364.333" x2="285.13" xlink:href="#lg2" y1="410.24" y2="331.037"/><linearGradient id="SVGID_00000145757640819393325090000005881211860572212154_" gradientTransform="matrix(-.707 .707 .707 .707 110.503 -258.431)" gradientUnits="userSpaceOnUse" x1="370.368" x2="389.31" xlink:href="#lg4" y1="469.836" y2="488.779"/><linearGradient id="SVGID_00000038378790073259709640000017130066675883999641_" gradientTransform="matrix(-.707 .707 .707 .707 110.503 -258.431)" gradientUnits="userSpaceOnUse" x1="378.419" x2="378.419" xlink:href="#lg5" y1="479.307" y2="501.251"/><linearGradient id="SVGID_00000123438574964372546800000005809361491819491253_" gradientTransform="matrix(-1 0 0 1 288.324 0)" gradientUnits="userSpaceOnUse" x1="107.598" x2="110.598" xlink:href="#lg5" y1="347.568" y2="360.902"/><linearGradient id="SVGID_00000097473517571961139440000010791066367770629564_" gradientUnits="userSpaceOnUse" x1="221.311" x2="264.736" xlink:href="#lg10" y1="320.683" y2="364.107"/><linearGradient id="SVGID_00000176035227956152487540000003886097506981556122_" gradientUnits="userSpaceOnUse" x1="173.896" x2="250.646" xlink:href="#lg11" y1="306.726" y2="353.476"/><linearGradient id="SVGID_00000181083106500986663030000016220645539413150613_" gradientUnits="userSpaceOnUse" x1="221.521" x2="283.021" xlink:href="#lg11" y1="320.423" y2="357.673"/><linearGradient id="SVGID_00000054978738576008715830000004389376013863941778_" gradientTransform="matrix(0 -1 1 0 445.767 507.233)" gradientUnits="userSpaceOnUse" x1="160.378" x2="174.403" xlink:href="#lg8" y1="-233.14" y2="-224.645"/><linearGradient id="SVGID_00000059281024474019791720000011766646440982933406_" gradientTransform="matrix(-.392 -.92 .92 -.392 626.292 483.835)" gradientUnits="userSpaceOnUse" x1="265.868" x2="279.893" xlink:href="#lg8" y1="-328.287" y2="-319.792"/><linearGradient id="SVGID_00000089563022667004250630000003603813497161519512_" gradientTransform="matrix(-.392 .92 .92 .392 626.292 -456.249)" gradientUnits="userSpaceOnUse" x1="864.412" x2="878.437" xlink:href="#lg8" y1="-73.062" y2="-64.567"/><linearGradient id="SVGID_00000183929960424815527490000008892471967420140213_" gradientTransform="matrix(0 -1 -1 0 468.767 507.233)" gradientUnits="userSpaceOnUse" x1="160.378" x2="174.403" xlink:href="#lg8" y1="201.858" y2="210.352"/><linearGradient id="SVGID_00000031901811470200472490000006359917186081393540_" gradientTransform="matrix(.392 -.92 -.92 -.392 288.242 483.835)" gradientUnits="userSpaceOnUse" x1="95.245" x2="109.27" xlink:href="#lg8" y1="71.851" y2="80.346"/><linearGradient id="SVGID_00000016075257650366613980000001019915965037168002_" gradientTransform="matrix(.392 .92 -.92 .392 288.242 -456.249)" gradientUnits="userSpaceOnUse" x1="693.789" x2="707.814" xlink:href="#lg8" y1="327.077" y2="335.571"/><linearGradient id="SVGID_00000173148278484342150650000014363982729666803631_" gradientUnits="userSpaceOnUse" x1="239.768" x2="239.768" xlink:href="#lg11" y1="339.744" y2="395.937"/><linearGradient id="SVGID_00000030485139888150001850000010717540147975593644_" gradientTransform="matrix(.707 -.707 .707 .707 2612.163 -1010.651)" gradientUnits="userSpaceOnUse" x1="-2631.982" x2="-2631.982" xlink:href="#lg11" y1="-722.486" y2="-663.337"/><linearGradient id="SVGID_00000039812988902539342950000014840020874548549030_" gradientTransform="matrix(.707 .707 -.707 .707 219.879 -162.836)" gradientUnits="userSpaceOnUse" x1="355.246" x2="408.989" xlink:href="#lg8" y1="340.559" y2="340.559"/><linearGradient id="SVGID_00000036965048751275865790000006015336054694615200_" gradientTransform="matrix(.707 .707 -.707 .707 219.879 -162.836)" gradientUnits="userSpaceOnUse" x1="397.497" x2="363.033" xlink:href="#lg9" y1="340.558" y2="340.558"/><linearGradient id="SVGID_00000090282956511860198500000012935357774612433555_" gradientTransform="matrix(-.707 .707 -.707 -.707 783.642 5.967)" gradientUnits="userSpaceOnUse" x1="418.81" x2="472.553" xlink:href="#lg8" y1="26.659" y2="26.659"/><linearGradient id="SVGID_00000072971023275108552430000011091836956371363968_" gradientTransform="matrix(-.707 .707 -.707 -.707 783.642 5.967)" gradientUnits="userSpaceOnUse" x1="461.061" x2="426.597" xlink:href="#lg9" y1="26.659" y2="26.659"/><linearGradient id="SVGID_00000087374296540432797910000016993312795305203862_" gradientUnits="userSpaceOnUse" x1="417.186" x2="446.175" xlink:href="#lg6" y1="325.748" y2="388.514"/><linearGradient id="SVGID_00000074423719094599819580000006283554655414242983_" gradientUnits="userSpaceOnUse" x1="459.273" x2="489.522" xlink:href="#lg7" y1="344.406" y2="354.993"/><linearGradient id="SVGID_00000182506323108757141180000008581315116724694935_" gradientUnits="userSpaceOnUse" x1="428.806" x2="428.806" xlink:href="#lg7" y1="350.574" y2="365.922"/><linearGradient id="SVGID_00000018233372493849507130000000145962750625325227_" gradientUnits="userSpaceOnUse" x1="422.641" x2="396.09" xlink:href="#lg7" y1="324.083" y2="329.293"/><linearGradient id="SVGID_00000026154587408959954370000017120039427337467781_" gradientUnits="userSpaceOnUse" x1="443.01" x2="415.618" xlink:href="#lg7" y1="368.91" y2="360.843"/><linearGradient id="SVGID_00000068643277799229090130000007004201692602618242_" gradientUnits="userSpaceOnUse" x1="459.486" x2="459.486" xlink:href="#lg7" y1="338.801" y2="321.317"/><linearGradient id="SVGID_00000123419546395669320720000014771402215185966502_" gradientTransform="matrix(.707 .707 -.707 .707 177.821 -258.431)" gradientUnits="userSpaceOnUse" x1="562.95" x2="581.892" xlink:href="#lg4" y1="280.083" y2="299.025"/><linearGradient id="SVGID_00000162310687896015001950000008749634097724063380_" gradientTransform="matrix(.707 .707 -.707 .707 177.821 -258.431)" gradientUnits="userSpaceOnUse" x1="571.001" x2="571.001" xlink:href="#lg5" y1="289.554" y2="311.497"/><linearGradient id="SVGID_00000011736354839086391950000001504559291380139419_" gradientUnits="userSpaceOnUse" x1="377.95" x2="380.95" xlink:href="#lg5" y1="349.568" y2="362.902"/><linearGradient id="SVGID_00000081622091226409239230000017716510958096462488_" gradientUnits="userSpaceOnUse" x1="80.835" x2="85.502" xlink:href="#lg6" y1="236.028" y2="370.028"/><linearGradient id="SVGID_00000153690201627672934570000000251493501957323193_" gradientUnits="userSpaceOnUse" x1="116.627" x2="84.96" xlink:href="#lg7" y1="325.05" y2="400.717"/><linearGradient id="SVGID_00000078746468459968808610000002359451826279267984_" gradientUnits="userSpaceOnUse" x1="53.575" x2="107.575" xlink:href="#lg7" y1="286.984" y2="415.984"/><linearGradient id="SVGID_00000098219168052521486020000000840908109050833574_" gradientUnits="userSpaceOnUse" x1="39.713" x2="90.713" xlink:href="#lg7" y1="264.975" y2="373.975"/><linearGradient id="SVGID_00000047019725386286790430000000045030215616325054_" gradientUnits="userSpaceOnUse" x1="30.363" x2="62.029" xlink:href="#lg7" y1="254.936" y2="323.603"/><linearGradient id="SVGID_00000055683084785595758160000009109376483227516329_" gradientTransform="matrix(-.707 .707 -.707 -.707 783.642 5.967)" gradientUnits="userSpaceOnUse" x1="710.845" x2="764.588" xlink:href="#lg8" y1="245.155" y2="245.155"/><linearGradient id="SVGID_00000147909171535290417130000015910713328120901308_" gradientTransform="matrix(-.707 .707 -.707 -.707 783.642 5.967)" gradientUnits="userSpaceOnUse" x1="753.096" x2="718.632" xlink:href="#lg9" y1="245.155" y2="245.155"/><linearGradient id="SVGID_00000013182542804553148240000007009826407826832306_" gradientUnits="userSpaceOnUse" x1="254.029" x2="271.563" y1="384.743" y2="492.139"><stop offset="0" stop-color="#eaf9fa"/><stop offset="1" stop-color="#b3dafe"/></linearGradient><linearGradient id="lg12"><stop offset="0" stop-color="#b3dafe" stop-opacity="0"/><stop offset=".1327" stop-color="#acd8fe" stop-opacity=".133"/><stop offset=".3208" stop-color="#9ad1fe" stop-opacity=".321"/><stop offset=".5418" stop-color="#7bc5fe" stop-opacity=".542"/><stop offset=".7859" stop-color="#51b6fe" stop-opacity=".786"/><stop offset="1" stop-color="#26a6fe"/></linearGradient><linearGradient id="SVGID_00000103239683799429708590000011611263666346579851_" gradientUnits="userSpaceOnUse" x1="255" x2="255" xlink:href="#lg12" y1="434.292" y2="476.639"/><linearGradient id="SVGID_00000050640522167313830200000002058677382016068242_" gradientUnits="userSpaceOnUse" x1="425.591" x2="464.422" xlink:href="#lg12" y1="456.008" y2="478.72"/><g><g><path d="m330.421 279.966c-26.241 26.241-65.779 29.251-88.309 6.72-22.531-22.531-19.521-62.068 6.72-88.309 19.833-19.833 47.254-26.393 69.193-18.696 3.539 1.242 7.471.331 10.025-2.418l120.892-136.221c10.506-11.838 28.813-12.384 40.005-1.191 11.192 11.192 10.647 29.499-1.191 40.005l-136.222 120.892c-2.749 2.554-3.66 6.486-2.418 10.025 7.698 21.939 1.138 49.36-18.695 69.193z" fill="url(#SVGID_1_)"/><path d="m322.351 271.895c-21.052 21.052-52.77 23.467-70.843 5.394s-15.658-49.791 5.394-70.843 52.77-23.467 70.843-5.394 15.659 49.79-5.394 70.843z" fill="url(#SVGID_00000008143963677380511360000006397814063444674979_)"/><path d="m242.111 286.686c22.531 22.531 62.068 19.521 88.309-6.72 17.996-17.996 25.063-42.24 20.467-62.967h-115.816c-12.584 23.954-10.609 52.038 7.04 69.687z" fill="url(#SVGID_00000057146128946328954000000003003752568615706546_)"/></g><g><g><path d="m105 169.907c-44.18 0-80 35.82-80 80s35.82 80 80 80 80-35.82 80-80-35.82-80-80-80zm0 133c-29.27 0-53-23.73-53-53s23.73-53 53-53 53 23.73 53 53-23.73 53-53 53z" fill="url(#SVGID_00000054977840281813004450000010485412617158606508_)"/><path d="m105 181.907c-37.56 0-68 30.44-68 68s30.44 68 68 68 68-30.44 68-68-30.44-68-68-68zm0 121c-29.27 0-53-23.73-53-53s23.73-53 53-53 53 23.73 53 53-23.73 53-53 53z" fill="url(#SVGID_00000173875960417448876240000015565543014268763527_)"/><path d="m105 169.907c-44.18 0-80 35.82-80 80s35.82 80 80 80 80-35.82 80-80-35.82-80-80-80zm0 133c-29.27 0-53-23.73-53-53s23.73-53 53-53 53 23.73 53 53-23.73 53-53 53z" fill="url(#SVGID_00000153669967338187743080000012350925026333449149_)"/></g><g><path d="m398 195.907c-39.762 0-72 32.238-72 72s32.238 72 72 72 72-32.238 72-72-32.238-72-72-72zm0 119.7c-26.343 0-47.7-21.357-47.7-47.7s21.357-47.7 47.7-47.7 47.7 21.357 47.7 47.7-21.357 47.7-47.7 47.7z" fill="url(#SVGID_00000086655243793031667290000012078517286075161525_)"/><path d="m398 206.707c-33.804 0-61.2 27.396-61.2 61.2s27.396 61.2 61.2 61.2 61.2-27.396 61.2-61.2-27.396-61.2-61.2-61.2zm0 108.9c-26.343 0-47.7-21.357-47.7-47.7s21.357-47.7 47.7-47.7 47.7 21.357 47.7 47.7-21.357 47.7-47.7 47.7z" fill="url(#SVGID_00000047743482264378798780000010653632010067533717_)"/><path d="m398 195.907c-39.762 0-72 32.238-72 72s32.238 72 72 72 72-32.238 72-72-32.238-72-72-72zm0 119.7c-26.343 0-47.7-21.357-47.7-47.7s21.357-47.7 47.7-47.7 47.7 21.357 47.7 47.7-21.357 47.7-47.7 47.7z" fill="url(#SVGID_00000128483246909874491960000002210072641336270489_)"/></g><g><path d="m322.794 271.701c-9.151 9.151-22.225 10.914-29.202 3.938s-5.214-20.051 3.938-29.202c9.151-9.151 22.226-10.914 29.202-3.938 6.977 6.976 5.214 20.051-3.938 29.202z" fill="url(#SVGID_00000069357053491472733890000004277824831177712318_)"/><path d="m297.53 246.437c-9.151 9.151-10.914 22.226-3.938 29.202 6.977 6.977 20.051 5.214 29.202-3.938 1.982-1.982 3.616-4.148 4.891-6.396l-23.759-23.759c-2.248 1.275-4.414 2.909-6.396 4.891z" fill="url(#SVGID_00000180353983746732186590000014351052209416958896_)"/><path d="m289.513 261.853c-1.538 11.404 6.461 19.402 17.865 17.865s21.896-12.029 23.433-23.433c.333-2.47.217-4.779-.282-6.867l-38.837 5.237c-1.091 2.302-1.846 4.728-2.179 7.198z" fill="url(#SVGID_00000114786719290076884790000008769739240969674667_)"/></g><g><path d="m263.576 310.736c-1.323-4.039-2.083-8.417-2.163-12.997-.361-20.814 13.458-37.933 30.866-38.235 6.612-.115 12.789 2.216 17.928 6.289 2.787 2.209 6.748 2.19 9.363-.22 13.548-12.485 32.368-15.549 45.765-6.256s17.121 27.993 10.173 45.057c-1.341 3.294.028 7.01 3.074 8.847 5.616 3.387 9.962 8.355 12.171 14.589 5.816 16.411-5.377 35.352-24.999 42.305-4.319 1.53-8.685 2.352-12.932 2.527-3.217.133-5.832 2.771-5.652 5.985.08 1.43.024 2.879-.178 4.336-2.011 14.477-17.673 24.265-34.983 21.861-.072-.01-.144-.02-.216-.031-14.077-2.036-28.286 2.652-38.056 12.989l-49.768 52.657c-2.239 2.369-6.065-.244-4.673-3.192l30.642-64.855c6.174-13.068 5.85-28.456-1.5-40.901-.243-.411-.48-.83-.709-1.254-8.316-15.371-4.635-33.47 8.22-40.425 1.294-.7 2.631-1.26 3.999-1.686 3.075-.957 4.63-4.33 3.628-7.39z" fill="url(#SVGID_00000059287715892316352700000012820600902849048735_)"/><path d="m292.279 259.504c6.612-.115 12.789 2.216 17.928 6.289 2.787 2.209 6.748 2.19 9.363-.22 13.43-12.376 32.036-15.488 45.41-6.49l-144.819 211.665c-.99-.745-1.534-2.081-.864-3.501l30.642-64.855c6.174-13.068 5.85-28.456-1.499-40.901-.243-.411-.48-.83-.709-1.254-8.316-15.371-4.635-33.47 8.22-40.425 1.294-.7 2.631-1.26 3.999-1.686 3.074-.957 4.628-4.331 3.626-7.39-1.323-4.039-2.083-8.417-2.163-12.997-.362-20.815 13.458-37.933 30.866-38.235z" fill="url(#SVGID_00000173846596313600478700000007160774969565813673_)"/><path d="m346.993 382.962c-.262 1.888-.761 3.693-1.461 5.405l-72.602 5.255-21.665-70.417c1.393-1.309 2.953-2.454 4.686-3.392 1.294-.7 2.631-1.26 3.999-1.686 3.074-.957 4.628-4.331 3.626-7.39-1.323-4.039-2.083-8.417-2.163-12.997-.361-20.814 13.458-37.933 30.866-38.235 6.612-.115 12.789 2.216 17.928 6.289 2.787 2.209 6.748 2.19 9.363-.22 13.548-12.485 32.368-15.549 45.765-6.256s17.121 27.993 10.173 45.057c-1.341 3.294.028 7.01 3.074 8.847 5.616 3.387 9.962 8.355 12.171 14.589 5.816 16.411-5.377 35.352-24.999 42.305-4.319 1.53-8.685 2.352-12.932 2.527-3.217.133-5.832 2.771-5.652 5.985.082 1.428.026 2.877-.177 4.334z" fill="url(#SVGID_00000142854506778980644340000001443964555766221469_)"/><path d="m292.279 259.504c6.612-.115 12.789 2.216 17.928 6.289 2.787 2.209 6.748 2.19 9.363-.22 13.548-12.485 32.368-15.549 45.765-6.256s17.121 27.993 10.173 45.057c-1.341 3.294.028 7.01 3.074 8.847 5.616 3.387 9.962 8.355 12.171 14.589 1.684 4.753 1.934 9.718.973 14.543l-88.079 6.375-26.027-84.595c4.349-2.865 9.335-4.537 14.659-4.629z" fill="url(#SVGID_00000023967670342286511130000008909438044989171618_)"/><path d="m334.363 303.832-12.404-40.315c13.307-10.737 30.749-12.959 43.376-4.201 12.457 8.641 16.545 25.414 11.472 41.444z" fill="url(#SVGID_00000139257051217049475400000007918607612259482024_)"/></g><g><g><path d="m303 258.814c0 42.577-34.516 77.093-77.093 77.093s-77.093-34.516-77.093-77.093 34.516-101.803 77.093-101.803 77.093 59.225 77.093 101.803z" fill="url(#SVGID_00000009587186653393662030000003154740793500954004_)"/><path d="m148.813 258.814c0 42.577 34.516 77.093 77.093 77.093s77.094-34.516 77.094-77.093c0-14.749-4.144-31.494-11.328-47.085h-131.531c-7.183 15.59-11.328 32.336-11.328 47.085z" fill="url(#SVGID_00000080905333194861148240000005341499675693694097_)"/><path d="m265.821 174.868-111.813 111.813c11.172 28.803 39.149 49.227 71.899 49.227 42.578 0 77.093-34.516 77.093-77.093 0-27.968-14.892-63.117-37.179-83.947z" fill="url(#SVGID_00000150067121778964326180000010104791459500172434_)"/></g><g><circle cx="225.907" cy="266.306" fill="url(#SVGID_00000031899850703406484710000007475401307162430337_)" r="47.768"/><path d="m178.139 266.306c0 26.381 21.386 47.768 47.768 47.768 26.381 0 47.768-21.387 47.768-47.768 0-5.714-1.007-11.191-2.846-16.27h-89.844c-1.84 5.079-2.846 10.556-2.846 16.27z" fill="url(#SVGID_00000155118882505947372080000013962695797921672339_)"/><path d="m192.13 300.083c18.654 18.654 48.9 18.655 67.554 0 18.655-18.655 18.654-48.9 0-67.554-4.04-4.04-8.625-7.202-13.517-9.492l-63.529 63.529c2.29 4.892 5.451 9.477 9.492 13.517z" fill="url(#SVGID_00000128455351536401945260000000849838450615278761_)"/></g></g><g><path d="m93.206 269.701c9.151 9.151 22.226 10.914 29.202 3.938s5.214-20.051-3.938-29.202-22.226-10.914-29.202-3.938c-6.977 6.976-5.214 20.051 3.938 29.202z" fill="url(#SVGID_00000142897106267894714240000013984568533763006618_)"/><path d="m118.47 244.437c9.151 9.151 10.914 22.226 3.938 29.202-6.977 6.977-20.051 5.214-29.202-3.938-1.982-1.982-3.616-4.148-4.891-6.396l23.759-23.759c2.248 1.275 4.414 2.909 6.396 4.891z" fill="url(#SVGID_00000114785405712005165380000005801346387471208868_)"/><path d="m126.487 259.853c1.538 11.404-6.461 19.402-17.865 17.865-11.404-1.538-21.896-12.029-23.433-23.433-.333-2.47-.217-4.779.282-6.867l38.837 5.237c1.091 2.302 1.846 4.728 2.179 7.198z" fill="url(#SVGID_00000024700501602333227080000012679497546575129769_)"/></g><g><path d="m136.95 229.595c1.001 8.363-1.703 17.082-8.114 23.493l-5.741 5.741c-6.411 6.411-15.131 9.116-23.493 8.114-4.249-.509-8.499.913-11.525 3.939-8.092 8.092-3.449 21.987 7.889 23.544 15.414 2.116 31.605-2.753 43.464-14.612l10.392-10.392c11.859-11.859 16.728-28.049 14.612-43.464-1.557-11.338-15.451-15.981-23.544-7.889-3.028 3.027-4.449 7.277-3.94 11.526z" fill="url(#SVGID_00000021116592511432547280000007226398307983788723_)"/><path d="m136.95 229.596c1.002 8.363-1.703 17.082-8.114 23.493l-5.741 5.741c-6.411 6.411-15.131 9.116-23.493 8.114-4.249-.509-8.499.913-11.525 3.939-3.662 3.662-4.708 8.509-3.715 12.866.369.08.744.15 1.129.203 15.414 2.116 31.605-2.753 43.464-14.612l10.392-10.392c11.859-11.859 16.728-28.049 14.612-43.463-.053-.385-.122-.76-.203-1.129-4.357-.994-9.204.054-12.866 3.715-3.027 3.025-4.449 7.275-3.94 11.525z" fill="url(#SVGID_00000023998157138082865680000013618400152586393006_)"/></g><g><path d="m212.246 309.849c-3.042-.635-5.184-3.306-5.179-6.413 0-.019 0-.039 0-.058 0-23.456-19.015-42.471-42.471-42.471-20.209 0-37.112 14.118-41.406 33.029-.589 2.596-2.758 4.511-5.386 4.937-20.34 3.298-35.837 21.041-35.62 42.363.239 23.461 19.814 42.457 43.272 42.021 4.803-.089 9.41-.976 13.695-2.533 13.446-4.885 28.391-2.63 40.126 5.553 6.979 4.867 15.489 7.69 24.665 7.603 22.428-.214 41.016-18.123 42.013-40.529.949-21.32-13.83-39.355-33.709-43.502z" fill="url(#SVGID_00000122723030812185540470000007628623261823868327_)"/><path d="m212.246 309.849c-3.042-.635-5.184-3.306-5.179-6.413 0-.019 0-.039 0-.058 0-20.265-14.194-37.212-33.182-41.449v121.119c1.857.946 3.66 2.021 5.392 3.229 6.979 4.867 15.489 7.69 24.665 7.603 22.428-.214 41.016-18.123 42.013-40.529.949-21.32-13.83-39.355-33.709-43.502z" fill="url(#SVGID_00000096053384339964540320000002768274048800401853_)"/><path d="m82.184 341.235c.239 23.461 19.814 42.457 43.272 42.021 4.802-.089 9.41-.976 13.695-2.533 13.446-4.885 28.391-2.63 40.126 5.553 6.979 4.867 15.489 7.69 24.665 7.603 22.428-.214 41.016-18.123 42.013-40.529.275-6.189-.777-12.099-2.892-17.475h-160.597c-.202 1.757-.3 3.545-.282 5.36z" fill="url(#SVGID_00000128467843518319201980000012214678536143701397_)"/><path d="m207.945 306.732c-1.432 21.79-18.968 39.183-40.818 40.378.234-1.827.354-3.692.354-5.583 0-23.926-19.398-43.324-43.324-43.324-1.669 0-3.311.094-4.931.279 1.963-.776 3.485-2.437 3.963-4.547 4.295-18.908 21.198-33.028 41.406-33.028 23.455 0 42.472 19.013 42.472 42.472v.057c-.004 1.194.317 2.32.878 3.296z" fill="url(#SVGID_00000132048880258960384460000009808423946804124044_)"/><path d="m240.703 371.901c-8.192-.648-16.68-.99-25.378-.99-25.199 0-48.637 2.86-68.201 7.768 11.16-1.738 22.699 1.004 32.154 7.597 6.979 4.867 15.489 7.69 24.665 7.603 15.716-.149 29.547-8.99 36.76-21.978z" fill="url(#SVGID_00000177464885047669510480000011593651959177761412_)"/><path d="m212.247 309.848c-1.872-.388-3.402-1.552-4.302-3.112-1.281 19.488-15.45 35.461-34.06 39.466v36.848c1.857.946 3.662 2.019 5.391 3.229 6.981 4.867 15.491 7.689 24.664 7.602 22.43-.215 41.018-18.124 42.016-40.528.95-21.324-13.833-39.358-33.709-43.505z" fill="url(#SVGID_00000046325093417071063860000002703358974899415472_)"/></g><g><circle cx="404.768" cy="290.675" fill="url(#SVGID_00000158022160281300867200000014266727515212068259_)" r="47.768"/><g><path d="m423.741 261.805-47.84 47.84c-2.41 2.41-6.459 1.68-7.928-1.396-7.237-15.154-4.582-33.852 7.97-46.403 12.545-12.545 31.248-15.205 46.402-7.97 3.076 1.47 3.807 5.519 1.396 7.929z" fill="url(#SVGID_00000182498672323684219860000013866050461253188519_)"/><path d="m433.6 319.504c-12.551 12.551-31.249 15.206-46.403 7.97-3.076-1.469-3.807-5.518-1.396-7.928l47.84-47.84c2.41-2.41 6.46-1.679 7.928 1.397 7.235 15.153 4.576 33.856-7.969 46.401z" fill="url(#SVGID_00000130638041683624310420000013283538865782776210_)"/><g><g><path d="m392.065 271.605c3.515 3.515 4.939 7.789 3.182 9.546s-6.031.333-9.546-3.182-4.939-7.789-3.182-9.546 6.031-.332 9.546 3.182z" fill="url(#SVGID_00000005235927762313996420000010255010390540463292_)"/><g><path d="m379.269 287.562c4.612 1.854 7.599 5.227 6.671 7.533-.927 2.306-5.417 2.672-10.029.817-4.612-1.854-7.598-5.227-6.671-7.533s5.418-2.672 10.029-.817z" fill="url(#SVGID_00000091702443501018621810000010044293982649553310_)"/><path d="m401.657 265.174c1.854 4.612 5.227 7.599 7.533 6.671 2.306-.927 2.672-5.417.817-10.029-1.854-4.612-5.227-7.598-7.533-6.671-2.305.927-2.671 5.417-.817 10.029z" fill="url(#SVGID_00000118374278420314726980000013252471672264940222_)"/></g></g><g><path d="m423.838 303.378c-3.515-3.515-7.789-4.939-9.546-3.182s-.333 6.031 3.182 9.546 7.789 4.939 9.546 3.182.332-6.031-3.182-9.546z" fill="url(#SVGID_00000080183187725865965190000008556518572591447682_)"/><g><path d="m407.881 316.174c-1.854-4.612-5.227-7.599-7.533-6.671-2.306.927-2.672 5.417-.817 10.029 1.854 4.612 5.227 7.598 7.533 6.671s2.672-5.418.817-10.029z" fill="url(#SVGID_00000147195517719654242690000017797851724438719148_)"/><path d="m430.269 293.786c-4.612-1.854-7.599-5.227-6.671-7.533.927-2.306 5.417-2.672 10.029-.817 4.612 1.854 7.598 5.227 6.671 7.533-.927 2.305-5.417 2.671-10.029.817z" fill="url(#SVGID_00000021099545090326530320000017250315314092496047_)"/></g></g></g></g><path d="m370.991 256.898c-18.654 18.654-18.655 48.9 0 67.554 18.655 18.655 48.9 18.654 67.554 0 4.04-4.04 7.202-8.625 9.492-13.517l-63.529-63.529c-4.892 2.29-9.477 5.452-13.517 9.492z" fill="url(#SVGID_00000034087280366880120800000006196593211868771249_)"/><path d="m357 290.675c0 26.381 21.386 47.768 47.768 47.768s47.768-21.387 47.768-47.768c0-5.714-1.007-11.191-2.846-16.27h-89.844c-1.839 5.079-2.846 10.556-2.846 16.27z" fill="url(#SVGID_00000047049377211968271870000006499778272590402746_)"/></g><g><path d="m321 286.907c-44.18 0-80 35.82-80 80s35.82 80 80 80 80-35.82 80-80-35.82-80-80-80zm0 133c-29.27 0-53-23.73-53-53s23.73-53 53-53 53 23.73 53 53-23.73 53-53 53z" fill="url(#SVGID_00000130646268567094845760000003278687484580053658_)"/><path d="m321 298.907c-37.56 0-68 30.44-68 68s30.44 68 68 68 68-30.44 68-68-30.44-68-68-68zm0 121c-29.27 0-53-23.73-53-53s23.73-53 53-53 53 23.73 53 53-23.73 53-53 53z" fill="url(#SVGID_00000142139668513420731130000016434375698154843047_)"/></g><g><path d="m168.206 359.701c9.151 9.151 22.226 10.914 29.202 3.938s5.214-20.051-3.938-29.202c-9.151-9.151-22.226-10.914-29.202-3.938s-5.214 20.051 3.938 29.202z" fill="url(#SVGID_00000145757640819393325090000005881211860572212154_)"/><path d="m193.47 334.437c9.151 9.151 10.914 22.225 3.938 29.202-6.977 6.977-20.051 5.214-29.202-3.938-1.982-1.982-3.616-4.148-4.891-6.396l23.759-23.759c2.248 1.275 4.414 2.909 6.396 4.891z" fill="url(#SVGID_00000038378790073259709640000017130066675883999641_)"/><path d="m201.487 349.853c1.538 11.404-6.46 19.402-17.865 17.865-11.404-1.538-21.896-12.029-23.433-23.433-.333-2.47-.217-4.779.282-6.867l38.837 5.237c1.091 2.302 1.846 4.728 2.179 7.198z" fill="url(#SVGID_00000123438574964372546800000005809361491819491253_)"/></g><g><circle cx="239.768" cy="339.139" fill="url(#SVGID_00000097473517571961139440000010791066367770629564_)" r="47.768"/><g><path d="m232.77 305.309v67.656c0 3.409-3.38 5.755-6.594 4.619-15.832-5.598-27.176-20.697-27.176-38.447 0-17.741 11.344-32.847 27.176-38.447 3.214-1.136 6.594 1.21 6.594 4.619z" fill="url(#SVGID_00000176035227956152487540000003886097506981556122_)"/><path d="m280.54 339.137c0 17.75-11.344 32.849-27.176 38.447-3.214 1.136-6.594-1.21-6.594-4.619v-67.656c0-3.409 3.38-5.755 6.594-4.619 15.832 5.6 27.176 20.706 27.176 38.447z" fill="url(#SVGID_00000181083106500986663030000016220645539413150613_)"/><g><g><ellipse cx="217.301" cy="339.137" fill="url(#SVGID_00000054978738576008715830000004389376013863941778_)" rx="9" ry="4.5"/><g><path d="m219.536 354.968c4.572-1.95 9.069-1.677 10.044.609s-1.941 5.72-6.514 7.67-9.069 1.677-10.044-.609c-.974-2.287 1.942-5.72 6.514-7.67z" fill="url(#SVGID_00000059281024474019791720000011766646440982933406_)"/><path d="m219.536 323.306c4.572 1.95 9.069 1.677 10.044-.609s-1.941-5.72-6.514-7.67-9.069-1.677-10.044.609c-.974 2.287 1.942 5.721 6.514 7.67z" fill="url(#SVGID_00000089563022667004250630000003603813497161519512_)"/></g></g><g><ellipse cx="262.235" cy="339.137" fill="url(#SVGID_00000183929960424815527490000008892471967420140213_)" rx="9" ry="4.5"/><g><path d="m260 354.968c-4.572-1.95-9.069-1.677-10.044.609s1.941 5.72 6.514 7.67c4.572 1.95 9.069 1.677 10.044-.609.974-2.287-1.942-5.72-6.514-7.67z" fill="url(#SVGID_00000031901811470200472490000006359917186081393540_)"/><path d="m260 323.306c-4.572 1.95-9.069 1.677-10.044-.609s1.941-5.72 6.514-7.67c4.572-1.95 9.069-1.677 10.044.609.974 2.287-1.942 5.721-6.514 7.67z" fill="url(#SVGID_00000016075257650366613980000001019915965037168002_)"/></g></g></g></g><path d="m192 339.139c0 26.381 21.386 47.768 47.768 47.768 26.381 0 47.768-21.387 47.768-47.768 0-5.714-1.007-11.191-2.846-16.27h-89.844c-1.839 5.079-2.846 10.557-2.846 16.27z" fill="url(#SVGID_00000173148278484342150650000014363982729666803631_)"/><path d="m205.991 372.916c18.654 18.654 48.9 18.655 67.554 0 18.655-18.655 18.654-48.9 0-67.554-4.04-4.04-8.625-7.202-13.517-9.492l-63.529 63.529c2.29 4.892 5.452 9.477 9.492 13.517z" fill="url(#SVGID_00000030485139888150001850000010717540147975593644_)"/></g><g><path d="m242.963 379.219c-1.002-8.363 1.703-17.082 8.114-23.493l5.741-5.741c6.411-6.411 15.131-9.116 23.493-8.114 4.249.509 8.499-.913 11.525-3.939 8.092-8.092 3.449-21.987-7.889-23.544-15.414-2.116-31.605 2.753-43.464 14.612l-10.392 10.392c-11.859 11.859-16.728 28.049-14.612 43.464 1.557 11.338 15.451 15.981 23.544 7.889 3.027-3.027 4.449-7.277 3.94-11.526z" fill="url(#SVGID_00000039812988902539342950000014840020874548549030_)"/><path d="m242.963 379.219c-1.002-8.363 1.703-17.082 8.114-23.493l5.741-5.741c6.411-6.411 15.131-9.116 23.493-8.114 4.249.509 8.499-.913 11.525-3.939 3.662-3.662 4.708-8.509 3.715-12.866-.369-.08-.744-.15-1.129-.203-15.414-2.116-31.605 2.753-43.464 14.612l-10.392 10.392c-11.859 11.859-16.728 28.049-14.612 43.463.053.385.122.76.203 1.129 4.357.994 9.204-.054 12.866-3.715 3.027-3.026 4.449-7.276 3.94-11.525z" fill="url(#SVGID_00000036965048751275865790000006015336054694615200_)"/></g><g><path d="m418.601 295.957c8.363-1.001 17.082 1.703 23.493 8.114l5.741 5.741c6.411 6.411 9.116 15.131 8.114 23.493-.509 4.249.913 8.499 3.939 11.525 8.092 8.092 21.987 3.449 23.544-7.889 2.116-15.414-2.753-31.605-14.612-43.464l-10.392-10.392c-11.859-11.859-28.049-16.728-43.464-14.612-11.338 1.557-15.981 15.451-7.889 23.544 3.027 3.028 7.277 4.449 11.526 3.94z" fill="url(#SVGID_00000090282956511860198500000012935357774612433555_)"/><path d="m418.602 295.957c8.363-1.002 17.082 1.703 23.493 8.114l5.741 5.741c6.411 6.411 9.116 15.131 8.114 23.493-.509 4.249.913 8.499 3.939 11.525 3.662 3.662 8.509 4.708 12.866 3.715.08-.369.15-.744.203-1.129 2.116-15.414-2.753-31.605-14.612-43.464l-10.392-10.392c-11.859-11.859-28.049-16.728-43.463-14.612-.385.053-.76.122-1.129.203-.993 4.357.054 9.204 3.715 12.866 3.025 3.027 7.275 4.449 11.525 3.94z" fill="url(#SVGID_00000072971023275108552430000011091836956371363968_)"/></g><g><path d="m461.027 326.68c-2.035-.425-3.469-2.212-3.466-4.291 0-.013 0-.026 0-.039 0-15.695-12.723-28.418-28.418-28.418-13.522 0-24.832 9.447-27.705 22.1-.394 1.737-1.845 3.018-3.604 3.303-13.61 2.206-23.979 14.079-23.834 28.345.16 15.698 13.258 28.408 28.954 28.117 3.213-.06 6.296-.653 9.164-1.695 8.997-3.269 18.997-1.76 26.849 3.716 4.67 3.257 10.364 5.146 16.504 5.087 15.007-.143 27.444-12.126 28.111-27.118.635-14.265-9.254-26.332-22.555-29.107z" fill="url(#SVGID_00000087374296540432797910000016993312795305203862_)"/><path d="m461.027 326.68c-2.035-.425-3.469-2.212-3.466-4.291 0-.013 0-.026 0-.039 0-13.559-9.497-24.899-22.202-27.734v81.042c1.242.633 2.449 1.352 3.608 2.16 4.67 3.257 10.364 5.146 16.503 5.087 15.007-.143 27.444-12.126 28.111-27.118.636-14.265-9.253-26.332-22.554-29.107z" fill="url(#SVGID_00000074423719094599819580000006283554655414242983_)"/><path d="m374.002 347.68c.16 15.698 13.258 28.408 28.954 28.117 3.213-.06 6.296-.653 9.164-1.695 8.997-3.269 18.997-1.76 26.849 3.716 4.67 3.257 10.364 5.146 16.503 5.087 15.007-.143 27.444-12.126 28.111-27.118.184-4.141-.52-8.096-1.935-11.693h-107.458c-.135 1.176-.201 2.372-.188 3.586z" fill="url(#SVGID_00000182506323108757141180000008581315116724694935_)"/><path d="m458.149 324.594c-.958 14.58-12.692 26.218-27.312 27.017.156-1.223.237-2.47.237-3.736 0-16.009-12.979-28.988-28.988-28.988-1.117 0-2.216.063-3.3.187 1.313-.519 2.332-1.631 2.652-3.043 2.874-12.651 14.184-22.099 27.705-22.099 15.694 0 28.419 12.722 28.419 28.419v.038c-.002.798.212 1.552.587 2.205z" fill="url(#SVGID_00000018233372493849507130000000145962750625325227_)"/><path d="m480.068 368.199c-5.482-.433-11.16-.662-16.98-.662-16.861 0-32.543 1.914-45.634 5.198 7.467-1.163 15.188.672 21.514 5.083 4.67 3.257 10.364 5.146 16.503 5.087 10.517-.1 19.771-6.015 24.597-14.706z" fill="url(#SVGID_00000026154587408959954370000017120039427337467781_)"/><path d="m461.028 326.679c-1.253-.26-2.276-1.039-2.879-2.082-.857 13.04-10.337 23.728-22.79 26.407v24.655c1.243.633 2.45 1.351 3.607 2.16 4.671 3.257 10.365 5.145 16.503 5.087 15.008-.144 27.446-12.127 28.114-27.118.636-14.267-9.256-26.334-22.555-29.109z" fill="url(#SVGID_00000068643277799229090130000007004201692602618242_)"/></g><g><path d="m390.471 361.701c-9.151 9.151-22.226 10.914-29.202 3.938-6.977-6.977-5.214-20.051 3.938-29.202 9.151-9.151 22.226-10.914 29.202-3.938s5.213 20.051-3.938 29.202z" fill="url(#SVGID_00000123419546395669320720000014771402215185966502_)"/><path d="m365.206 336.437c-9.151 9.151-10.914 22.225-3.938 29.202s20.051 5.214 29.202-3.938c1.982-1.982 3.616-4.148 4.891-6.396l-23.759-23.759c-2.248 1.275-4.414 2.909-6.396 4.891z" fill="url(#SVGID_00000162310687896015001950000008749634097724063380_)"/><path d="m357.189 351.853c-1.538 11.404 6.461 19.402 17.865 17.865 11.404-1.538 21.896-12.029 23.433-23.433.333-2.47.217-4.779-.282-6.867l-38.837 5.237c-1.091 2.302-1.846 4.728-2.179 7.198z" fill="url(#SVGID_00000011736354839086391950000001504559291380139419_)"/></g><g><path d="m128.715 310.736c1.323-4.039 2.083-8.417 2.163-12.997.361-20.814-13.458-37.933-30.866-38.235-6.612-.115-12.789 2.216-17.928 6.289-2.787 2.209-6.748 2.19-9.363-.22-13.548-12.485-32.368-15.549-45.765-6.256s-17.121 27.993-10.173 45.057c1.341 3.294-.028 7.01-3.074 8.847-5.616 3.387-9.962 8.355-12.171 14.589-5.816 16.411 5.377 35.352 24.999 42.305 4.319 1.53 8.685 2.352 12.932 2.527 3.217.133 5.832 2.771 5.652 5.985-.08 1.43-.024 2.879.178 4.336 2.011 14.477 17.673 24.265 34.983 21.861.072-.01.144-.02.216-.031 14.077-2.036 28.286 2.652 38.056 12.989l49.768 52.657c2.239 2.369 6.065-.244 4.673-3.192l-30.642-64.855c-6.174-13.068-5.85-28.456 1.5-40.901.243-.411.48-.83.709-1.254 8.316-15.371 4.635-33.47-8.22-40.425-1.294-.7-2.631-1.26-3.999-1.686-3.076-.957-4.63-4.33-3.628-7.39z" fill="url(#SVGID_00000081622091226409239230000017716510958096462488_)"/><path d="m100.012 259.504c-6.612-.115-12.789 2.216-17.928 6.289-2.787 2.209-6.748 2.19-9.363-.22-13.43-12.376-32.036-15.488-45.41-6.49l144.819 211.665c.99-.745 1.534-2.081.864-3.501l-30.642-64.855c-6.174-13.068-5.85-28.456 1.499-40.901.243-.411.48-.83.709-1.254 8.316-15.371 4.635-33.47-8.22-40.425-1.294-.7-2.631-1.26-3.999-1.686-3.074-.957-4.628-4.331-3.626-7.39 1.323-4.039 2.083-8.417 2.163-12.997.361-20.815-13.458-37.933-30.866-38.235z" fill="url(#SVGID_00000153690201627672934570000000251493501957323193_)"/><path d="m45.297 382.962c.262 1.888.761 3.693 1.461 5.405l72.602 5.255 21.665-70.417c-1.393-1.309-2.953-2.454-4.686-3.392-1.294-.7-2.631-1.26-3.999-1.686-3.074-.957-4.628-4.331-3.626-7.39 1.323-4.039 2.083-8.417 2.163-12.997.361-20.814-13.458-37.933-30.866-38.235-6.612-.115-12.789 2.216-17.928 6.289-2.787 2.209-6.748 2.19-9.363-.22-13.548-12.485-32.368-15.549-45.765-6.256s-17.121 27.993-10.173 45.057c1.341 3.294-.028 7.01-3.074 8.847-5.616 3.387-9.962 8.355-12.171 14.589-5.816 16.411 5.377 35.352 24.999 42.305 4.319 1.53 8.685 2.352 12.932 2.527 3.217.133 5.832 2.771 5.652 5.985-.081 1.428-.025 2.877.177 4.334z" fill="url(#SVGID_00000078746468459968808610000002359451826279267984_)"/><path d="m100.012 259.504c-6.612-.115-12.789 2.216-17.928 6.289-2.787 2.209-6.748 2.19-9.363-.22-13.548-12.485-32.368-15.549-45.765-6.256s-17.121 27.993-10.173 45.057c1.341 3.294-.028 7.01-3.074 8.847-5.616 3.387-9.962 8.355-12.171 14.589-1.684 4.753-1.934 9.718-.973 14.543l88.079 6.375 26.027-84.595c-4.35-2.865-9.335-4.537-14.659-4.629z" fill="url(#SVGID_00000098219168052521486020000000840908109050833574_)"/><path d="m57.928 303.832 12.404-40.315c-13.307-10.737-30.749-12.959-43.376-4.201-12.457 8.641-16.545 25.414-11.472 41.444z" fill="url(#SVGID_00000047019725386286790430000000045030215616325054_)"/></g><g><path d="m57.601 347.957c8.363-1.001 17.082 1.703 23.493 8.114l5.741 5.741c6.411 6.411 9.116 15.131 8.114 23.493-.509 4.249.913 8.499 3.939 11.525 8.092 8.092 21.987 3.449 23.544-7.889 2.116-15.414-2.753-31.605-14.612-43.464l-10.392-10.392c-11.859-11.859-28.049-16.728-43.464-14.612-11.338 1.557-15.981 15.451-7.889 23.544 3.027 3.028 7.277 4.449 11.526 3.94z" fill="url(#SVGID_00000055683084785595758160000009109376483227516329_)"/><path d="m57.601 347.957c8.363-1.002 17.082 1.703 23.493 8.114l5.741 5.741c6.411 6.411 9.116 15.131 8.114 23.493-.509 4.249.913 8.499 3.939 11.525 3.662 3.662 8.509 4.708 12.866 3.715.08-.369.15-.744.203-1.129 2.116-15.414-2.753-31.605-14.612-43.464l-10.392-10.392c-11.859-11.859-28.049-16.728-43.463-14.612-.385.053-.76.122-1.129.203-.994 4.357.054 9.204 3.715 12.866 3.026 3.028 7.276 4.449 11.525 3.94z" fill="url(#SVGID_00000147909171535290417130000015910713328120901308_)"/></g><g><path d="m400.453 478.203h-290.906c-49.255 0-92.907-31.722-108.117-78.57-6.046-18.623 7.836-37.726 27.416-37.726h452.308c19.58 0 33.462 19.103 27.416 37.726-15.211 46.848-58.862 78.57-108.117 78.57z" fill="url(#SVGID_00000013182542804553148240000007009826407826832306_)"/><path d="m.152 393.494c.202 2.035.612 4.089 1.278 6.139v.001c15.21 46.848 58.862 78.569 108.117 78.569h290.906c49.255 0 92.907-31.722 108.117-78.57.665-2.049 1.076-4.104 1.278-6.139z" fill="url(#SVGID_00000103239683799429708590000011611263666346579851_)"/><path d="m481.154 361.907h-241.914v116.296h161.213c49.255 0 92.907-31.722 108.117-78.57 6.046-18.623-7.836-37.726-27.416-37.726z" fill="url(#SVGID_00000050640522167313830200000002058677382016068242_)"/></g></g></g></svg>