<svg id="Layer_1" enable-background="new 0 0 500 500" viewBox="0 0 500 500" xmlns="http://www.w3.org/2000/svg"><g clip-rule="evenodd" fill-rule="evenodd"><path d="m276.319 371.69c3.654 2.58 3.971 8.058 0 11.016l-19.348 15.195c-2.922 2.297-7.153 1.79-9.449-1.132-2.297-2.922-1.79-7.152 1.132-9.449l4.309-3.384h-81.054c-3.721 0-6.738-3.017-6.738-6.738s3.017-6.738 6.738-6.738h81.054l-4.309-3.384c-2.922-2.297-3.428-6.527-1.132-9.449 2.297-2.922 6.527-3.428 9.449-1.132zm-80.628 61.101-4.308-3.384h81.054c3.721 0 6.738-3.017 6.738-6.738s-3.017-6.738-6.738-6.738h-81.054l4.308-3.384c2.922-2.297 3.428-6.527 1.132-9.449-2.297-2.922-6.527-3.428-9.449-1.132l-19.348 15.195c-3.823 2.848-3.823 8.169 0 11.016l19.348 15.195c2.922 2.297 7.153 1.79 9.449-1.132 2.297-2.922 1.79-7.152-1.132-9.449z" fill="#19cfba"/><path d="m83.926 125.59 54.652 9.8-39.806 135.425 13.289 56.952c1.278 5.477 1.289 10.42.036 15.903l-15.488 67.76 18.171 8.221c9.083 1.603 16.363.435 19.791 10.018.951 2.659 1.296 5.655.978 9.019h-58.444c-9.184 0-15.983-8.345-14.126-17.34l14.516-70.323c.918-4.449-.389-8.285-2.15-12.472-3.458-8.219-7.551-16.121-12.152-23.769-10.712-17.805-29.823-32.878-28.769-52.618.681-12.765 8.713-23.404 15.024-34.186l-.403-73.969c-.075-13.84 17.281-31.577 34.881-28.421z" fill="#88c8fe"/><path d="m83.926 125.59 54.652 9.8-9.66 32.864-30.318 2.434c-35.588 2.857-44.057-28.291-29.959-42.976 4.765-2.136 10.014-3.067 15.285-2.122z" fill="#60b7fe"/><path d="m274.563 136.038-40.497-1.171-15.236 3.877-114.738-8.555c-36.169-2.005-37.02 37.212 7.649 34.584l114.642-6.746 8.017 3.658 8.758-6.633 21.475-1.995c3.194-.296 6.059-2.188 6.869-5.291z" fill="#e8bc8e"/><path d="m274.563 136.038-40.497-1.171-15.236 3.877-114.738-8.555c-10.032-.556-17.342 2.062-21.722 6.076-3.359 10.543 7.127 23.663 33.582 22.107l114.642-6.746 8.017 3.658 8.758-6.633 21.475-1.995c1.126-.104 2.212-.408 3.18-.892z" fill="#fcd4a9"/><path d="m104.79 55.189c17.133 0 31.022 13.889 31.022 31.022s-13.889 31.022-31.022 31.022-31.021-13.889-31.021-31.022c-.001-17.133 13.888-31.022 31.021-31.022zm227.422 65.203c17.133 0 31.021 13.889 31.021 31.022s-13.889 31.021-31.021 31.021c-17.133 0-31.022-13.889-31.022-31.021 0-17.133 13.889-31.022 31.022-31.022z" fill="#e8bc8e"/><path d="m96.873 116.211c-13.297-3.5-23.104-15.604-23.104-30.001 0-14.396 9.807-26.501 23.104-30 13.297 3.5 23.105 15.604 23.105 30-.001 14.397-9.808 26.502-23.105 30.001zm227.422 5.202c13.297 3.5 23.104 15.604 23.104 30s-9.807 26.501-23.104 30c-13.297-3.5-23.105-15.604-23.105-30s9.807-26.5 23.105-30z" fill="#fcd4a9"/><path d="m106.251 245.372-7.479 25.443 13.289 56.952c1.278 5.477 1.289 10.42.036 15.903l-15.488 67.761 18.172 8.221c9.083 1.603 16.363.435 19.79 10.018.951 2.659 1.295 5.655.978 9.019h-58.444c-9.184 0-15.983-8.345-14.126-17.34l14.516-70.323c.918-4.449-.389-8.285-2.15-12.472-3.458-8.219-7.55-16.122-12.151-23.769-10.712-17.805-29.823-32.878-28.769-52.618.681-12.765 8.713-23.404 15.024-34.186z" fill="#e33f65"/><path d="m106.251 245.372-7.479 25.443 13.289 56.952c1.278 5.477 1.289 10.42.036 15.903l-15.488 67.761 18.172 8.221c9.083 1.603 16.363.435 19.79 10.018.031.086.061.173.09.259h-46.775c-9.184 0-15.983-8.345-14.126-17.34l14.516-70.323c.918-4.449-.389-8.285-2.15-12.472-3.458-8.219-7.55-16.122-12.151-23.769-10.712-17.805-29.823-32.878-28.769-52.618.468-8.762 4.398-16.522 8.858-24.014z" fill="#fa6e85"/><path d="m266.196 210.063-5.182 74.232 13.736 14.492 38.204 1.857c10.484-29.152 38.706-60.453 39.383-90.182l-39.967-16.304c-21.519-4.196-38.939-2.038-46.174 15.905z" fill="#88c8fe"/><path d="m266.196 210.063-.961 13.766c5.921 8.82 17.143 15.029 34.105 13.58l48.25-4.995c2.779-7.375 4.582-14.71 4.746-21.952l-39.967-16.304c-21.518-4.196-38.938-2.038-46.173 15.905z" fill="#60b7fe"/><path d="m335.498 411.431c11.192 5.063 40.554 6.286 43.584 14.759.951 2.659-4.326 9.135-4.644 12.499h-58.444c-4.486 0-8.349-1.835-11.183-5.314-2.834-3.478-4.351-7.766-2.943-12.026l54.331-87.298-57.112 3.894c-12.027-.37-31.22 2.118-39.418-7.841-8.193-9.951-.781-33.391 1.343-45.81l102.434 4.95c41.047 1.984 45.131 24.597 29.738 57.413z" fill="#fa6e85"/><path d="m310.82 406.967 45.38-72.915-57.112 3.894c-12.027-.37-31.22 2.118-39.418-7.841-3.584-4.353-4.182-11.287-3.543-18.751 2.405 9.15 7.983 15.428 18.489 14.869 30.632-1.629 61.223-3.065 91.841-4.616 4.602-.233 7.358 5.086 4.513 8.711z" fill="#e33f65"/><path d="m465.618 200.015-42.271-1.649-9.139 4.201-101.485-8.669c-36.169-2.004-37.02 37.213 7.648 34.584l94.657-6.746 8.017 3.658 8.758-6.633 21.475-1.994c3.194-.297 5.487-2.397 6.869-5.292z" fill="#f0b16e"/><path d="m465.618 200.015-42.271-1.649-9.139 4.201-101.485-8.669c-12.29-.681-20.496 3.399-24.231 8.978-.701 9.865 10.151 20.534 34.153 19.121l94.657-6.746 8.017 3.658 8.758-6.633 21.475-1.994c3.193-.297 5.134-2.593 6.869-5.292z" fill="#fcd4a9"/></g></svg>