<svg height="512" viewBox="0 0 64 64" width="512" xmlns="http://www.w3.org/2000/svg"><g id="Layer_2" data-name="Layer 2"><path d="m8.44 18a2.12 2.12 0 0 1 -.44 0 2 2 0 1 1 2-2" fill="#676668"/><circle cx="51" cy="20" fill="#eaa378" r="5"/><circle cx="13" cy="20" fill="#eaa378" r="5"/><path d="m41 33v7a3 3 0 0 1 -2 2.82 2.77 2.77 0 0 1 -1 .18h-12a2.77 2.77 0 0 1 -1-.18 3 3 0 0 1 -2-2.82v-7a4 4 0 0 1 4-4h10a4 4 0 0 1 4 4z" fill="#2398ff"/><path d="m26 43v13h4l2-10 2 10h4v-13" fill="#7bc1ff"/><path d="m7 40v13h4l2-10 2 10h4v-13" fill="#eaa378"/><path d="m33 29 1 7-2 3-2-3 1-7" fill="#fff200"/><g fill="#7bc1ff"><circle cx="32" cy="23" r="5"/><circle cx="23" cy="13" r="5"/><circle cx="41" cy="13" r="5"/></g><path d="m60 30v7a3 3 0 0 1 -2 2.82 2.77 2.77 0 0 1 -1 .18h-12a2.77 2.77 0 0 1 -1-.18 3 3 0 0 1 -2-2.82v-7a4 4 0 0 1 4-4h10a4 4 0 0 1 4 4z" fill="#dc661e"/><path d="m45 40v13h4l2-10 2 10h4v-13" fill="#eaa378"/><path d="m55.9 21a5 5 0 0 1 -4.9-5 4.62 4.62 0 0 1 .1-1 5 5 0 0 1 4.9 5 4.62 4.62 0 0 1 -.1 1z" fill="#414042"/><path d="m22 30v7a3 3 0 0 1 -2 2.82 2.77 2.77 0 0 1 -1 .18h-12a2.77 2.77 0 0 1 -1-.18 3 3 0 0 1 -2-2.82v-7a4 4 0 0 1 4-4h10a4 4 0 0 1 4 4z" fill="#dc661e"/><path d="m55.56 18a2.12 2.12 0 0 0 .44 0 2 2 0 1 0 -2-2" fill="#676668"/><path d="m8.1 21a5 5 0 0 0 4.9-5 4.62 4.62 0 0 0 -.1-1 5 5 0 0 0 -4.9 5 4.62 4.62 0 0 0 .1 1z" fill="#414042"/><path d="m7 30v10a2.77 2.77 0 0 1 -1-.18v-9.82z" fill="#eaa378"/><path d="m20 30v9.82a2.77 2.77 0 0 1 -1 .18v-10z" fill="#eaa378"/><path d="m26 33v10a2.77 2.77 0 0 1 -1-.18v-9.82z" fill="#7bc1ff"/><path d="m39 33v9.82a2.77 2.77 0 0 1 -1 .18v-10z" fill="#7bc1ff"/><path d="m45 30v10a2.77 2.77 0 0 1 -1-.18v-9.82z" fill="#eaa378"/><path d="m58 30v9.82a2.77 2.77 0 0 1 -1 .18v-10z" fill="#eaa378"/></g></svg>