<svg height="512" viewBox="0 0 500 500" width="512" xmlns="http://www.w3.org/2000/svg"><g id="圖層_16" data-name="圖層 16"><path d="m155.16 208c3.48 44.54-11.63 158.09-41 160.38s-61.89-107.51-65.36-152.05 19.74-54 49.11-56.33 53.78 3.5 57.25 48z" fill="#ff8600"/><path d="m94.51 163.69c-.85-4.39-4.19-22.17-4.33-30.64l8.48.46s1.74 19.29 3.73 28a4 4 0 0 1 -2 4.49 6.18 6.18 0 0 1 -1.59.52 3.38 3.38 0 0 1 -3.08-.64 3.73 3.73 0 0 1 -1.21-2.19z" fill="#00726c"/><path d="m111.51 117.46c1.72-.95 3.39-2.24 4-4.11 1-3.35-.71-9.81-6.41-9.84a9.26 9.26 0 0 0 -7.42 4.37c2-3.21-1.38-7.88-5.16-7.65-3.37.2-6 3.38-6.36 6.74a4.65 4.65 0 0 0 -5.47-3.64 5.59 5.59 0 0 0 -3.83 5.39c-2.25-1.86-6.33-.91-8.64 1.27a9.69 9.69 0 0 0 -3.22 8.32c.5 3.06 3.32 5.75 6.4 5.53a5.44 5.44 0 0 0 -4.3 4.06 8.15 8.15 0 0 0 1 6 8.85 8.85 0 0 0 6.13 4.44 6.37 6.37 0 0 0 6.57-3.21c.07 4.54 5.92 7.25 10.16 5.64s6.81-6 8.13-10.33a7.75 7.75 0 0 0 8.42-13z" fill="#00726c"/><path d="m91 350.35s3.53 36.06 6.78 42.57h4.89s-4.34-30.89-3.8-42.57a4.89 4.89 0 0 0 -4.15-1.82c-3.03 0-3.72 1.82-3.72 1.82z" fill="#f4a130"/><path d="m102.12 390.44c-3.38-1-22.73-6.32-27.71 2.48 0 0-3.11 7.16 8.7 6.85l13.68-.77c3.25 0 6.71-.68 6.71-3.93l-.77-4a.85.85 0 0 0 -.61-.63z" fill="#59261f"/><path d="m126.92 350.35s-3.53 36.06-6.79 42.57h-4.88s4.34-30.89 3.8-42.57a4.86 4.86 0 0 1 4.15-1.82c2.98 0 3.72 1.82 3.72 1.82z" fill="#f4a130"/><path d="m115.75 390.44c3.38-1 22.73-6.32 27.71 2.48 0 0 3.11 7.16-8.7 6.85l-13.68-.77c-3.25 0-6.71-.68-6.71-3.93l.78-4a.86.86 0 0 1 .6-.63z" fill="#59261f"/><path d="m384.81 350.35s3.53 36.06 6.79 42.57h4.88s-4.34-30.89-3.8-42.57a4.86 4.86 0 0 0 -4.15-1.82c-2.98 0-3.72 1.82-3.72 1.82z" fill="#ec7278"/><path d="m396 390.44c-3.38-1-22.74-6.32-27.71 2.48 0 0-3.11 7.16 8.7 6.85l13.68-.74c3.25 0 6.71-.68 6.71-3.93l-.78-4a.86.86 0 0 0 -.6-.66z" fill="#59261f"/><path d="m428.77 350.35s-3.53 36.06-6.79 42.57h-4.88s4.34-30.89 3.8-42.57a4.86 4.86 0 0 1 4.15-1.82c2.95 0 3.72 1.82 3.72 1.82z" fill="#ec7278"/><path d="m417.6 390.44c3.38-1 22.74-6.32 27.71 2.48 0 0 3.11 7.16-8.7 6.85l-13.68-.77c-3.25 0-6.71-.68-6.71-3.93l.78-4a.86.86 0 0 1 .6-.63z" fill="#59261f"/><path d="m216 248.25a8.9 8.9 0 0 1 -17.29 4.14c-4 2.9-8.84 5.2-13.79 4.77s-9.81-4.38-9.85-9.35c-11.13 2.42-22.85-8.88-20.83-20.09-8.27-5.5-10.77-18-5.25-26.3.94-1.39 2.09-2.74 2.34-4.39a10.71 10.71 0 0 0 -.68-4.31 18 18 0 0 1 .92-12.8c2-3.89 6.19-6.78 10.56-6.52 1-10.67 13.5-18.56 23.53-14.8a16.77 16.77 0 0 1 28.37 3 12.44 12.44 0 0 1 22.3 9.62c7.46-.48 16.82.14 19.72 7 1.54 3.63.63 8 2.54 11.49 2.37 4.26 8.43 5.92 9.77 10.61 1.68 5.93-5.28 10.4-11 12.63 3.25 3.4 6.59 7 8 11.44s.35 10.14-3.71 12.51c-4.3 2.51-9.74.47-14.2-1.75a9.69 9.69 0 0 1 -15.53 11.57 7.09 7.09 0 0 1 -14.07 1.28" fill="#3d7e33"/><path d="m285.83 172.61a8.89 8.89 0 0 1 16.1-7.51c3.37-3.65 7.62-6.86 12.56-7.43s10.51 2.33 11.51 7.19c10.42-4.6 24.17 4.13 24.43 15.52 9.2 3.73 14.17 15.52 10.41 24.71-.64 1.55-1.5 3.1-1.41 4.77a10.54 10.54 0 0 0 1.57 4.14 17.94 17.94 0 0 1 1.66 12.72c-1.19 4.22-4.71 7.88-9 8.51 1.2 10.64-9.51 20.88-20.09 19.21a16.77 16.77 0 0 1 -28.4 2.73 12.43 12.43 0 0 1 -23.77-5c-7.21 2-16.51 3.22-20.73-2.94-2.23-3.26-2.22-7.76-4.79-10.75-3.17-3.71-9.44-4.11-11.69-8.44-2.84-5.48 3.09-11.25 8.28-14.59-3.86-2.68-7.85-5.51-10.15-9.6s-2.37-9.87 1.13-13c3.72-3.32 9.45-2.41 14.26-1.13a9.69 9.69 0 0 1 12.91-14.44 7.08 7.08 0 0 1 13.51-4.07" fill="#3d7e33"/><path d="m230.35 350.35s3.53 36.06 6.78 42.57h4.87s-4.34-30.89-3.8-42.57a4.86 4.86 0 0 0 -4.15-1.82c-2.96 0-3.7 1.82-3.7 1.82z" fill="#47a000"/><path d="m241.51 390.44c-3.38-1-22.73-6.32-27.71 2.48 0 0-3.11 7.16 8.7 6.85l13.68-.74c3.25 0 6.71-.68 6.71-3.93l-.77-4a.85.85 0 0 0 -.61-.66z" fill="#59261f"/><path d="m266.31 350.35s-3.53 36.06-6.79 42.57h-4.88s4.34-30.89 3.8-42.57a4.86 4.86 0 0 1 4.15-1.82c2.98 0 3.72 1.82 3.72 1.82z" fill="#47a000"/><path d="m255.14 390.44c3.39-1 22.74-6.32 27.72 2.48 0 0 3.1 7.16-8.71 6.85l-13.68-.77c-3.24 0-6.71-.68-6.71-3.93l.78-4a.86.86 0 0 1 .6-.63z" fill="#59261f"/><path d="m222.79 237.55s0 53.28-5 99.32c-.85 7.79 5.17 14.79 12.67 17.05a67.19 67.19 0 0 0 13.93 2.61 70.72 70.72 0 0 0 21.92-2c8-2 15.2-9.34 13.64-17.44-6.1-31.79-6.1-76.17-6.13-99.55z" fill="#008d00"/><path d="m212.46 228.72c3.23 1.62 7.66 4.48 10.33 8.83h16.71s-7.75-18.6-21.73-20.16a9.9 9.9 0 0 0 -7 3.53l-.06.08a5.1 5.1 0 0 0 1.75 7.72z" fill="#008d00"/><path d="m284.18 228.72c-3.23 1.62-7.65 4.48-10.33 8.83h-16.7s7.75-18.6 21.73-20.16a9.89 9.89 0 0 1 7 3.53l.06.08a5.1 5.1 0 0 1 -1.76 7.72z" fill="#008d00"/><path d="m257.13 200.51c-.9 3.51-1.51 32.17 0 37h-17.63s3.43-13.51 2.81-37.91c-.09-3.4 15.62-2.2 14.82.91z" fill="#008d00"/><path d="m273.85 237.55s-25.28-17.54-51.06 0z" fill="#008d00"/><path d="m232.61 141.67a7.55 7.55 0 0 1 13.67-6.38c2.86-3.1 6.46-5.82 10.65-6.3s8.91 2 9.78 6.1c8.84-3.91 20.5 3.5 20.72 13.16 7.81 3.17 12 13.18 8.83 21a9.9 9.9 0 0 0 -1.19 4.05 9.15 9.15 0 0 0 1.29 3.47 15.23 15.23 0 0 1 1.41 10.79c-1 3.57-4 6.69-7.67 7.22 1 9-8.07 17.72-17.05 16.3a14.22 14.22 0 0 1 -24.05 2.3 10.56 10.56 0 0 1 -20.18-4.21c-6.12 1.66-13.53 2.38-17.59-2.5a16.85 16.85 0 0 1 -4.06-9.12s-8.11 0-9.92-7.16c-1.28-5.08 2.62-9.55 7-12.38-3.28-2.28-6.66-4.67-8.62-8.15s-2-8.37 1-11c3.15-2.82 8-2 12.1-1a8.22 8.22 0 0 1 10.95-12.25 6.23 6.23 0 0 1 4.16-7c2.79-.8 7.66.31 8.77 3.06z" fill="#47a000"/><path d="m490 286c-3.63 32.88-29.88 78.14-59.39 79.47-9.21.42-17-2.19-26.17-3.21-10-1.1-18.56-.85-28.11-3.85-30.13-9.41-42.33-57.11-38.78-89.24 3.17-28.64 20.58-46.51 45.24-50.66 16.09-2.71 23.37 4.65 36.81 6.13 13.28 1.47 26.44-3.22 36.88 1.87 22.65 11.03 36.65 30.71 33.52 59.49z" fill="#ff404c"/><path d="m418.22 225.21s-1.24-24.57 8.18-34.54c0 0 11.85 2.29 6.65 5.63a45.94 45.94 0 0 0 -9.86 29.46s-3.01 2.08-4.97-.55z" fill="#59261f"/><path d="m424.48 215.92s18.52-35.52 54.73-17.24c0 0-14.9 39.18-54.73 17.24z" fill="#47a000"/><path d="m19.56 235.73s5.34 38.27 39.59 25.38l1.15 7.53s-38 15.7-47.48-31.82z" fill="#ff8600"/><path d="m12.82 236.82s-6.88-.25-7.82-14.19c0 0-.16-3.23 1.73-2.54 0 0 .82.46 1.48 3.55 0 0 .36.67.18-2.24-.1-1.65-.12-3.86 1.48-4 0 0 1.73-.13 2 2.33.11.9-.14 2.78.38 3.72 0 0 .6.05-.16-4.59-.22-1.31.57-2.79 1.83-2.86 0 0 2.06-.24 2.42 3.13.12 1.12-.09 3.31.39 4.59 0 0-.54-5.67 1.07-6.43 0 0 2.81-1.4 3.26 5.4a5.51 5.51 0 0 1 .57-1.19c1.46-2.51 4.8-.24 3.07 3.08-2 3.82-.65 8.55-5.17 11.19z" fill="#ff8600"/><path d="m468.09 342.21s33.21-16.32 13.12-43.73a4 4 0 0 1 .79-5.58h.08a3.52 3.52 0 0 1 4.53.37s26.79 31.18-15.38 55z" fill="#ec7278"/><path d="m471.23 348.27s1.91 6.61-11 11.86c0 0-3 1.17-3-.85 0 0 .19-.92 2.91-2.52 0 0 .53-.55-2.18.53-1.54.61-3.63 1.33-4.3-.14 0 0-.67-1.6 1.57-2.66.82-.38 2.68-.73 3.42-1.52 0 0-.14-.59-4.31 1.59-1.18.61-2.83.33-3.29-.85 0 0-.87-1.88 2.22-3.28 1-.46 3.17-.95 4.24-1.79 0 0-5.22 2.28-6.45 1 0 0-2.2-2.22 4.11-4.78a5.81 5.81 0 0 1 -1.31-.17c-2.84-.6-1.73-4.48 2-3.87 4.25.7 8.32-2.06 12.25 1.41z" fill="#ec7278"/><g fill="#40220f"><path d="m91.87 228.62a13.44 13.44 0 0 0 23.13-1.83 1.86 1.86 0 0 0 -.65-2.47 1.82 1.82 0 0 0 -2.48.65 10.18 10.18 0 0 1 -7.76 5.73 10 10 0 0 1 -9.1-3.91 1.88 1.88 0 0 0 -2.48-.65 1.84 1.84 0 0 0 -.65 2.48z"/><path d="m110.24 213.49a1.44 1.44 0 0 1 -1.43-1.27 16.76 16.76 0 0 1 0-4.38 6.27 6.27 0 0 1 5.76-5.36 6.45 6.45 0 0 1 6.81 4.24 17.88 17.88 0 0 1 .91 4 1.44 1.44 0 1 1 -2.85.35 15.28 15.28 0 0 0 -.76-3.37 3.58 3.58 0 0 0 -3.83-2.36 3.44 3.44 0 0 0 -3.2 2.95 13.47 13.47 0 0 0 0 3.6 1.44 1.44 0 0 1 -1.27 1.59z"/><path d="m84.15 217.35a1.44 1.44 0 0 1 -1.43-1.27 17.38 17.38 0 0 1 0-4 6.53 6.53 0 0 1 12.72-1.23 18.85 18.85 0 0 1 .81 3.74 1.44 1.44 0 0 1 -2.85.35 16.58 16.58 0 0 0 -.68-3.16 3.66 3.66 0 0 0 -3.91-2.59 3.56 3.56 0 0 0 -3.24 3.25 14.26 14.26 0 0 0 0 3.32 1.44 1.44 0 0 1 -1.27 1.59z"/><path d="m399.85 289.15a13.43 13.43 0 0 0 22.8 4.28c1.52-1.75-1-4.32-2.57-2.56a9.83 9.83 0 0 1 -16.74-2.68 1.87 1.87 0 0 0 -2.22-1.27 1.83 1.83 0 0 0 -1.27 2.23z"/><path d="m401.67 277.36a6.91 6.91 0 0 1 -1.19-.1 6.46 6.46 0 0 1 -5.46-5.87 17.72 17.72 0 0 1 .17-4.11 1.44 1.44 0 1 1 2.85.42 15.39 15.39 0 0 0 -.16 3.44 3.62 3.62 0 0 0 3.08 3.29 3.45 3.45 0 0 0 3.86-2 13.71 13.71 0 0 0 1-3.46 1.44 1.44 0 1 1 2.84.43 16 16 0 0 1 -1.18 4.21 6.2 6.2 0 0 1 -5.81 3.75z"/><path d="m427.78 280.48a6.89 6.89 0 0 1 -1.1-.09 6.55 6.55 0 0 1 -5.5-6.17 18.94 18.94 0 0 1 .2-3.82 1.43 1.43 0 1 1 2.84.41 15.2 15.2 0 0 0 -.16 3.22 3.65 3.65 0 0 0 3.09 3.52 3.52 3.52 0 0 0 4-2.28 14 14 0 0 0 .85-3.21 1.44 1.44 0 0 1 2.84.43 16.9 16.9 0 0 1 -1 3.87 6.45 6.45 0 0 1 -6.06 4.12z"/><path d="m239.57 265.34c0-3.12 3.85-2.32 8.6-2.32s8.6-.8 8.6 2.32-3.85 5.64-8.6 5.64-8.6-2.52-8.6-5.64z"/><circle cx="260.69" cy="256.54" r="2.66"/><circle cx="237.19" cy="256.54" r="2.66"/></g><path d="m311.33 309.36a5.75 5.75 0 0 1 0 6.67l-6.07-8.34z" fill="#ff404c"/><path d="m311.33 309.36s4.56-26.55 28.67-27.56c0 0 2.41.09 2.41-3.67s-2.28-4.68-2.28-4.68-28.43 2.08-34.24 35.74z" fill="#ff404c"/><path d="m308.61 309.19s4.42 3.58 4.35 7.32a9.4 9.4 0 0 1 -1.41 3.51c-.82 1-3 1-5.48.44a8.46 8.46 0 0 0 -2.57-5c-.9-.73-3.53 1.15-4.69-1 0 0 0-3.41 4.36-5.08z" fill="#008d00"/><path d="m303.17 309.36s-4.56-26.55-28.67-27.56c0 0-2.41.09-2.41-3.67s2.28-4.68 2.28-4.68 28.43 2.08 34.24 35.74z" fill="#008d00"/><path d="m298.64 316.29a8 8 0 0 1 5.63-5.26s2.07.19 1.51 1.79c0 0 2.34.18 1.87 2.34 0 0 2.51.38 1.82 2.73 0 0 2.69 1 1.09 2.72 0 0-3.75 4.41-8.16 1.31a12.79 12.79 0 0 1 -3.76-5.63z" fill="#ff404c"/><path d="m194.89 309.36a5.73 5.73 0 0 1 0 6.67l-6.07-8.34z" fill="#008d00"/><path d="m194.89 309.36s4.56-26.55 28.67-27.56c0 0 2.42.09 2.42-3.67s-2.28-4.68-2.28-4.68-28.43 2.08-34.25 35.74z" fill="#008d00"/><path d="m192.18 309.19s4.42 3.58 4.35 7.32a9.49 9.49 0 0 1 -1.42 3.51c-.82 1-3 1-5.47.44a8.5 8.5 0 0 0 -2.58-5c-.9-.73-3.52 1.15-4.68-1 0 0 0-3.41 4.36-5.08z" fill="#ff8600"/><path d="m186.74 309.36s-9.24-27.62-37.19-28.77c0 0-2.42.09-2.42-3.67s2.28-4.68 2.28-4.68 37 3.29 42.77 36.95z" fill="#ff8600"/><path d="m182.21 316.29a8 8 0 0 1 5.63-5.26s2.06.19 1.5 1.79c0 0 2.35.18 1.88 2.34 0 0 2.5.38 1.81 2.73 0 0 2.69 1 1.1 2.72 0 0-3.76 4.41-8.17 1.31a12.81 12.81 0 0 1 -3.75-5.63z" fill="#008d00"/><path d="m53.29 245.51s7 6 28.55 5.34c18.23-.55 35.45-5.46 33.67-.82 0 0-32.29 10.81-61.42-.63z" fill="#ed6f1a"/><path d="m61.85 279.86c4.63.5 12.63 1.2 25.14-1.55 11.32-2.49 31.93-13.27 28.19-7.47 0 0-20.16 15.65-52.13 13.12z" fill="#ed6f1a"/><path d="m72.28 311.32a79.71 79.71 0 0 0 16.93-2c11.32-2.49 31.92-13.26 28.19-7.47 0 0-16.62 12.91-43.61 13.39z" fill="#ed6f1a"/><g opacity=".3"><path d="m74.29 170.16s-24.17 2.47-22.18 40.84c0 0 0 12.44 3 11.9 0 0 3.25.74 1.9-15.18 0 0-3.79-21.88 13.25-31.35-.03.01 11.39-4.05 4.03-6.21z" fill="#fff"/></g><g opacity=".3"><path d="m54.61 230.28s1.5-4.84 4.17 0c0 0 2.5 9-.83 10 .05 0-3.17 1.33-3.34-10z" fill="#fff"/></g><g opacity=".3"><path d="m364.1 234.89a3.44 3.44 0 0 0 -4.23-.14c-5 3.48-18.93 15.68-17.34 43.27 0 0 0 12.43 3 11.89 0 0 3.25.75 1.9-15.18 0 0-1.87-20.37 14.39-33.19-.03 0 5.09-4.07 2.28-6.65z" fill="#fff"/></g><g opacity=".3"><path d="m345 297.28s1.5-4.84 4.17 0c0 0 2.5 9-.83 10 .03 0-3.14 1.33-3.34-10z" fill="#fff"/></g><g opacity=".3"><path d="m273 313.87s0-12.44-3-11.9c0 0-3.25-.74-1.9 15.19 0 0 .26 19.53 2.37 21.81 3.6 3.89 4.03-2.4 2.53-25.1z" fill="#fff"/></g><g opacity=".3"><path d="m271.58 294.72s-1.72 4.76-4.16-.19c0 0-2.09-9.11 1.29-9.95 0 0 3.22-1.19 2.87 10.14z" fill="#fff"/></g><path d="m428 215.8s19.33-22.37 47.64-14.76a80.18 80.18 0 0 0 -47.64 14.76z" fill="#3d7e33"/></g></svg>