<svg id="Layer_1" enable-background="new 0 0 512 512" viewBox="0 0 512 512" xmlns="http://www.w3.org/2000/svg"><g><path clip-rule="evenodd" d="m36.06 18.1h439.88c19.84 0 36.06 16.21 36.06 36.06v403.68c0 19.81-16.21 36.06-36.06 36.06h-439.88c-19.81 0-36.06-16.24-36.06-36.06v-403.68c0-19.84 16.25-36.06 36.06-36.06z" fill="#f5f8f9" fill-rule="evenodd"/><path d="m313.49 229.26c-4.11 1.93-9.01.17-10.94-3.97-1.93-4.11-.14-8.99 3.97-10.91l50.66-23.78c4.11-1.9 9.01-.14 10.91 3.97 1.93 4.14.17 9.01-3.97 10.94zm79.57-26.31c-4.39-1.16-7.03-5.67-5.87-10.06 1.16-4.42 5.67-7.03 10.06-5.9l48.42 12.93c4.39 1.16 7.03 5.67 5.87 10.06s-5.67 7.03-10.06 5.87z" fill="#70da40"/><path clip-rule="evenodd" d="m36.06 18.1h439.88c19.84 0 36.06 16.21 36.06 36.06v74.64h-512v-74.64c0-19.84 16.25-36.06 36.06-36.06z" fill="#0593fc" fill-rule="evenodd"/><path clip-rule="evenodd" d="m36.06 18.1h29.4c-19.84 0-36.06 16.21-36.06 36.06v74.64h-29.4v-74.64c0-19.82 16.25-36.06 36.06-36.06z" fill="#0584e3" fill-rule="evenodd"/><path clip-rule="evenodd" d="m67.86 92.28c10.4 0 18.85-8.48 18.85-18.85s-8.45-18.82-18.85-18.82c-10.38 0-18.82 8.45-18.82 18.82 0 10.38 8.45 18.85 18.82 18.85z" fill="#b3dafe" fill-rule="evenodd"/><path clip-rule="evenodd" d="m142.47 92.28c10.37 0 18.82-8.48 18.82-18.85s-8.45-18.82-18.82-18.82c-10.4 0-18.85 8.45-18.85 18.82 0 10.38 8.45 18.85 18.85 18.85z" fill="#b3dafe" fill-rule="evenodd"/><path clip-rule="evenodd" d="m217.05 92.28c10.38 0 18.82-8.48 18.82-18.85s-8.45-18.82-18.82-18.82-18.85 8.45-18.85 18.82c0 10.38 8.48 18.85 18.85 18.85z" fill="#b3dafe" fill-rule="evenodd"/><path d="m274.6 81.71c-4.56 0-8.25-3.71-8.25-8.28 0-4.54 3.68-8.25 8.25-8.25h188.39c4.56 0 8.25 3.71 8.25 8.25 0 4.56-3.69 8.28-8.25 8.28z" fill="#b3dafe"/><g clip-rule="evenodd" fill-rule="evenodd"><path d="m175.78 396.19c-15.25 15.25-36.31 24.66-59.58 24.66-46.52 0-84.25-37.7-84.25-84.25 0-46.52 37.73-84.22 84.25-84.22v84.22z" fill="#ff4155"/><path d="m141.91 231.75c46.52 0 84.25 37.7 84.25 84.22h-84.25z" fill="#70da40"/><path d="m237.38 341.68c0 23.27-9.41 44.33-24.66 59.56l-59.58-59.56z" fill="#fea832"/><path d="m277.2 285.44h32.2c1.42 0 2.58 1.16 2.58 2.55v130.31c0 1.42-1.16 2.55-2.58 2.55h-32.2c-1.42 0-2.58-1.13-2.58-2.55v-130.31c0-1.39 1.17-2.55 2.58-2.55z" fill="#fea832"/><path d="m361.22 246.01h32.23c1.42 0 2.55 1.13 2.55 2.55v169.74c0 1.42-1.13 2.55-2.55 2.55h-32.23c-1.39 0-2.55-1.13-2.55-2.55v-169.74c0-1.42 1.16-2.55 2.55-2.55z" fill="#ff4155"/><path d="m445.27 268.4h32.23c1.39 0 2.55 1.16 2.55 2.58v147.32c0 1.42-1.16 2.55-2.55 2.55h-32.23c-1.42 0-2.55-1.13-2.55-2.55v-147.32c0-1.42 1.13-2.58 2.55-2.58z" fill="#fea832"/><path d="m293.3 248.11c10.15 0 18.45-8.31 18.45-18.45 0-10.15-8.31-18.45-18.45-18.45-10.15 0-18.45 8.31-18.45 18.45s8.31 18.45 18.45 18.45z" fill="#70da40"/><path d="m377.35 208.65c10.15 0 18.43-8.28 18.43-18.43s-8.28-18.45-18.43-18.45c-10.18 0-18.45 8.31-18.45 18.45s8.27 18.43 18.45 18.43z" fill="#70da40"/><path d="m461.37 231.07c10.18 0 18.45-8.28 18.45-18.45 0-10.15-8.28-18.43-18.45-18.43-10.15 0-18.43 8.28-18.43 18.43 0 10.17 8.28 18.45 18.43 18.45z" fill="#70da40"/><path d="m29.4 128.8v329.05c0 19.84 16.21 36.06 36.06 36.06h-29.4c-19.81-.01-36.06-16.23-36.06-36.07v-329.04z" fill="#dddfe0"/></g></g></svg>