<svg id="icons" enable-background="new 0 0 64 64" height="512" viewBox="0 0 64 64" width="512" xmlns="http://www.w3.org/2000/svg"><g><g><path d="m62.99 5.753h-61.98v55.494h62v-55.494z" fill="#e6e9ed"/></g><g><path d="m5.02 9.763h54v32h-54z" fill="#ed5565"/></g><g><path d="m48.01 16.753v6.99h-3v-10c1.66.01 3 1.35 3 3.01z" fill="#e6e9ed"/></g><g><path d="m36.02 21.753h-6c0-1.66 1.341-3 3-3 1.66 0 3 1.34 3 3z" fill="#fc6e51"/></g><g><path d="m19.51 16.753v2c0 .55-.439.99-1 1h-.01-1.49-1.51c-.55 0-1-.45-1-1h.01v-2z" fill="#e6e9ed"/></g><g><path d="m24.02 15.753h10c3.311 0 6 2.68 6 6h-4c0-1.66-1.34-3-3-3-1.659 0-3 1.34-3 3h-6c1.66 0 3-1.34 3-3s-1.34-3-3-3z" fill="#a0d468"/></g><g><path d="m40.02 21.753h1v3c0 2.77-2.239 5-5 5h-8c-2.76 0-5-2.23-5-5v-3h1 6 6z" fill="#e6e9ed"/></g><g><path d="m62.99 5.753h-61.98-.02v-2c0-1.11.899-2 2-2h58c1.109 0 2 .89 2 2z" fill="#ccd1d9"/></g><g><path d="m4.021 4.75c-.553 0-1.005-.447-1.005-1s.442-1 .994-1h.011c.552 0 1 .447 1 1s-.448 1-1 1z" fill="#e6e9ed"/></g><g><path d="m7.021 4.75c-.553 0-1.005-.447-1.005-1s.442-1 .994-1h.011c.552 0 1 .447 1 1s-.448 1-1 1z" fill="#e6e9ed"/></g><g><path d="m10.021 4.75c-.553 0-1.005-.447-1.005-1s.442-1 .994-1h.011c.552 0 1 .447 1 1s-.448 1-1 1z" fill="#e6e9ed"/></g><path d="m59.015 42.762h-53.999c-.553 0-1-.447-1-1v-31.996c0-.553.447-1 1-1h53.999c.553 0 1 .447 1 1v31.996c0 .552-.448 1-1 1zm-52.999-2h51.999v-29.996h-51.999z" fill="#ed5565"/><path d="m17.005 31.756c-.553 0-1-.447-1-1v-11.002c0-.553.447-1 1-1s1 .447 1 1v11.002c0 .553-.447 1-1 1z" fill="#ccd1d9"/><path d="m14.505 19.752c-.553 0-1-.447-1-1v-5.002c0-.553.447-1 1-1s1 .447 1 1v5.002c0 .553-.447 1-1 1z" fill="#ccd1d9"/><path d="m19.506 19.752c-.553 0-1-.447-1-1v-5.002c0-.553.447-1 1-1s1 .447 1 1v5.002c0 .553-.447 1-1 1z" fill="#ccd1d9"/><path d="m45.006 31.756c-.553 0-1-.447-1-1v-17.01c0-.553.447-1 1-1s1 .447 1 1v17.01c0 .553-.447 1-1 1z" fill="#ccd1d9"/><path d="m48.006 17.752c-.553 0-1-.447-1-1 0-1.106-.899-2.006-2.006-2.006-.553 0-1-.447-1-1s.447-1 1-1c2.209 0 4.006 1.797 4.006 4.006 0 .553-.447 1-1 1z" fill="#e6e9ed"/><path d="m48.006 24.748c-.553 0-1-.447-1-1v-6.996c0-.553.447-1 1-1s1 .447 1 1v6.996c0 .553-.447 1-1 1z" fill="#e6e9ed"/><path d="m48.006 24.748h-3c-.553 0-1-.447-1-1s.447-1 1-1h3c.553 0 1 .447 1 1s-.447 1-1 1z" fill="#e6e9ed"/><path d="m17.004 17.748c-.553 0-1-.447-1-1v-2.998c0-.553.447-1 1-1s1 .447 1 1v2.998c0 .553-.447 1-1 1z" fill="#ccd1d9"/><path d="m47 35.75h-29.97c-.553 0-1-.447-1-1s.447-1 1-1h29.97c.553 0 1 .447 1 1s-.447 1-1 1z" fill="#da4453"/><path d="m61.999 62.247h-59.983c-.553 0-1-.447-1-1s.447-1 1-1h59.983c.553 0 1 .447 1 1s-.447 1-1 1z" fill="#e6e9ed"/><path d="m39.01 38.75h-13.989c-.553 0-1-.447-1-1s.447-1 1-1h13.989c.553 0 1 .447 1 1s-.447 1-1 1z" fill="#da4453"/><g><path d="m40.018 22.754c-.553 0-1-.447-1-1 0-2.757-2.243-5-5-5-.553 0-1-.447-1-1s.447-1 1-1c3.859 0 7 3.141 7 7 0 .553-.448 1-1 1z" fill="#a0d468"/></g><g><path d="m34.018 16.754h-10.001c-.553 0-1-.447-1-1s.447-1 1-1h10.001c.553 0 1 .447 1 1s-.448 1-1 1z" fill="#a0d468"/></g><g><path d="m27.017 19.754c-.553 0-1-.447-1-1 0-1.103-.897-2-2-2-.553 0-1-.447-1-1s.447-1 1-1c2.206 0 4 1.794 4 4 0 .553-.448 1-1 1z" fill="#a0d468"/></g><g><path d="m24.02 22.754c-.553 0-1-.447-1-1s.447-1 1-1c1.102 0 1.997-.896 1.997-1.996 0-.553.447-1 1-1s1 .447 1 1c0 2.203-1.793 3.996-3.997 3.996z" fill="#a0d468"/></g><g><path d="m36.018 22.754c-.553 0-1-.447-1-1 0-1.103-.897-2-2-2s-2 .897-2 2c0 .553-.447 1-1 1s-1-.447-1-1c0-2.206 1.794-4 4-4s4 1.794 4 4c0 .553-.448 1-1 1z" fill="#fc6e51"/></g><g fill="#e6e9ed"><path d="m15.501 20.752c-1.102 0-1.997-.896-1.997-1.998 0-.553.447-1 1-1s1 .447 1 1v.001c.553 0 .999.446.999.999 0 .552-.449.998-1.002.998z"/><path d="m18.504 20.754c-.553 0-1-.447-1-1s.447-1 1-1c0-.553.448-1.001 1.001-1.001s1.001.446 1.001.999c0 1.103-.899 2.002-2.002 2.002z"/><path d="m18.507 20.752h-3.006c-.553 0-1-.447-1-1s.447-1 1-1h3.006c.553 0 1 .447 1 1s-.447 1-1 1z"/><path d="m19.506 17.75h-5.001c-.553 0-1-.447-1-1s.447-1 1-1h5.001c.553 0 1 .447 1 1s-.447 1-1 1z"/><path d="m13.505 15.75h2v3.002h-2z"/><path d="m18.506 15.75h2v3.002h-2z"/><path d="m44 13.743h2.503v11.005h-2.503z"/></g><g><path d="m28.019 30.756c-3.309 0-6-2.691-6-6 0-.553.447-1 1-1s1 .447 1 1c0 2.206 1.794 4 4 4 .553 0 1 .447 1 1s-.448 1-1 1z" fill="#e6e9ed"/></g><g><path d="m36.017 30.756c-.553 0-1-.447-1-1s.447-1 1-1c2.206 0 4-1.794 4-4 0-.553.447-1 1-1s1 .447 1 1c0 3.308-2.692 6-6 6z" fill="#e6e9ed"/></g><g><path d="m36.017 30.756h-7.998c-.553 0-1-.447-1-1s.447-1 1-1h7.998c.553 0 1 .447 1 1s-.448 1-1 1z" fill="#e6e9ed"/></g><g><path d="m23.019 25.756c-.553 0-1-.447-1-1v-3.002c0-.553.447-1 1-1s1 .447 1 1v3.002c0 .553-.448 1-1 1z" fill="#e6e9ed"/></g><g><path d="m41.017 22.754h-17.998c-.553 0-1-.447-1-1s.447-1 1-1h17.998c.553 0 1 .447 1 1s-.448 1-1 1z" fill="#e6e9ed"/></g><g><path d="m41.017 25.756c-.553 0-1-.447-1-1v-3.002c0-.553.447-1 1-1s1 .447 1 1v3.002c0 .553-.448 1-1 1z" fill="#e6e9ed"/></g><g><g><path d="m54.05 51.754h-5v-1.49c0-1.38 1.12-2.5 2.5-2.5 1.37 0 2.5 1.12 2.5 2.5z" fill="#ccd1d9"/></g><g><path d="m58.01 55.765h-12.994c-.553 0-1-.447-1-1s.447-1 1-1h12.994c.553 0 1 .447 1 1s-.447 1-1 1z" fill="#ccd1d9"/><path d="m55.016 58.765h-7.006c-.553 0-1-.447-1-1s.447-1 1-1h7.006c.553 0 1 .447 1 1s-.448 1-1 1z" fill="#ccd1d9"/><g><path d="m51.545 48.767c-.553 0-1-.447-1-1v-1.018c0-.553.447-1 1-1s1 .447 1 1v1.018c0 .552-.447 1-1 1z" fill="#aab2bd"/></g><g><g><path d="m54.045 51.267c-.553 0-1-.447-1-1 0-.827-.673-1.5-1.5-1.5s-1.5.673-1.5 1.5c0 .553-.447 1-1 1s-1-.447-1-1c0-1.93 1.57-3.5 3.5-3.5s3.5 1.57 3.5 3.5c0 .552-.447 1-1 1z" fill="#ccd1d9"/></g><g><path d="m54.045 52.751c-.553 0-1-.447-1-1v-1.484c0-.553.447-1 1-1s1 .447 1 1v1.484c0 .553-.447 1-1 1z" fill="#ccd1d9"/></g><g><path d="m49.045 52.751c-.553 0-1-.447-1-1v-1.484c0-.553.447-1 1-1s1 .447 1 1v1.484c0 .553-.447 1-1 1z" fill="#ccd1d9"/></g></g><g><path d="m55.031 52.751h-7c-.553 0-1-.447-1-1s.447-1 1-1h7c.553 0 1 .447 1 1s-.447 1-1 1z" fill="#656d78"/></g></g></g><g><g><path d="m34.537 51.754h-5v-1.49c0-1.38 1.12-2.5 2.5-2.5 1.37 0 2.5 1.12 2.5 2.5z" fill="#ccd1d9"/></g><g><path d="m38.497 55.765h-12.994c-.553 0-1-.447-1-1s.447-1 1-1h12.994c.553 0 1 .447 1 1s-.447 1-1 1z" fill="#ccd1d9"/><path d="m35.503 58.765h-7.006c-.553 0-1-.447-1-1s.447-1 1-1h7.006c.553 0 1 .447 1 1s-.447 1-1 1z" fill="#ccd1d9"/><g><path d="m32.032 48.767c-.553 0-1-.447-1-1v-1.018c0-.553.447-1 1-1s1 .447 1 1v1.018c0 .552-.447 1-1 1z" fill="#aab2bd"/></g><g><g><path d="m34.532 51.267c-.553 0-1-.447-1-1 0-.827-.673-1.5-1.5-1.5s-1.5.673-1.5 1.5c0 .553-.447 1-1 1s-1-.447-1-1c0-1.93 1.57-3.5 3.5-3.5s3.5 1.57 3.5 3.5c0 .552-.447 1-1 1z" fill="#ccd1d9"/></g><g><path d="m34.532 52.751c-.553 0-1-.447-1-1v-1.484c0-.553.447-1 1-1s1 .447 1 1v1.484c0 .553-.447 1-1 1z" fill="#ccd1d9"/></g><g><path d="m29.532 52.751c-.553 0-1-.447-1-1v-1.484c0-.553.447-1 1-1s1 .447 1 1v1.484c0 .553-.447 1-1 1z" fill="#ccd1d9"/></g></g><g><path d="m35.519 52.751h-7c-.553 0-1-.447-1-1s.447-1 1-1h7c.553 0 1 .447 1 1s-.448 1-1 1z" fill="#656d78"/></g></g></g><g><g><path d="m15.024 51.754h-5v-1.49c0-1.38 1.12-2.5 2.5-2.5 1.37 0 2.5 1.12 2.5 2.5z" fill="#ccd1d9"/></g><g><path d="m18.984 55.765h-12.994c-.553 0-1-.447-1-1s.447-1 1-1h12.994c.553 0 1 .447 1 1s-.447 1-1 1z" fill="#ccd1d9"/><path d="m15.99 58.765h-7.006c-.553 0-1-.447-1-1s.447-1 1-1h7.006c.553 0 1 .447 1 1s-.447 1-1 1z" fill="#ccd1d9"/><g><path d="m12.52 48.767c-.553 0-1-.447-1-1v-1.018c0-.553.447-1 1-1s1 .447 1 1v1.018c0 .552-.448 1-1 1z" fill="#aab2bd"/></g><g><g><path d="m15.02 51.267c-.553 0-1-.447-1-1 0-.827-.673-1.5-1.5-1.5s-1.5.673-1.5 1.5c0 .553-.447 1-1 1s-1-.447-1-1c0-1.93 1.57-3.5 3.5-3.5s3.5 1.57 3.5 3.5c0 .552-.448 1-1 1z" fill="#ccd1d9"/></g><g><path d="m15.02 52.751c-.553 0-1-.447-1-1v-1.484c0-.553.447-1 1-1s1 .447 1 1v1.484c0 .553-.448 1-1 1z" fill="#ccd1d9"/></g><g><path d="m10.02 52.751c-.553 0-1-.447-1-1v-1.484c0-.553.447-1 1-1s1 .447 1 1v1.484c0 .553-.448 1-1 1z" fill="#ccd1d9"/></g></g><g><path d="m16.006 52.751h-7c-.553 0-1-.447-1-1s.447-1 1-1h7c.553 0 1 .447 1 1s-.447 1-1 1z" fill="#656d78"/></g></g></g></g></svg>