<svg xmlns="http://www.w3.org/2000/svg" version="1.1" xmlns:xlink="http://www.w3.org/1999/xlink" width="512" height="512" x="0" y="0" viewBox="0 0 512 512" style="enable-background:new 0 0 512 512" xml:space="preserve" class=""><g><rect width="320" height="464" x="184" y="40" fill="#3a7c3f" rx="10" opacity="1" data-original="#25b1fa" class=""></rect><rect width="320" height="464" x="184" y="40" fill="#90d864" rx="10" opacity="1" data-original="#80daff" class=""></rect><g fill="#25b1fa"><path d="M216 72h256v400H216z" fill="#3a7c3f" opacity="1" data-original="#25b1fa" class=""></path><path d="M216 72h256v400H216z" fill="#3a7c3f" opacity="1" data-original="#25b1fa" class=""></path></g><path fill="#f2faff" d="M216 72h256v400H216z" opacity="1" data-original="#f2faff" class=""></path><path fill="#f2faff" d="M216 72h256v400H216z" opacity="1" data-original="#f2faff" class=""></path><path fill="#3a7c3f" d="M374.992 32a32.011 32.011 0 0 0-61.984 0H258a10 10 0 0 0-10 10v44a10 10 0 0 0 10 10h172a10 10 0 0 0 10-10V42a10 10 0 0 0-10-10z" opacity="1" data-original="#25b1fa" class=""></path><g fill="#80daff"><path d="M280 304h16v16h-16zM312 304h128v16H312zM312 384h128v16H312zM328 424h88v16h-88zM304 344h40v16h-40zM360 344h80v16h-80z" fill="#90d864" opacity="1" data-original="#80daff" class=""></path></g><g fill="#f2faff"><path d="M272 56h16v16h-16zM400 56h16v16h-16zM336 32h16v16h-16z" fill="#f2faff" opacity="1" data-original="#f2faff" class=""></path></g><g fill="#80daff"><path d="M256 184h56v32h-56zM256 232h56v40h-56zM256 128h56v40h-56zM328 128h104v40H328zM328 184h104v32H328zM328 232h104v40H328z" fill="#90d864" opacity="1" data-original="#80daff" class=""></path></g><path fill="#55e1b2" d="M35.385 227.956a64.007 64.007 0 0 1 122.931-10.033A64 64 0 0 1 226.3 326.175a64 64 0 1 1-107.1 65.512 64 64 0 0 1-67.982-108.253 63.908 63.908 0 0 1-15.833-55.478z" opacity="1" data-original="#55e1b2" class=""></path><path fill="#48bf97" d="m198.784 252.24-13.568-8.48-34.505 55.208-56.175-79.581-13.072 9.226L117.737 280H80v16h49.031l48.433 68.613 13.072-9.226-29.818-42.242z" opacity="1" data-original="#48bf97"></path><path fill="#fffefa" d="M168 392c0 30.928 28.654 64 64 64s64-33.072 64-64-28.654-88-64-88-64 57.072-64 88z" opacity="1" data-original="#fffefa"></path><circle cx="232" cy="400" r="32" fill="#fdbf44" opacity="1" data-original="#fdbf44"></circle><path fill="#fba35f" d="M252 504H68a60 60 0 0 1-60-60v-20h304v20a60 60 0 0 1-60 60z" opacity="1" data-original="#fba35f" class=""></path><path fill="#ff6672" d="M199.634 424c.238-2.635.366-5.3.366-8a88 88 0 0 0-176 0c0 2.7.128 5.365.366 8z" opacity="1" data-original="#ff6672" class=""></path><path fill="#ffefed" d="M159.324 424a48 48 0 1 0-94.648 0z" opacity="1" data-original="#ffefed" class=""></path></g></svg>