<svg xmlns="http://www.w3.org/2000/svg" version="1.1" xmlns:xlink="http://www.w3.org/1999/xlink" width="512" height="512" x="0" y="0" viewBox="0 0 512 512" style="enable-background:new 0 0 512 512" xml:space="preserve" class=""><g><path fill="#f4d7c8" d="M230.995 113.806c12.046 38.114-17.043 59.743-51.686 72.314l.723 66.708a59.977 59.977 0 0 1 15.746 40.507v21.574a5.35 5.35 0 0 0 5.349 5.349h94.711l11.434-2.675a5.349 5.349 0 0 0 5.349-5.389l-.015-12.296c-.064-17.18 4.535-31.38 13.307-46.152a94.926 94.926 0 0 0 13.308-48.472v-91.469H230.995z" opacity="1" data-original="#f4d7c8" class=""></path><path fill="#efc3b1" d="m238.713 181.094-3.111 13.979c4.646 5.079 8.396 10.796 11.044 17.029l2.998 4.893 13.258-17.853a4.11 4.11 0 0 1 2.802-1.638l1.996-.245h48.566a6.18 6.18 0 0 1 6.181 6.184l-.001 1.829a94.858 94.858 0 0 1-13.31 48.47 95.012 95.012 0 0 0-13.31 48.83l.01 17.688h14.113a5.351 5.351 0 0 0 5.347-5.388l-.021-12.3a94.953 94.953 0 0 1 13.163-48.586c8.838-14.984 13.457-32.08 13.457-49.477v-23.416H238.713z" opacity="1" data-original="#efc3b1" class=""></path><path fill="#7b7179" d="M118.731 127.187h280.995v57.654H118.731z" opacity="1" data-original="#7b7179"></path><path fill="#f4d7c8" d="m257.714 145.446 4.012-48.262c0-11.396 9.238-20.634 20.635-20.634 3.667 0 17.96 9.238 17.96 20.634l2.675 48.262c0 11.396-9.238 20.635-20.634 20.635-11.397-.001-24.648-9.239-24.648-20.635zM230.995 103.504h-13.468l.256-1.752c0-11.396-13.598-20.634-17.96-20.634-11.396 0-20.634 9.238-20.634 20.634v73.27l.12 11.098c34.643-12.571 63.732-44.502 51.686-82.616z" opacity="1" data-original="#f4d7c8" class=""></path><path fill="#f4d7c8" d="m207.084 163.19 13.373-78.368c0-11.396 9.238-20.635 20.635-20.635 5.444 0 17.96 9.238 17.96 20.635l2.675 70.013z" opacity="1" data-original="#f4d7c8" class=""></path><path fill="#efc3b1" d="M220.457 101.751c0-11.396-9.238-20.634-20.634-20.634v80.755l20.635-13.663zM261.726 154.835V84.822c0-11.396-9.238-20.634-20.634-20.634v94.825zM256.431 271.018a7.704 7.704 0 0 1-1.948-.251 7.727 7.727 0 0 1-5.536-9.421l.602-2.318a72.5 72.5 0 0 0-15.559-65.941 7.726 7.726 0 0 1 11.641-10.161 87.942 87.942 0 0 1 18.875 79.987l-.602 2.318a7.73 7.73 0 0 1-7.473 5.787zM282.362 148.528V76.551c11.394 0 20.633 9.35 20.633 20.744v48.151z" opacity="1" data-original="#efc3b1" class=""></path><path fill="#f4d7c8" d="M180.031 252.827a49.547 49.547 0 0 1-13.008-33.464v-24.006a29.41 29.41 0 0 1 12.532-24.085l48.639-34.084a30.481 30.481 0 0 1 17.493-5.519h46.114c6.183 0 11.194 5.012 11.194 11.195 0 17.035-12.7 31.397-29.606 33.482l-20.421 2.518-14.516 19.56z" opacity="1" data-original="#f4d7c8" class=""></path><path fill="#f4d7c8" d="m338.981 108.652-.113 36.798c0 5.357-1.216 9.869-4.718 13.392a19.802 19.802 0 0 1-6.614 4.327c-2.194.876-2.534 3.41-5.048 3.41h-.021c-2.514 0-4.914-.474-7.108-1.35a19.787 19.787 0 0 1-6.614-4.327c-3.503-3.523-5.748-10.096-5.748-15.453l-.113-36.798c0-10.724 8.87-19.419 19.594-19.419 10.724.001 16.503 8.695 16.503 19.42z" opacity="1" data-original="#f4d7c8" class=""></path><path fill="#efc3b1" d="m342.072 108.652-.113 36.798c0 5.357-2.246 11.93-5.748 15.453a19.802 19.802 0 0 1-6.614 4.327 19.131 19.131 0 0 1-7.108 1.35h-.01V89.233c10.723 0 19.593 8.694 19.593 19.419z" opacity="1" data-original="#efc3b1" class=""></path><path fill="#7b7179" d="M39.917 171.807H10c-5.523 0-10-4.477-10-10v-15.706c0-5.523 4.477-10 10-10h29.917z" opacity="1" data-original="#7b7179"></path><path fill="#9b8e99" d="m86.644 237.173-27.567 2.06H41.812c-5.69 0-10.302-4.612-10.302-10.302V78.977c0-5.69 4.612-10.302 10.302-10.302h17.265l27.567 2.06z" opacity="1" data-original="#9b8e99" class=""></path><path fill="#e974cf" d="m319.229 363.556-60.024 7.72-69.514-7.72V310.25a5.15 5.15 0 0 1 5.151-5.151H295.83l18.248 2.06a5.15 5.15 0 0 1 5.151 5.151z" opacity="1" data-original="#5de1c4" class=""></path><path fill="#c94bad" d="M316.138 305.098H295.83v58.458h25.459v-53.307a5.15 5.15 0 0 0-5.151-5.151z" opacity="1" data-original="#0ed2b3" class=""></path><path fill="#e974cf" d="m332.78 433.21-21.222 2.06c9.055 0 23.756 6.717 24.961 15.442.113.814.175 1.638.175 2.483l1.03 11.888a4.12 4.12 0 0 1-4.121 4.121l-40.865 2.06H176.45a4.12 4.12 0 0 1-4.121-4.121v-13.949c0-.845.062-1.669.175-2.483.592-4.286 6.822-6.028 9.887-8.787 3.175-2.857 3.256-6.656 7.863-6.656h-9.9c-.155 0-.309 0-.453-.01a17.82 17.82 0 0 1-12.218-5.244 17.875 17.875 0 0 1-5.079-15.165c.725-5.246 7.841-7.705 12.083-10.475 2.814-1.838 2.056-2.907 5.667-2.907l9.9-2.06c-.155 0-.309 0-.464-.01-4.77-.113-9.066-2.102-12.208-5.244a17.851 17.851 0 0 1-5.254-12.671c0-9.9 8.025-17.925 17.925-17.925h106.143l25.463 2.06c4.945 0 7.376-.052 10.611 3.194a17.851 17.851 0 0 1 5.254 12.671c0 9.745-7.778 17.667-17.462 17.915-.155.01-.309.01-.464.01l12.98 2.06c4.945 0 9.436 2.009 12.671 5.254 2.689 2.689 2.472 4.172 3.018 8.128.113.814.175 1.638.175 2.483 0 9.745-5.717 15.618-15.401 15.865-.152.013-.307.013-.461.013z" opacity="1" data-original="#86e8d0" class=""></path><path fill="#e974cf" d="M344.884 404.664a17.851 17.851 0 0 0-12.671-5.254h-10.92c.155 0 .309 0 .464-.01 9.684-.247 17.462-8.169 17.462-17.915 0-4.955-2.009-9.426-5.254-12.671a17.851 17.851 0 0 0-12.671-5.254H295.83v96.548c0 3.931-1.068 7.787-3.091 11.158h42.358a4.121 4.121 0 0 0 4.121-4.121v-13.949c0-.845-.062-1.669-.175-2.483-1.205-8.726-8.695-15.442-17.75-15.442h10.92c.155 0 .309 0 .464-.01 9.684-.247 17.462-8.18 17.462-17.925 0-.845-.062-1.669-.175-2.483a17.866 17.866 0 0 0-5.08-10.189zM230.39 442.987a7.722 7.722 0 0 1-7.726 7.726h-50.726c1.205-8.726 8.695-15.442 17.75-15.442l32.976-.01a7.729 7.729 0 0 1 7.726 7.726z" opacity="1" data-original="#5de1c4" class=""></path><path fill="#e974cf" d="M336.983 450.713h-59.071a7.722 7.722 0 0 1-7.726-7.726 7.729 7.729 0 0 1 7.726-7.726l43.381.01c9.055 0 14.484 6.716 15.69 15.442z" opacity="1" data-original="#5de1c4" class=""></path><path fill="#c94bad" d="M295.83 435.265v15.448h43.213c-1.205-8.726-8.695-15.442-17.75-15.442z" opacity="1" data-original="#0ed2b3" class=""></path><path fill="#e974cf" d="M218.223 407.126a7.722 7.722 0 0 1-7.726 7.726h-48.46c1.205-8.726 8.695-15.442 17.75-15.442h9.9c-.155 0-.309 0-.464-.01h21.273a7.729 7.729 0 0 1 7.727 7.726zM347.902 414.852H288.11a7.722 7.722 0 0 1-7.726-7.726 7.729 7.729 0 0 1 7.726-7.726h33.646c-.155.01-.309.01-.464.01l10.92 2.06c4.945 0 7.376-.052 10.611 3.194a17.86 17.86 0 0 1 5.079 10.188z" opacity="1" data-original="#5de1c4" class=""></path><path fill="#c94bad" d="M295.83 399.4v15.453h54.133a17.856 17.856 0 0 0-5.079-10.188 17.851 17.851 0 0 0-12.671-5.254h-10.92c.155 0 .309 0 .464-.01H295.83z" opacity="1" data-original="#0ed2b3" class=""></path><path fill="#8b8089" d="M59.077 68.675h27.567v170.559H59.077z" opacity="1" data-original="#8b8089" class=""></path><path fill="#9b8e99" d="m118.829 265.113-12.558 2.06H91.652c-5.69 0-10.302-4.612-10.302-10.302V51.037c0-5.69 4.612-10.302 10.302-10.302h14.618l13.588 2.06c5.69 0 10.302 4.612 10.302 10.302l-1.03 201.714c.001 5.69-4.612 10.302-10.301 10.302z" opacity="1" data-original="#9b8e99" class=""></path><path fill="#8b8089" d="M120.889 40.735h-14.618v226.438h14.618c5.69 0 10.302-4.612 10.302-10.302V51.037c0-5.69-4.612-10.302-10.302-10.302z" opacity="1" data-original="#8b8089" class=""></path><path fill="#7b7179" d="M473.16 136.101H502c5.523 0 10 4.477 10 10v15.706c0 5.523-4.477 10-10 10h-28.84z" opacity="1" data-original="#7b7179"></path><path fill="#9b8e99" d="M422.804 68.675h28.843l16.481 2.06c5.69 0 10.302 4.612 10.302 10.302v145.834c0 5.69-4.612 10.302-10.302 10.302l-16.481 2.06h-28.843z" opacity="1" data-original="#9b8e99" class=""></path><path fill="#9b8e99" d="M391.111 40.735h14.618l12.558 2.06c5.69 0 10.302 4.612 10.302 10.302v201.714c0 5.69-4.612 10.302-10.302 10.302l-12.558 2.06h-14.618c-5.69 0-10.302-4.612-10.302-10.302V51.037c0-5.69 4.612-10.302 10.302-10.302z" opacity="1" data-original="#9b8e99" class=""></path><g fill="#8b8089"><path d="M470.188 68.675h-18.541v170.559h18.541c5.69 0 10.302-4.612 10.302-10.302V78.977c0-5.69-4.612-10.302-10.302-10.302zM420.348 40.735H405.73v226.438h14.618c5.69 0 10.302-4.612 10.302-10.302V51.037c-.001-5.69-4.613-10.302-10.302-10.302z" fill="#8b8089" opacity="1" data-original="#8b8089" class=""></path></g></g></svg>