<svg xmlns="http://www.w3.org/2000/svg" version="1.1" xmlns:xlink="http://www.w3.org/1999/xlink" width="512" height="512" x="0" y="0" viewBox="0 0 510 510" style="enable-background:new 0 0 512 512" xml:space="preserve" fill-rule="evenodd" class=""><g><path fill="#f6dccd" d="m53.353 343.865 94.054-54.482c17.66-10.234 35.603-17.49 55.021-11.197 21.628 7.03 56.948 22.082 92.977 28.573 13.379 4.337 21.713 17.717 18.085 31.295-3.657 13.578-15.109 20.579-31.323 18.085l12.614 2.012c14.428 2.325 27.666.341 40.309-7.03l90.426-52.668c70.299-40.932 80.617 22.054 57.26 36.454L318.649 435.963c-15.081 9.269-31.607 11.452-48.728 6.86l-119.028-31.89-44.107 25.455c-8.476 4.876-19.361 1.956-24.265-6.52l-35.66-61.739c-4.875-8.475-1.956-19.36 6.492-24.264z" opacity="1" data-original="#f6dccd" class=""></path><path fill="#f1cbbc" d="M311.335 343.695c-5.017 9.836-15.392 14.57-29.168 12.444-19.474-5.159-38.977-10.432-58.451-15.648-5.216-1.417-8.306-6.774-6.917-11.99s6.775-8.306 11.991-6.917zM53.353 343.865l94.054-54.482c17.66-10.234 35.603-17.49 55.021-11.197 11.565 3.741 27.071 9.808 44.476 15.619L64.691 399.027l-17.83-30.898c-4.875-8.475-1.956-19.36 6.492-24.264z" opacity="1" data-original="#f1cbbc" class=""></path><path fill="#f17272" d="m64.266 316.765 74.609 131.812c3.6 6.378 1.332 14.542-5.018 18.142l-25.398 14.372c-6.35 3.6-14.514 1.332-18.142-5.046l-74.58-131.812c-3.629-6.378-1.361-14.542 5.017-18.142l25.37-14.371c6.378-3.6 14.542-1.333 18.142 5.045z" opacity="1" data-original="#d1d1d6" class=""></path><path fill="#b1b1b5" d="m103.526 407.333 13.181 23.329 13.068 23.074c3.6 6.35 1.361 14.485-4.989 18.114l9.071-5.131c6.35-3.6 8.618-11.764 5.018-18.142l-13.097-23.159-26.305-46.488-26.334-46.517-8.873-15.648c-3.118-5.527-9.666-7.965-15.505-6.179l15.335 27.099 26.306 46.489 13.096 23.131z" opacity="1" data-original="#b1b1b5" class=""></path><path fill="#685e68" d="M45.671 333.887c-4.933.708-8.362 5.329-7.654 10.261.737 4.961 5.329 8.391 10.29 7.654 4.932-.709 8.362-5.301 7.654-10.262-.737-4.96-5.33-8.39-10.29-7.653z" opacity="1" data-original="#685e68"></path><path fill="#fe646f" d="M14.006 140.727c-.014-51.984 42.527-94.525 94.526-94.525h89.996a5.001 5.001 0 0 1 5 5.001l-.011 38.041a5 5 0 0 1-5 4.999h-89.972c-25.582 0-46.498 20.916-46.498 46.498-.014 25.569 20.916 46.499 46.498 46.499h89.972a5 5 0 0 1 5 4.999l.011 38.04a5.004 5.004 0 0 1-5.001 5.001l-89.982-.013c-51.998 0-94.539-42.541-94.539-94.54z" opacity="1" data-original="#fe646f" class=""></path><path fill="#fd4755" d="M14.137 145.716a94.878 94.878 0 0 1-.131-4.989c-.014-51.984 42.527-94.525 94.526-94.525h89.996a5.001 5.001 0 0 1 5 5.001l-.003 9.83a5.001 5.001 0 0 0-4.997-4.831h-89.996c-50.318 0-91.779 39.834-94.395 89.514zm48.177.035c2.509 23.237 22.342 41.489 46.231 41.489h89.972a5 5 0 0 1 5 4.999l.011 38.04-.003.17-.008-28.21a5 5 0 0 0-5-4.999h-89.972c-25.582 0-46.512-20.93-46.498-46.499 0-1.685.09-3.35.267-4.99z" opacity="1" data-original="#fd4755" class=""></path><path fill="#eceff1" d="m170.197 235.281-.014-48.041h28.334a5 5 0 0 1 5 4.999l.011 38.04a5 5 0 0 1-5 5.002h-28.331zm0-141.052V46.202h28.332a5 5 0 0 1 5 5v38.027a5 5 0 0 1-5 5h-28.332z" opacity="1" data-original="#eceff1" class=""></path><path fill="#f17272" d="M170.197 56.202v-10h28.332a5 5 0 0 1 5 5v10a5 5 0 0 0-5-5zm-.011 141.038-.003-10h28.334a5 5 0 0 1 5 4.999l.011 38.04c0 .057-.001.114-.003.17l-.008-28.21a5 5 0 0 0-5-4.999z" opacity="1" data-original="#d1d1d6" class=""></path><path fill="#8ac9fe" d="M231.15 72.498c-4.416 0-8-3.585-8-8s3.584-8 8-8h91.04c4.415 0 8 3.585 8 8s-3.585 8-8 8zm8.825 29.438c-4.416 0-8-3.585-8-8 0-4.416 3.584-8 8-8h56.339c4.415 0 8 3.584 8 8 0 4.415-3.585 8-8 8zm-8.858 29.437a8.003 8.003 0 0 1-7.967-8.032 8.004 8.004 0 0 1 8.032-7.968l53.496.218a8.004 8.004 0 0 1 7.968 8.032 8.004 8.004 0 0 1-8.033 7.968zm8.858 32.087c-4.416 0-8-3.585-8-8s3.584-8 8-8h44.03c4.415 0 8 3.585 8 8s-3.585 8-8 8zm-8.825 32.087c-4.416 0-8-3.585-8-8s3.584-8 8-8h64.488c4.415 0 8 3.585 8 8s-3.585 8-8 8zm8.825 29.438c-4.416 0-8-3.585-8-8 0-4.416 3.584-8 8-8h82.215c4.415 0 8 3.584 8 8 0 4.415-3.585 8-8 8z" opacity="1" data-original="#8ac9fe" class=""></path><path fill="#837683" d="M382.444 254.285c62.535 0 113.55-51.002 113.55-113.537s-51.015-113.55-113.55-113.55-113.55 51.015-113.55 113.55 51.015 113.537 113.55 113.537z" opacity="1" data-original="#837683" class=""></path><path fill="#685e68" d="M475.797 140.748c0 23.228-6.974 44.819-18.936 62.817a114.084 114.084 0 0 1-15.972 19.097c-18.132 17.407-42.03 28.847-68.543 31.18 3.325.295 6.692.443 10.098.443 5.512 0 10.943-.389 16.254-1.154a94.748 94.748 0 0 0 2.038-.308c54.019-8.744 95.258-55.602 95.258-112.075 0-62.709-50.841-113.55-113.55-113.55-3.406 0-6.773.148-10.098.443 57.988 5.109 103.451 53.791 103.451 113.107z" opacity="1" data-original="#685e68"></path><path fill="#8ac9fe" d="M382.444 151.691c-40.903 0-74.578 30.993-78.843 70.77 20.425 19.7 48.212 31.824 78.843 31.824 5.512 0 10.943-.389 16.254-1.154 24.14-3.46 45.838-14.524 62.575-30.67-4.251-39.79-37.926-70.77-78.829-70.77z" opacity="1" data-original="#8ac9fe" class=""></path><path fill="#60b7ff" d="M372.359 152.335c47.193 5.995 66.209 41.708 70.581 84.502a112.782 112.782 0 0 0 18.333-14.376c-4.251-39.79-37.926-70.77-78.829-70.77-3.42 0-6.786.215-10.085.644z" opacity="1" data-original="#60b7ff" class=""></path><path fill="#f6dccd" d="M382.444 145.697c22.088 0 40.098-18.011 40.098-40.085 0-22.088-18.01-40.086-40.098-40.086-22.074 0-40.085 17.998-40.085 40.086 0 22.074 18.011 40.085 40.085 40.085z" opacity="1" data-original="#f6dccd" class=""></path><path fill="#f1cbbc" d="M412.444 105.612c0 20.438-15.288 37.295-35.043 39.776 1.65.201 3.34.309 5.043.309 22.141 0 40.085-17.944 40.085-40.085 0-22.142-17.944-40.086-40.085-40.086-1.703 0-3.393.108-5.043.309 19.755 2.481 35.043 19.338 35.043 39.777z" opacity="1" data-original="#f1cbbc" class=""></path></g></svg>