<svg id="Capa_1" enable-background="new 0 0 512 512" viewBox="0 0 512 512" xmlns="http://www.w3.org/2000/svg"><g><path d="m271.847 15.681-5.072 12.226-30.058 95.966c-2.322 5.598 1.792 11.758 7.852 11.758l27.154-4.372c5.524 0 10.505-3.326 12.622-8.429l47.724-101.35c1.126-2.713-.869-5.7-3.806-5.7l-18.814-2.64h-33.796c-1.666 0-3.168 1.003-3.806 2.541z" fill="#7159b8"/><path d="m332.974 13.14h-25.754c2.938 0 4.932 2.986 3.806 5.7l-21.649 52.19c-.871 2.099-3.844 2.099-4.714 0l-17.887-43.122-35.183 84.817 45.615 27.731c5.524 0 10.505-3.326 12.622-8.429l10.068-24.271 36.884-88.916c1.124-2.714-.87-5.7-3.808-5.7z" fill="#6045af"/><path d="m494.721 493.244-20.092 5.616h-462.106c-6.916.001-12.523-5.606-12.523-12.523v-332.555c0-6.916 5.607-12.523 12.523-12.523h459.037l20.355 2.892c6.916 0 12.523 5.607 12.523 12.523l2.806 324.047c0 6.917-5.607 12.523-12.523 12.523z" fill="#eee4fa"/><path d="m499.477 141.259h-30.905c6.916 0 12.523 5.607 12.523 12.523v332.555c0 6.916-5.607 12.523-12.523 12.523h30.905c6.916 0 12.523-5.607 12.523-12.523v-332.555c0-6.916-5.607-12.523-12.523-12.523z" fill="#e4d5f8"/><path d="m323.208 173.427-17.441 3.456h-121.246c-6.056 0-10.966-4.91-10.966-10.966v-49.316c0-6.056 4.91-10.966 10.966-10.966h121.245l19.019 2.198c6.056 0 10.966 4.91 10.966 10.966l-1.578 43.662c0 6.056-4.909 10.966-10.965 10.966z" fill="#bb96ec"/><path d="m326.722 105.635h-24.724c6.056 0 10.966 4.91 10.966 10.966v49.316c0 6.056-4.909 10.966-10.966 10.966h24.724c6.056 0 10.966-4.91 10.966-10.966v-49.316c0-6.056-4.909-10.966-10.966-10.966z" fill="#af82e9"/><path d="m35.556 456.908v-233.981c0-5.792 4.696-10.488 10.488-10.488h196.79c5.792 0 10.488 4.696 10.488 10.488v233.981c0 5.792-4.696 10.488-10.488 10.488h-28.553l-68.609-11.662-71.076 11.662h-28.552c-5.793 0-10.488-4.696-10.488-10.488z" fill="#7c66bd"/><g><path d="m69.294 342.669c-11.031-41.194 11.375-86.348 53.297-98.116 2.647-.762 5.374-1.376 8.15-1.847 12.72.489 24.143 1.65 35.327 4.869 41.922 11.768 56.516 53.901 45.486 95.094z" fill="#f2bb96"/><path d="m219.566 342.667h-27.382c11.035-41.191-11.372-86.343-53.294-98.117-2.647-.758-5.376-1.378-8.151-1.844 11.728-1.99 24.342-1.378 35.532 1.844 41.923 11.774 64.33 56.926 53.295 98.117z" fill="#efae82"/><g><path d="m212.907 338.947c5.979 0 10.827 4.847 10.827 10.827v6.688c0 11.778-9.548 21.325-21.325 21.325h-115.957c-11.778 0-21.325-9.548-21.325-21.325v-6.688c0-5.979 4.847-10.827 10.827-10.827z" fill="#d08586"/></g><path d="m175.801 448.402c-2.282-1.561-3.724-4.189-3.724-7.092v-33.031h-55.274v33.022c0 2.893-1.433 5.513-3.697 7.083l-38.509 19.012h139.685z" fill="#d08586"/><path d="m177.327 405.389-12.571 9.792c-11.951 9.309-28.699 9.309-40.651 0l-12.571-9.792c-11.813-9.202-18.721-23.338-18.721-38.312v-28.13c0-9.545 8.051-17.113 17.578-16.523l17.289 1.07c10.903.675 21.751-2.017 31.074-7.711l15.791-9.645c9.419-5.753 21.504 1.026 21.504 12.064v48.875c-.001 14.974-6.909 29.11-18.722 38.312z" fill="#d8999a"/><g><path d="m144.431 392.346c-5.587 0-11.175-1.422-16.158-4.264-3.284-1.874-4.427-6.054-2.554-9.338 1.873-3.285 6.053-4.427 9.338-2.555 5.782 3.298 12.965 3.298 18.747 0 3.284-1.874 7.464-.73 9.338 2.555 1.873 3.284.73 7.464-2.554 9.338-4.983 2.842-10.57 4.264-16.157 4.264z" fill="#d08586"/></g></g><g><path d="m473.637 227.39h-48.184c-4.119 0-7.458-3.347-7.458-7.476s3.339-7.476 7.458-7.476h48.184c4.119 0 7.458 3.347 7.458 7.476s-3.339 7.476-7.458 7.476z" fill="#e4d5f8"/></g><g><path d="m390.021 227.39h-100.462c-4.119 0-7.458-3.347-7.458-7.476s3.339-7.476 7.458-7.476h100.462c4.119 0 7.458 3.347 7.458 7.476s-3.339 7.476-7.458 7.476z" fill="#e4d5f8"/></g><g><path d="m363.026 263.049h-73.198c-4.268 0-7.726-3.347-7.726-7.476s3.459-7.476 7.726-7.476h73.198c4.268 0 7.726 3.347 7.726 7.476s-3.458 7.476-7.726 7.476z" fill="#e4d5f8"/></g><g><path d="m423.632 298.708h-133.804c-4.268 0-7.726-3.347-7.726-7.476s3.459-7.476 7.726-7.476h133.804c4.268 0 7.726 3.347 7.726 7.476s-3.459 7.476-7.726 7.476z" fill="#e4d5f8"/></g><path d="m178.27 13.14c-2.938 0-4.932 2.986-3.806 5.7l46.952 113.188c2.116 5.103 7.097 8.429 12.622 8.429h21.842l17.712-2.797c6.061 0 10.174-6.16 7.852-11.758l-46.343-104.948c-.638-1.539-2.14-2.542-3.806-2.542l-19.866-5.272z" fill="#7c66bd"/><path d="m286.278 128.697-46.881-113.016c-.638-1.539-2.14-2.542-3.806-2.542h-25.755c1.666 0 3.168 1.003 3.806 2.542l46.881 113.016c2.322 5.598-1.792 11.758-7.852 11.758h25.755c6.06.001 10.174-6.16 7.852-11.758z" fill="#7159b8"/><g><path d="m364.02 343.598 6.317 6.952-6.317 52.536-44.921-25.059v-11.82c-.349-10.52 1.26-21.65 4.941-33.145 1.69-5.278 7.52-7.996 12.649-5.898 10.592 4.332 19.734 9.879 27.331 16.434z" fill="#a06ce5"/><path d="m453.188 366.207.047 13.34-41.645 21.523-15.844-47.83 12.52-9.643c7.597-6.555 16.74-12.102 27.331-16.434 5.13-2.098 10.959.62 12.65 5.898 3.681 11.496 5.29 22.626 4.941 33.146z" fill="#a06ce5"/><path d="m385.255 467.213c-49.577-5.298-88.712-44.723-94.01-94.301-.607-5.683 4.186-10.476 9.869-9.869 20.364 2.176 38.277 8.981 52.891 19.568l10.015 7 22.123 77.648z" fill="#af82e9"/><path d="m388.473 459.761c49.577-5.298 84.382-34.722 89.68-84.3.607-5.683-4.186-10.476-9.869-9.869-3.073.328-3.2-1.78-6.158-1.244-16.647 3.018-31.435 9.273-43.844 18.262l-12.745 9.192z" fill="#af82e9"/><g><path d="m471.173 363.043c-3.075.329-6.088.769-9.048 1.305-7.29 37.591-34.225 68.155-69.784 80.3l-5.327 22.567c49.577-5.298 88.73-44.726 94.028-94.303.608-5.683-4.185-10.476-9.869-9.869z" fill="#a06ce5"/></g><path d="m393.122 318.296c31.899 43.233 31.899 102.207 0 145.44-1.733 2.349-4.356 3.523-6.979 3.523s-5.245-1.174-6.979-3.523c-31.899-43.233-31.899-102.207 0-145.44 3.467-4.698 10.492-4.698 13.958 0z" fill="#bb96ec"/></g></g><g/><g/><g/><g/><g/><g/><g/><g/><g/><g/><g/><g/><g/><g/><g/></svg>