<svg id="Layer_1" enable-background="new 0 0 512 512" viewBox="0 0 512 512" xmlns="http://www.w3.org/2000/svg"><g clip-rule="evenodd" fill-rule="evenodd"><path d="m314.96 409.58 75-40.82c13.04-7.09 17.91-23.56 10.8-36.6-7.09-13.04-23.56-17.89-36.6-10.8l-81.27 44.22z" fill="#fbc894"/><path d="m302.74 458.17 156.95-85.44c13.04-7.09 17.89-23.56 10.8-36.57-7.09-13.04-23.56-17.92-36.6-10.8l-81.04 44.11c-1.3-10.09-8.22-19.05-18.48-22.34-30.95-9.98-61.88-19.93-92.81-29.91-24.77-7.97-49.04-5.7-71.89 6.75l-95.22 51.82 54.77 100.52 35.49-19.33c16.55-8.99 34.13-10.63 52.04-4.88l33.93 10.94c17.96 5.79 35.51 4.14 52.06-4.87z" fill="#fbbd80"/><path d="m39.17 371.66 78.8 136.83c1.93 3.34 6.26 4.51 9.61 2.58l35.04-20.18c3.37-1.93 4.54-6.26 2.61-9.61l-78.8-136.83c-1.93-3.34-6.26-4.51-9.64-2.58l-35.01 20.18c-3.37 1.92-4.53 6.26-2.61 9.61z" fill="#0593fc"/><path d="m366.38 362.1c2.01 7.48 1.96 15.59-.6 23.5-7.03 21.86-30.61 33.93-52.47 26.9l-69.17-22.28c-2.75-.88-4.62-3.15-4.99-6.04-.34-2.86.94-5.53 3.4-7.06l.2-.11c1.87-1.19 3.94-1.45 6.04-.77l69.02 22.25c14.15 4.54 29.42-3.29 33.96-17.43 1.25-3.85 1.56-7.8 1.08-11.59z" fill="#e2aa73"/><path d="m202.19 361.25c12.3 3.94 24.58 7.91 36.88 11.88 26.25 8.45 52.5 16.89 78.75 25.37 14.15 4.54 29.42-3.29 33.96-17.43 4.54-14.12-3.29-29.4-17.4-33.93l-72.03-23.22z" fill="#fbbd80"/><path d="m39.17 371.66 78.8 136.83c1.93 3.34 6.26 4.51 9.61 2.58l9.92-5.7c-3.37 1.93-7.68.77-9.61-2.61l-78.8-136.8c-1.93-3.37-.77-7.68 2.58-9.61l25.14-14.49h-.03l-35.01 20.18c-3.36 1.93-4.52 6.27-2.6 9.62z" fill="#0584e3"/><path d="m321 169.55c19.05 0 34.61-15.53 34.61-34.58 0-19.08-15.56-34.61-34.61-34.61s-34.58 15.53-34.58 34.61c-.01 19.04 15.53 34.58 34.58 34.58z" fill="#0593fc"/><path d="m269.23 282.39v-35.57c0-1.42-.31-2.61-1.02-3.83l-53.38-91.39c-6.26-10.74-2.64-24.63 8.11-30.9 10.71-6.26 24.63-2.61 30.9 8.11l36.2 62.02c1.76 2.98 5.16 4.39 8.5 3.49 15.65-4.25 29.25-4.25 44.9 0 3.34.91 6.77-.51 8.5-3.49l36.23-62.02c6.26-10.71 20.15-14.37 30.9-8.11 10.71 6.26 14.37 20.15 8.11 30.9l-53.38 91.39c-.71 1.22-1.05 2.41-1.05 3.83v35.57c0 4.17-3.4 7.57-7.54 7.57h-88.41c-4.16 0-7.57-3.4-7.57-7.57z" fill="#0593fc"/><g fill="#ffd400"><path d="m324.82 2.78 6.41 19.84c.54 1.7 2.04 2.81 3.83 2.78l20.86-.03c1.79 0 3.29 1.08 3.83 2.78.54 1.67-.03 3.43-1.47 4.48l-16.89 12.25c-1.45 1.02-2.01 2.81-1.47 4.48l6.49 19.84c.57 1.67-.03 3.46-1.45 4.48-1.45 1.05-3.29 1.05-4.71 0l-16.89-12.3c-1.42-1.05-3.29-1.05-4.71 0l-16.87 12.3c-1.42 1.05-3.29 1.05-4.71 0-1.45-1.02-2.01-2.81-1.47-4.48l6.49-19.84c.57-1.67-.03-3.46-1.45-4.48l-16.92-12.25c-1.42-1.05-2.01-2.81-1.45-4.48.54-1.7 2.04-2.78 3.8-2.78l20.89.03c1.76.03 3.26-1.08 3.8-2.78l6.43-19.84c.54-1.7 2.04-2.78 3.8-2.78 1.79.01 3.29 1.08 3.83 2.78z"/><path d="m421.68 28.1 6.41 19.87c.57 1.67 2.07 2.78 3.83 2.78l20.89-.06c1.76 0 3.26 1.11 3.8 2.78.57 1.67-.03 3.43-1.45 4.48l-16.92 12.25c-1.42 1.02-2.01 2.81-1.45 4.48l6.49 19.84c.54 1.7-.03 3.46-1.47 4.48-1.42 1.05-3.29 1.05-4.71 0l-16.87-12.3c-1.42-1.05-3.29-1.05-4.73 0l-16.87 12.3c-1.42 1.05-3.29 1.05-4.71 0-1.42-1.02-2.01-2.78-1.45-4.48l6.49-19.84c.54-1.67-.03-3.46-1.47-4.48l-16.89-12.25c-1.45-1.05-2.01-2.81-1.47-4.48s2.04-2.78 3.83-2.78l20.86.06c1.79 0 3.29-1.11 3.83-2.78l6.41-19.87c.54-1.7 2.04-2.78 3.83-2.78 1.75 0 3.25 1.08 3.79 2.78z"/><path d="m227.93 28.1 6.41 19.87c.57 1.67 2.07 2.78 3.83 2.78l20.89-.06c1.76 0 3.26 1.11 3.8 2.78.57 1.67-.03 3.43-1.45 4.48l-16.92 12.25c-1.42 1.02-2.01 2.81-1.45 4.48l6.49 19.84c.54 1.7-.03 3.46-1.47 4.48-1.42 1.05-3.29 1.05-4.71 0l-16.87-12.3c-1.42-1.05-3.29-1.05-4.73 0l-16.87 12.3c-1.42 1.05-3.26 1.05-4.71 0-1.42-1.02-2.01-2.78-1.45-4.48l6.49-19.84c.54-1.67-.03-3.46-1.47-4.48l-16.89-12.25c-1.45-1.05-2.01-2.81-1.47-4.48s2.04-2.78 3.83-2.78l20.86.06c1.79 0 3.29-1.11 3.83-2.78l6.41-19.87c.54-1.7 2.04-2.78 3.83-2.78 1.75 0 3.26 1.08 3.79 2.78z"/></g><path d="m321 100.35c1.36 0 2.69.08 4 .23-17.21 1.98-30.59 16.61-30.59 34.38 0 17.74 13.38 32.37 30.59 34.36-1.3.14-2.64.23-4 .23-19.11 0-34.58-15.48-34.58-34.58-.01-19.11 15.47-34.62 34.58-34.62z" fill="#0584e3"/><path d="m269.23 282.39v-35.57c0-1.42-.31-2.61-1.02-3.83l-53.38-91.39c-6.26-10.74-2.64-24.63 8.11-30.9 5.16-3 11.06-3.74 16.5-2.47-2.13.48-4.2 1.3-6.18 2.47-10.74 6.26-14.37 20.15-8.11 30.9l53.38 91.39c.71 1.22 1.02 2.41 1.02 3.83v35.57c0 4.17 3.4 7.57 7.57 7.57h-10.32c-4.16 0-7.57-3.4-7.57-7.57zm80.45-89.09c.91-.62 1.67-1.47 2.27-2.47l36.23-62.02c5.1-8.76 15.31-12.78 24.72-10.57-5.87 1.36-11.17 5.02-14.4 10.57l-36.23 62.02c-1.73 2.98-5.16 4.39-8.5 3.49-1.4-.4-2.76-.74-4.09-1.02z" fill="#0584e3"/></g></svg>