<svg xmlns="http://www.w3.org/2000/svg" version="1.1" xmlns:xlink="http://www.w3.org/1999/xlink" width="512" height="512" x="0" y="0" viewBox="0 0 512 512" style="enable-background:new 0 0 512 512" xml:space="preserve" class=""><g><linearGradient id="a" x1="256" x2="256" y1="512" y2="46" gradientUnits="userSpaceOnUse"><stop stop-opacity="1" stop-color="#a93aff" offset="0"></stop><stop stop-opacity="1" stop-color="#f68df6" offset="0"></stop><stop stop-opacity="1" stop-color="#f68df6" offset="0.021235521235521235"></stop><stop stop-opacity="1" stop-color="#f68df6" offset="0.19111969111969113"></stop><stop stop-opacity="1" stop-color="#f68df6" offset="0.5077220077220077"></stop><stop stop-opacity="1" stop-color="#c55cc5" offset="1"></stop></linearGradient><linearGradient id="b" x1="256" x2="256" y1="451" y2="0" gradientUnits="userSpaceOnUse"><stop offset="0" stop-color="#ffbef9"></stop><stop offset="1" stop-color="#fff1ff"></stop></linearGradient><path fill="url(#a)" d="M263.582 106 0 136v331c0 24.898 20.099 45 45 45h422c24.902 0 45-20.102 45-45V136zM106 106c16.553 0 30-13.462 30-30s-13.447-30-30-30-30 13.462-30 30 13.447 30 30 30zm60 0c16.553 0 30-13.462 30-30s-13.447-30-30-30-30 13.462-30 30 13.447 30 30 30zm60 0c16.553 0 30-13.462 30-30s-13.447-30-30-30-30 13.462-30 30 13.447 30 30 30z" opacity="1" data-original="url(#a)" class=""></path><path fill="url(#b)" d="M467 0H45C20.099 0 0 20.1 0 45v91h512V45c0-24.9-20.098-45-45-45zM106 91c-8.284 0-15-6.716-15-15 0-8.286 6.716-15 15-15s15 6.714 15 15c0 8.284-6.716 15-15 15zm60 0c-8.284 0-15-6.716-15-15 0-8.286 6.716-15 15-15s15 6.714 15 15c0 8.284-6.716 15-15 15zm60 0c-8.284 0-15-6.716-15-15 0-8.286 6.716-15 15-15s15 6.714 15 15c0 8.284-6.716 15-15 15zm0 90H106c-8.291 0-15 6.709-15 15v90c0 8.291 6.709 15 15 15h120c8.291 0 15-6.709 15-15v-90c0-8.291-6.709-15-15-15zm180 150H286c-8.291 0-15 6.709-15 15v90c0 8.291 6.709 15 15 15h120c8.291 0 15-6.709 15-15v-90c0-8.291-6.709-15-15-15zm-180 90H106c-8.291 0-15 6.709-15 15s6.709 15 15 15h120c8.291 0 15-6.709 15-15s-6.709-15-15-15zm0-60H106c-8.291 0-15 6.709-15 15s6.709 15 15 15h120c8.291 0 15-6.709 15-15s-6.709-15-15-15zm180-90H286c-8.291 0-15 6.709-15 15s6.709 15 15 15h120c8.291 0 15-6.709 15-15s-6.709-15-15-15zm0-60H286c-8.291 0-15 6.709-15 15s6.709 15 15 15h120c8.291 0 15-6.709 15-15s-6.709-15-15-15z" opacity="1" data-original="url(#b)" class=""></path></g></svg>