<svg xmlns="http://www.w3.org/2000/svg" version="1.1" xmlns:xlink="http://www.w3.org/1999/xlink" width="512" height="512" x="0" y="0" viewBox="0 0 512 512" style="enable-background:new 0 0 512 512" xml:space="preserve" class=""><g><circle cx="384" cy="392" r="72" fill="#62798c" opacity="1" data-original="#62798c"></circle><path fill="#ffbfa1" d="m296.73 309.84-25.35 21.23L221.33 256H160v-48h68.92a40.019 40.019 0 0 1 37.14 25.14z" opacity="1" data-original="#ffbfa1"></path><path fill="#62798c" d="M288.306 384v-32a32 32 0 0 1 32-32H368v-32h-56a56 56 0 0 0-56 56v40z" opacity="1" data-original="#62798c"></path><path fill="#718799" d="M350.054 160 424 464h-32l-73.946-304z" opacity="1" data-original="#718799" class=""></path><path fill="#923838" d="M160 208h56v48h-56z" opacity="1" data-original="#ffa100" class=""></path><path fill="#8098ab" d="M312 144h48l28.686-28.686a11.314 11.314 0 0 1 8-3.314A11.314 11.314 0 0 1 408 123.314a11.314 11.314 0 0 1-3.314 8l-24.97 24.97A40 40 0 0 1 351.43 168H312z" opacity="1" data-original="#8098ab" class=""></path><path fill="#718799" d="M288 464v-32h-40l16 32zM104 464l16-32v-16H80v48z" opacity="1" data-original="#718799" class=""></path><path fill="#62798c" d="M120 280h32v64h-32z" opacity="1" data-original="#62798c"></path><path fill="#8098ab" d="M288.306 367.108 288 432H108.98A52.98 52.98 0 0 1 56 379.02a52.98 52.98 0 0 1 65.21-51.55zM88 248h112v32H88z" opacity="1" data-original="#8098ab" class=""></path><path fill="#ffceb6" d="M248 285.66a44.291 44.291 0 0 1-12.97 31.31L184 368l-40-8 56-72-35.37-20.63-36.54-21.32a48.56 48.56 0 0 1-9.87-76.27L140 148l68-68h16v80l-48 48 27 21 27.9 21.7a44.28 44.28 0 0 1 17.1 34.96z" opacity="1" data-original="#ffceb6" class=""></path><path fill="#ef5e3b" d="M224 80v80l-36 36-48-48 68-68z" opacity="1" data-original="#ef5e3b"></path><path fill="#b1712c" d="m216 40-7.495-7.495A29.038 29.038 0 0 0 187.972 24a32.315 32.315 0 0 0-28.904 17.864A32.315 32.315 0 0 1 136.502 59.1L112 64l26.547 9.955A53.385 53.385 0 0 0 200 56h16z" opacity="1" data-original="#b1712c"></path><path fill="#ffceb6" d="M208 71.999 224 56h24v24a24 24 0 0 1-24 24 24 24 0 0 1-24-24v-8z" opacity="1" data-original="#ffceb6" class=""></path><path fill="#c78640" d="M248 56a24 24 0 0 0-24-24 24 24 0 0 0-24 24v16l8-.001L224 56z" opacity="1" data-original="#c78640" class=""></path><path fill="#ffceb6" d="M242.894 184a45.615 45.615 0 0 0 10.085-1.129l63.338-14.36a16.569 16.569 0 0 0 12.905-16.158 18.767 18.767 0 0 0-18.767-18.767 18.767 18.767 0 0 0-9.71 2.708L288 144h-40l-41.373-41.373a22.627 22.627 0 0 0-16-6.627A22.627 22.627 0 0 0 168 118.627a22.627 22.627 0 0 0 6.627 16l36.013 36.013A45.614 45.614 0 0 0 242.894 184z" opacity="1" data-original="#ffceb6" class=""></path><path fill="#e0edff" d="m144 360 40 8 8 40-16 16-40-56z" opacity="1" data-original="#e0edff"></path><path fill="#8098ab" d="M56 464h368v24H56z" opacity="1" data-original="#8098ab" class=""></path><path fill="#c74c4c" d="m203 229-38.37 38.37-36.54-21.32a48.56 48.56 0 0 1-9.87-76.27L140 148l48 48-12 12z" opacity="1" data-original="#ffb401" class=""></path></g></svg>