<svg xmlns="http://www.w3.org/2000/svg" version="1.1" xmlns:xlink="http://www.w3.org/1999/xlink" width="512" height="512" x="0" y="0" viewBox="0 0 512 512" style="enable-background:new 0 0 512 512" xml:space="preserve" class=""><g><path fill="#f3aa7d" d="m230 94.6 8.3-11.6-15-18.7-1.8-10.7-15.6 3.1-15.5-3.9-8.8-7.3-12 7.3 26.1 28.4z" opacity="1" data-original="#f3aa7d"></path><path fill="#b23998" d="m190.4 52.8-8.8-7.3-12 7.3 8.7 9.5z" opacity="1" data-original="#b23998"></path><path fill="#68a16d" d="m327.2 305.3 80.4 92.3c13.8 15.8 21.4 36.1 21.4 57.1 0 17.9-14.5 32.3-32.3 32.3L252 467l12.1-25 90.7-9.1-84.5-54.7" opacity="1" data-original="#d84861" class=""></path><path fill="#435032" d="m270.3 378.1 17.4 11.3c32.8-19.8 49.6-43.7 58.1-62.7l-18.7-21.4z" opacity="1" data-original="#c22945" class=""></path><path fill="#b3d34c" d="m248.4 107.2 57 24.2 1.6 3.2c4.8 9.8 6.5 20.8 4.8 31.5l11.3 19.6 11.3 89.8-66.3-19.5-5-32-36.1-43" opacity="1" data-original="#b3d34c"></path><path fill="#f3aa7d" d="m100.3 243 9.9-11.2c3-3.3 3.9-8 2.4-12.2-1.4-4-4.7-6.9-8.8-7.8-8.3-1.9-15.4-7.3-19.4-14.9l-17.6-33.6-11.3 11.5 5.4 40.2 18.9 36.7" opacity="1" data-original="#f3aa7d"></path><path fill="#8c2e77" d="M5 487h502v20H5z" opacity="1" data-original="#8c2e77"></path><circle cx="161.3" cy="126.8" r="20" fill="#b23998" opacity="1" data-original="#b23998"></circle><path fill="#f6c9aa" d="M263.6 158.9c-4.5 13.2-17 22.1-30.9 22.1H227l-33.6-39.9L104.1 56l-28.4 93.2 11.2 22.1-12.6 24.6-9.4 5.6L52 165 79.3 5h21l147.8 102.1.2.1 13.4 26.2c4.1 7.9 4.8 17.1 1.9 25.5z" opacity="1" data-original="#f6c9aa" class=""></path><path fill="#68a16d" d="m268.1 256-12.2 19.8-29.7 13.3c-7.4 3.3-13.7 8.6-18.1 15.4-6 9.2-8.2 20.5-6.1 31.3l.7 3.3-48.8 54.8L100.3 243l-20.6 8.7 24 209.7c1.7 14.6 14 25.6 28.6 25.6H143l154.5-132.2c23.2-19.8 36.6-48.8 36.9-79.3" opacity="1" data-original="#d84861" class=""></path><path fill="#f6c9aa" d="m264.3 442-8.5-12.8c-4.2-6.4-12.8-8.3-19.3-4.4-2.6 1.6-4.6 3.9-5.8 6.7-5.6 13.1-15.6 23.8-28.3 30.3l-19.8 10.1-9.5 15.1H206l46-20z" opacity="1" data-original="#f6c9aa" class=""></path><g fill="#c22945"><path d="m153.9 393.9-17.5 19.7-43.8-49.7-12.9-112.2 20.6-8.7zM354.8 432.8l21 13.7-61.5 28.4L252 467l12.3-25z" fill="#435032" opacity="1" data-original="#c22945" class=""></path></g></g></svg>